<?xml-stylesheet type="text/css" href="../../styles/main.min.css" ?><svg xmlns="http://www.w3.org/2000/svg" viewBox="-9.223 -288.133 1280 800" enable-background="new -9.223 -288.133 1280 800"><path class="override" fill="#fff" d="M823.74 326.419c16.783 0 30.391-13.707 30.391-30.607v-370.227c0-16.9-13.608-30.607-30.391-30.607h-385.918c-16.774 0-30.391 13.707-30.391 30.607v370.227c0 16.9 13.608 30.607 30.391 30.607h385.918z"/><path d="M823.74 330.982h-385.918c-19.281 0-34.963-15.782-34.963-35.17v-370.227c0-19.398 15.682-35.179 34.963-35.179h385.909c19.281 0 34.963 15.782 34.963 35.179v370.227c.009 19.388-15.682 35.17-34.954 35.17zm-385.918-431.423c-14.23 0-25.81 11.669-25.81 26.026v370.227c0 14.357 11.579 26.035 25.81 26.035h385.909c14.239 0 25.819-11.678 25.819-26.035v-370.227c0-14.357-11.579-26.026-25.819-26.026h-385.909zm58.798 107.188h-30.003l-6.583 21.815h-26.342l33.944-102.869h30.301l32.492 102.869h-28.398l-5.411-21.815zm-14.05-60.123h-.298l-10.975 40.374h20.191l-8.918-40.374zm51.655-28.596h26.351v110.534h-26.351zm43.494 51.736h-13.464v-17.982h13.464v-10.903c0-17.838 9.956-24.61 25.314-24.61 9.081 0 14.194 1.181 17.125 1.768l-.586 18.857c-1.614-.586-3.661-1.47-6.737-1.47-6.006 0-8.784 3.237-8.784 10.019v6.34h14.349v17.982h-14.348v58.807h-26.342v-58.807h.009zm45.352 4.266c0-10.903-.442-18.712-.884-22.248h24.745c.433 3.093.577 8.54.577 12.815h.289c2.2-6.042 6.881-14.591 19.461-14.591 1.903 0 2.796.153 4.392.451v23.122c-1.172-.433-4.834-.884-7.9-.884-8.486 0-14.339 7.521-14.339 17.693v38.164h-26.351v-54.522h.01zm74.516 23.429c.73 12.391 9.207 16.061 19.019 16.061 7.169 0 15.8-3.228 22.247-6.033l.577 18.424c-6.286 2.065-15.953 4.275-26.63 4.419-30.887.144-39.806-20.787-39.806-40.536 0-21.066 12.436-39.779 35.423-39.779 23.853 0 35.116 19.001 35.116 39.932v7.512h-45.946zm21.95-13.843v-2.209c0-10.326-2.787-15.186-10.695-15.186-7.449 0-11.841 6.782-11.841 17.396h22.536zm103.617 31.383c0 4.572.289 8.991.577 13.563h-25.169c-.298-4.13-.73-8.252-.73-12.382h-.298c-5.555 10.317-12.283 13.563-20.191 13.563-20.047 0-28.533-18.126-28.533-41.42 0-17.982 8.188-38.309 27.225-38.309 10.1 0 15.646 4.121 21.075 12.968h.289c-.289-3.237-.577-7.963-.577-13.707v-31.238h26.342v96.962h-.01zm-36.577-3.824c6.583 0 10.245-8.847 10.245-21.661 0-12.824-3.652-21.517-10.245-21.517-7.765 0-10.253 8.693-10.253 21.517 0 12.805 2.48 21.661 10.253 21.661m-170.296 203.537c9.676 19.668 32.871 23.808 58.058 20.94 2.796-.469 4.5.541 5.221 2.02 1.1 2.227-1.389 5.781-4.969 7.097-41.627 8.766-81.352-5.618-96.195-37.019-14.97-30.427 1.425-76.951 31.924-104.645l-42.123-48.77c-34.278 60.547-70.62 130.428-42.809 188.17 28.479 57.878 110.065 61.53 178.359 24.682 10.984-5.952 20.931-12.761 30.328-20.678l-92.823-107.567c-24.07 19.885-36.776 53.009-24.971 75.77m-135.397 24.574c-34.214-54.821-9.451-124.359 20.282-188.477h-68.429v215.116c.036 11.011 6.854 18.532 12.463 22.861 6.628 4.825 12.201 4.509 12.201 4.509h87.565c-26.441-11.2-48.878-29.444-64.082-54.009m161.405-157.22c61.449-31.112 125.459-10.371 148.518 37.722 19.533 39.697 2.895 84.499-34.81 124.566l42.114 48.941 2.453-.505c11.128-1.876 24.52-9.307 24.277-27.036v-214.945h-237.4l36.46 41.808c5.943-3.887 12.066-7.413 18.388-10.551m122.203 66.562c-20.191-32.438-65.426-40.825-108.433-18.911l91.732 105.34c23.275-26.405 31.31-60.439 16.701-86.429m-64.245 136.019c-6.574 3.274-13.229 6.132-19.921 8.657h94.87l-32.176-36c-13.897 11.084-28.199 20.066-42.773 27.343"/></svg>