<svg xmlns="http://www.w3.org/2000/svg" width="491.81" height="174.467" viewBox="0 0 491.81 174.467"><g fill="#B3B3B3"><path d="M60.924 42.725h31.56v7.01h-33.606c-13.003 0-21.966 1.951-26.883 5.844-6.965 3.459-12.322 10.573-16.072 21.333-.779 3.071-1.365 6.964-1.753 11.692.389 5.845 1.362 11.004 2.923 15.486 3.895 9.304 10.129 16.022 18.701 20.159 4.869 2.343 12.664 3.514 23.379 3.514h68.027l-1.047 6.717h-75.164c-14.271 0-26.057-5.844-35.358-17.535-3.019-4.333-5.36-9.687-7.016-16.067l-1.752-10.522c0-7.354 1.656-15.146 4.967-23.377l3.801-6.137c5.161-7.599 12.662-12.859 22.5-15.782 3.604-1.558 11.202-2.335 22.793-2.335zM10.15 121.313c-2.115-3.048-3.874-6.356-5.244-9.846-4.768-12.143-6.548-25.002-3.139-37.736.877-3.275 2.061-6.547 3.513-9.613 2.203-4.651 5.221-8.991 8.787-12.691 4.574-4.746 9.947-8.409 15.993-11.02 1.721-.742 3.482-1.4 5.26-1.995 4.161-1.392 8.452-2.078 12.82-2.393 1.233-.089 2.469-.153 3.704-.21 3.022-.135 6.051-.168 9.076-.193v7.011-7.011h38.659v21.223l-40.702-.01c-5.49-.045-10.908.832-16.294 1.812-10.345 1.88-16.86 10.604-19.818 20.224-3.66 11.902-.503 26.209 9.212 34.425 2.071 1.751 4.469 3.33 6.891 4.557 3.041 1.541 10.121 2.862 20.301 2.803h76.324l-3.26 20.93h-81.644c-9.074 0-19.388-2.903-27.096-7.61-5.335-3.261-9.83-7.599-13.343-12.657z"/></g><g fill="#B3B3B3"><path d="M128.295 54.339c7.11-8.472 15.584-12.711 25.422-12.711h.587v6.501h-.292c-9.401 0-16.609 3.843-21.626 11.539-2.532 3.494-3.799 9.318-3.799 17.452v57.368h-6.721v-93.16h6.43v13.011zM114.759 141.577v-107.358h20.641v4.986c5.596-3.09 11.798-4.736 18.32-4.691h7.681v20.715h-7.388999999999999c-5.497 0-10.671 2.144-14.274 6.347-1.034 1.206-2.047 2.714-2.579 4.222-.715 2.027-1.066 4.174-1.274 6.309-.162 1.665-.195 3.344-.195 5.015v64.457h-20.931z"/></g><g fill="#B3B3B3"><path d="M172.847 41.65v39.162c0 13.242 1.752 22.301 5.26 27.175 3.75 7.107 9.984 12.37 18.703 15.777 5.503 1.946 10.276 2.925 14.317 2.925h2.34c7.837 0 15.926-2.73 24.255-8.183 9.351-7.99 14.026-18.609 14.026-31.852v-45.297h6.426v92.347h-6.426v-20.457c-5.457 8.667-13.736 14.806-24.839 18.407-3.996 1.366-7.794 2.05-11.399 2.05h-1.753c-15.829 0-27.908-4.973-36.237-14.904-4.771-4.286-8.277-11.303-10.52-21.043-.778-4.868-1.168-8.57-1.168-11.102v-45.005h7.015zM172.394 123.729c-6.142-5.767-9.915-14.05-12.315-24.385l-.06-.252-.031-.219c-.8-5.073-1.25-8.988-1.259-12.223v-52.109h14.12v7.109-7.109h7.099v46.272c0 7.327-.163 15.54 3.322 22.213 2.658 5.089 6.711 9.318 11.724 12.131 1.336.749 2.742 1.389 4.184 1.903 4.99 1.781 9.05 2.534 11.952 2.521 6.809-.034 13.694-1.556 19.58-5.082 5.594-3.351 9.772-8.837 11.947-14.949.586-1.642 1.019-3.368 1.315-5.087.438-2.548.669-5.225.669-7.812v-52.398h20.639v106.547h-20.639v-10.002c-4.564 3.213-9.754 5.75-15.441 7.576-4.601 1.569-9.18 2.426-13.691 2.426h-2.147c-16.885 0-31.276-5.644-40.968-17.071z"/></g><g fill="#B3B3B3"><path d="M307.643 41.303h71.068l2.607 6.736h-75.137c-10.081 0-16.515 4.104-19.289 12.304-.781 2.542-1.17 4.786-1.17 6.732 0 5.272 2.243 9.967 6.725 14.067 3.553 2.534 6.673 3.911 9.35 4.105h40.622c5.108.586 9.59 2.532 13.439 5.859 3.994 3.799 6.432 7.71 7.306 11.716l.586 3.801v6.15c-.586 4.792-2.824 9.474-6.724 14.062-3.161 3.023-7.255 5.179-12.272 6.445l-6.428.298-86.245.216-.777-6.635 85.561-.026c10.716 0 17.338-4.398 19.872-13.177l.582-4.693c0-7.478-3.7-12.93-11.103-16.404l-5.258-1.169h-37.114999999999995c-5.16.189-10.127-1.28-14.904-4.395-6.622-5.616-9.934-12.45-9.934-20.511 0-7.516 3.021-14.254 9.06-20.209 4.526-3.518 11.055-5.272 19.578-5.272zM243.322 120.058l93.542-.034c8.747-.489 10.854-2.179 12.912-7.688l.417-3.386c.415-2.63-1.352-5.874-3.321-7.445-2.202-1.759-5.02-2.477-7.783-2.674-1.584-.114-3.167-.061-4.754-.053-4.509.021-9.018-.005-13.527.005l-3.276.002c-6.71 0-13.69.508-20.329-.625-2.387-.408-4.844-1.148-7.054-2.142-8.757-3.929-15.253-12.217-17.421-21.542-.576-2.482-.851-5.143-.824-7.691.091-9.008 3.851-18.917 10.814-24.892 5.328-4.572 11.963-6.721 18.867-7.409.506-.051 6.058-.381 6.058-.292v6.743-6.743h75.933l8.109 20.943h-85.501c-2.603.135-5.429.321-7.825 1.459-3.701 1.758-5.536 6.592-5.536 10.481 0 4.446 3.445 9.716 7.88 10.839 1.601.405 3.289.237 4.92.227 2.88-.018 5.761-.002 8.64-.005 3.623-.003 7.247-.024 10.871-.001 3.412.021 6.83-.062 10.241.014 2.983.066 5.846-.057 8.827.289 4.794.552 9.303 2.295 13.302 5.01 1.13.766 2.214 1.605 3.242 2.504 4.332 3.785 7.909 9.214 9.257 14.828.42 1.752.757 3.631.855 5.431.115 2.122-.009 4.281-.004 6.408.01 4.533-2.057 9.36-4.31 13.203-2.222 3.788-5.161 7.201-8.874 9.587-3.583 2.301-7.934 4.493-12.222 4.943-2.13.223-4.311.226-6.451.307-2.398.091-4.821.031-7.224.033-1.25 0-2.5-.009-3.75-.004-1.677.006-3.353.02-5.029.022-1.744.002-3.488 0-5.233.006-2.013.007-4.026.018-6.04.021-2.054.004-4.108.005-6.161.011-2.203.009-4.404.019-6.606.021-2.19.004-4.382.006-6.573.014-2.233.007-4.467.016-6.7.021-2.162.003-4.323.008-6.485.014-2.105.008-4.211.015-6.318.019-1.965.004-3.932.009-5.897.015-1.818.006-3.637.011-5.456.014l-4.816.013c-1.37.005-2.74.008-4.111.011l-3.24.008-2.289.006-1.149.004h-.164l-2.434-20.85z"/></g><g fill="#B3B3B3"><path d="M390.934 61.749h.292c4.189-7.45 10.907-13.102 20.162-16.95 5.406-2.529 12.13-3.796 20.161-3.796h1.17c8.283 0 17.24 3.117 26.886 9.351 6.915 5.846 11.397 11.789 13.444 17.828 2.336 3.99 3.506 10.908 3.506 20.743v44.127h-6.72v-45.295c0-18.114-8.38-30.587-25.133-37.403-3.558-1.215-8.328-1.997-14.318-2.34-9.984 0-19.241 3.412-27.765 10.229l-2.918 3.214c-5.846 6.869-8.768 16.71-8.768 29.518v42.078h-6.725v-125.953h6.725v54.649zM462.726 140.149v-52.397c-.35-15.824-6.121-24.463-20.551-30.757-2.573-.855-6.662-1.573-11.994-1.884-8.104.084-15.409 2.668-22.706 8.339l-2.369 2.613c-4.38 5.127-7.061 13.109-7.072 24.905v49.181h-20.929v-140.149h20.929v14.808c0 4.23.001 8.46 0 12.689 0 3.691-.001 7.381.001 11.071v3.595c-.001.312-.185 1.354-.007 1.622l-.003.218c.005-.346 2.462-1.609 2.818-1.832 5.153-3.219 10.854-5.562 16.782-6.895 1.831-.412 3.685-.726 5.552-.924 2.766-.293 5.588-.453 8.369-.453l1.17-.01c6.188 0 12.418 1.484 18.119 3.805 6.054 2.465 12.024 5.67 16.812 10.172 7.394 6.951 12.88 16.718 14.832 26.687.924 4.719 1.175 9.566 1.175 14.368v51.227h-20.928z"/></g><g fill="#ccc"><path d="M201.43 151.046c1.614 0 2.918.262 3.908.79.989.532 1.762 1.281 2.31 2.261.551.981.92 2.159 1.115 3.537.194 1.38.292 2.918.292 4.621 0 2.025-.125 3.787-.372 5.279-.248 1.5-.673 2.736-1.276 3.703-.603.97-1.411 1.691-2.423 2.162-1.011.478-2.291.713-3.842.713h-7.335v-23.066h7.623zm-.907 19.642c.819 0 1.476-.142 1.973-.417.494-.283.887-.747 1.179-1.395.29-.641.484-1.492.581-2.554.097-1.051.145-2.365.145-3.939 0-1.313-.044-2.465-.129-3.453-.086-.989-.264-1.817-.533-2.475-.27-.655-.668-1.151-1.195-1.485-.529-.331-1.234-.499-2.116-.499h-1.971v16.217h2.066zM220.715 151.046c1.937 0 3.444.49 4.521 1.469 1.078.982 1.617 2.472 1.617 4.479 0 1.547-.314 2.814-.939 3.791-.623.979-1.593 1.615-2.905 1.891v.067c1.162.168 2.013.55 2.552 1.131.536.578.872 1.517 1.001 2.808.042.432.075.9.097 1.405l.064 1.697c.041 1.226.107 2.164.194 2.812.127.643.408 1.087.839 1.322v.194h-5.04c-.236-.324-.386-.693-.451-1.116-.065-.42-.108-.855-.129-1.308l-.129-4.425c-.044-.907-.271-1.613-.681-2.131-.409-.521-1.098-.778-2.067-.778h-2.488v9.758h-4.649v-23.066h8.593zm-2.004 10.079c1.12 0 1.982-.262 2.583-.789.604-.528.906-1.419.906-2.669 0-2.131-1.077-3.196-3.23-3.196h-2.199v6.654h1.94zM235.092 167.134c0 .583.037 1.113.112 1.601.074.484.216.902.42 1.258.206.355.486.638.842.84.353.206.799.307 1.336.307.562 0 1.015-.101 1.358-.307.345-.202.62-.485.823-.84.206-.355.346-.773.421-1.258.077-.487.114-1.018.114-1.601v-16.088h4.651v16.088c0 1.464-.205 2.676-.614 3.636-.409.957-.958 1.713-1.646 2.274-.689.564-1.476.939-2.358 1.133-.884.194-1.801.29-2.749.29-.948 0-1.86-.089-2.743-.259-.884-.171-1.67-.523-2.358-1.049-.689-.527-1.24-1.276-1.648-2.248-.411-.965-.614-2.229-.614-3.777v-16.088h4.653v16.088zM255.118 151.046l3.293 16.282h.064l3.327-16.282h6.883v23.066h-4.265v-18.415h-.064l-4.103 18.415h-3.618l-4.102-18.415h-.065v18.415h-4.265v-23.066h6.915zM275.76 167.585c0 .54.044 1.029.13 1.474.086.438.248.813.484 1.113.237.3.555.537.954.708.397.175.899.259 1.503.259.709 0 1.352-.232 1.921-.696.57-.46.856-1.178.856-2.145 0-.519-.069-.965-.211-1.342-.138-.377-.369-.715-.692-1.015-.325-.308-.75-.579-1.277-.831-.526-.244-1.179-.499-1.952-.756-1.035-.343-1.929-.722-2.682-1.127-.756-.413-1.385-.891-1.892-1.44-.506-.55-.878-1.183-1.113-1.902-.24-.723-.356-1.561-.356-2.508 0-2.28.636-3.983 1.904-5.102 1.273-1.118 3.017-1.685 5.236-1.685 1.031 0 1.985.117 2.857.343.871.227 1.625.591 2.261 1.097.637.509 1.132 1.151 1.486 1.938.357.785.533 1.729.533 2.83v.641h-4.458c0-1.095-.191-1.941-.58-2.534-.389-.591-1.034-.886-1.938-.886-.518 0-.949.072-1.293.228-.345.146-.62.351-.822.596-.207.249-.349.532-.423.854-.075.323-.112.657-.112 1.003 0 .708.15 1.309.453 1.79.3.484.945.934 1.938 1.342l3.587 1.555c.883.384 1.602.789 2.163 1.212.56.415 1.005.868 1.341 1.354.334.486.564 1.015.694 1.598.129.586.194 1.229.194 1.939 0 2.433-.705 4.204-2.115 5.314-1.411 1.109-3.377 1.663-5.896 1.663-2.63 0-4.507-.566-5.637-1.711-1.132-1.142-1.696-2.778-1.696-4.909v-.941h4.65v.679zM309.259 164.777c.15-.667.227-1.25.227-1.745h4.008c0 1.248-.224 2.45-.664 3.603-.441 1.151-1.005 2.225-1.695 3.213l3.036 4.265h-4.942l-1.293-1.776c-.58.688-1.362 1.215-2.34 1.582-.98.364-2.055.549-3.217.549-1.442 0-2.627-.211-3.552-.628-.926-.42-1.648-.968-2.165-1.632-.518-.668-.873-1.393-1.067-2.165-.191-.777-.289-1.49-.289-2.131 0-1.36.414-2.582 1.244-3.667.828-1.089 1.963-2.085 3.409-2.987l-.811-1.199c-.321-.471-.586-.891-.79-1.258-.207-.365-.36-.71-.47-1.034-.106-.326-.182-.634-.224-.937-.045-.305-.065-.614-.065-.938 0-.754.146-1.426.435-2.02.292-.591.696-1.097 1.212-1.52.518-.417 1.135-.743 1.859-.965.719-.226 1.512-.341 2.372-.341.992 0 1.848.123 2.569.372.721.245 1.319.593 1.795 1.034.47.444.821.951 1.049 1.534.224.583.338 1.207.338 1.874 0 1.164-.328 2.205-.986 3.134-.656.924-1.661 1.874-3.019 2.839l3.457 4.684c.234-.495.43-1.073.579-1.74zm-8.996 1.164c-.334.6-.499 1.255-.499 1.97 0 .341.068.698.21 1.064.139.369.342.693.613.983.268.29.608.533 1.016.713.409.185.872.273 1.391.273 1.228 0 2.229-.48 3.005-1.452l-3.876-5.495c-.909.696-1.525 1.337-1.86 1.944zm2.309-7.657l.551.774.84-.713c.517-.429.887-.857 1.114-1.273.226-.423.34-.833.34-1.246 0-.624-.189-1.105-.567-1.439-.377-.331-.866-.499-1.468-.499-.561 0-1.029.165-1.406.487-.376.323-.567.784-.567 1.387-.001.647.388 1.483 1.163 2.522zM331.58 151.046c1.188 0 2.182.199 2.99.596.808.403 1.46.926 1.955 1.566.494.648.851 1.39 1.066 2.218.216.828.323 1.673.323 2.531 0 1.184-.177 2.223-.533 3.105-.354.881-.851 1.604-1.484 2.165-.636.559-1.406.978-2.309 1.255-.907.283-1.909.422-3.007.422h-2.488v9.208h-4.648v-23.066h8.135zm-1.418 10.436c.924 0 1.674-.28 2.244-.842.569-.56.855-1.433.855-2.618 0-1.162-.247-2.045-.742-2.647-.497-.604-1.324-.904-2.488-.904h-1.94v7.012h2.071zM353.096 154.859h-8.238v5.426h7.756v3.809h-7.756v6.208h8.562v3.811h-13.211v-23.066h12.887v3.812zM364.338 151.046c1.939 0 3.445.49 4.523 1.469 1.076.982 1.615 2.472 1.615 4.479 0 1.547-.314 2.814-.939 3.791-.624.979-1.593 1.615-2.905 1.891v.067c1.162.168 2.013.55 2.552 1.131.536.578.872 1.517 1.001 2.808.041.432.074.9.097 1.405l.064 1.697c.042 1.226.107 2.164.194 2.812.128.643.408 1.087.84 1.322v.194h-5.04c-.236-.324-.387-.693-.451-1.116-.064-.42-.108-.855-.13-1.308l-.128-4.425c-.044-.907-.272-1.613-.681-2.131-.409-.521-1.099-.778-2.068-.778h-2.487v9.758h-4.65v-23.066h8.593zm-2.002 10.079c1.119 0 1.98-.262 2.582-.789.604-.528.908-1.419.908-2.669 0-2.131-1.079-3.196-3.232-3.196h-2.198v6.654h1.94zM382.963 155.164c-.396-.761-1.124-1.145-2.181-1.145-.58 0-1.061.156-1.436.466-.378.314-.675.818-.89 1.519-.217.701-.366 1.617-.451 2.745-.088 1.136-.13 2.516-.13 4.154 0 1.742.059 3.153.179 4.23.117 1.077.3 1.907.547 2.503.249.595.56.993.938 1.195.375.206.814.307 1.309.307.409 0 .793-.069 1.147-.209.356-.137.663-.42.92-.842.259-.42.465-1.013.615-1.776.151-.76.227-1.771.227-3.019h4.652c0 1.248-.096 2.431-.29 3.552-.196 1.125-.556 2.1-1.083 2.942-.53.84-1.272 1.497-2.228 1.97-.961.475-2.204.71-3.733.71-1.743 0-3.133-.283-4.167-.84-1.033-.562-1.826-1.365-2.373-2.424-.551-1.056-.904-2.312-1.065-3.779-.163-1.466-.243-3.078-.243-4.847 0-1.742.08-3.352.243-4.826.161-1.476.515-2.743 1.065-3.799.547-1.053 1.34-1.876 2.373-2.474 1.034-.591 2.424-.888 4.167-.888 1.659 0 2.966.273 3.928.811.956.535 1.673 1.222 2.147 2.052.472.828.768 1.723.888 2.678.118.963.178 1.86.178 2.702h-4.651c-.002-1.684-.201-2.904-.602-3.668zM395.416 167.134c0 .583.037 1.113.114 1.601.073.484.215.902.418 1.258.206.355.485.638.842.84.354.206.801.307 1.339.307.56 0 1.013-.101 1.357-.307.344-.202.62-.485.823-.84.206-.355.344-.773.42-1.258.077-.487.113-1.018.113-1.601v-16.088h4.653v16.088c0 1.464-.206 2.676-.617 3.636-.407.957-.956 1.713-1.645 2.274-.689.564-1.475.939-2.358 1.133-.884.194-1.799.29-2.747.29-.949 0-1.862-.089-2.745-.259-.883-.171-1.669-.523-2.357-1.049-.69-.527-1.239-1.276-1.648-2.248-.41-.965-.613-2.229-.613-3.777v-16.088h4.651v16.088zM412.182 167.585c0 .54.044 1.029.131 1.474.085.438.247.813.484 1.113.236.3.554.537.953.708.396.175.899.259 1.503.259.709 0 1.352-.232 1.921-.696.572-.46.855-1.178.855-2.145 0-.519-.068-.965-.21-1.342-.139-.377-.369-.715-.693-1.015-.324-.308-.75-.579-1.276-.831-.527-.244-1.18-.499-1.953-.756-1.034-.343-1.929-.722-2.682-1.127-.755-.413-1.385-.891-1.89-1.44-.507-.55-.88-1.183-1.115-1.902-.237-.723-.356-1.561-.356-2.508 0-2.28.637-3.983 1.907-5.102 1.271-1.118 3.014-1.685 5.233-1.685 1.034 0 1.985.117 2.857.343.871.227 1.626.591 2.261 1.097.638.509 1.132 1.151 1.488 1.938.355.785.532 1.729.532 2.83v.641h-4.458c0-1.095-.192-1.941-.581-2.534-.389-.591-1.034-.886-1.937-.886-.518 0-.948.072-1.293.228-.344.146-.62.351-.822.596-.207.249-.349.532-.423.854-.075.323-.111.657-.111 1.003 0 .708.149 1.309.452 1.79.301.484.945.934 1.938 1.342l3.587 1.555c.884.384 1.602.789 2.163 1.212.561.415 1.007.868 1.343 1.354.332.486.563 1.015.692 1.598.131.586.194 1.229.194 1.939 0 2.433-.704 4.204-2.115 5.314-1.41 1.109-3.376 1.663-5.896 1.663-2.629 0-4.507-.566-5.637-1.711-1.132-1.142-1.696-2.778-1.696-4.909v-.941h4.65v.679zM428.949 167.585c0 .54.042 1.029.129 1.474.085.438.246.813.485 1.113.236.3.554.537.953.708.397.175.898.259 1.502.259.71 0 1.351-.232 1.921-.696.572-.46.856-1.178.856-2.145 0-.519-.069-.965-.21-1.342-.139-.377-.371-.715-.694-1.015-.323-.308-.75-.579-1.275-.831-.528-.244-1.18-.499-1.955-.756-1.033-.343-1.928-.722-2.682-1.127-.755-.413-1.382-.891-1.889-1.44-.507-.55-.88-1.183-1.114-1.902-.238-.723-.357-1.561-.357-2.508 0-2.28.636-3.983 1.906-5.102 1.271-1.118 3.016-1.685 5.233-1.685 1.034 0 1.987.117 2.858.343.872.227 1.626.591 2.262 1.097.636.509 1.13 1.151 1.488 1.938.354.785.531 1.729.531 2.83v.641h-4.459c0-1.095-.191-1.941-.58-2.534-.388-.591-1.033-.886-1.939-.886-.517 0-.947.072-1.292.228-.344.146-.62.351-.823.596-.206.249-.347.532-.42.854-.078.323-.114.657-.114 1.003 0 .708.15 1.309.454 1.79.3.484.945.934 1.937 1.342l3.586 1.555c.885.384 1.603.789 2.165 1.212.56.415 1.007.868 1.341 1.354.333.486.564 1.015.693 1.598.13.586.195 1.229.195 1.939 0 2.433-.706 4.204-2.115 5.314-1.411 1.109-3.377 1.663-5.898 1.663-2.628 0-4.507-.566-5.636-1.711-1.132-1.142-1.698-2.778-1.698-4.909v-.941h4.653v.679zM442.192 151.046h4.653v23.066h-4.653v-23.066zM450.059 157.751c.161-1.476.516-2.743 1.066-3.799.548-1.053 1.341-1.876 2.374-2.474 1.033-.591 2.423-.888 4.167-.888 1.746 0 3.133.297 4.167.888 1.033.598 1.826 1.421 2.374 2.474.551 1.056.904 2.323 1.066 3.799.16 1.474.243 3.084.243 4.826 0 1.769-.083 3.381-.243 4.847-.162 1.467-.516 2.724-1.066 3.779-.548 1.059-1.341 1.862-2.374 2.424-1.034.557-2.421.84-4.167.84-1.744 0-3.134-.283-4.167-.84-1.033-.562-1.826-1.365-2.374-2.424-.551-1.056-.905-2.312-1.066-3.779-.161-1.466-.242-3.078-.242-4.847 0-1.742.081-3.352.242-4.826zm4.522 8.785c.074 1.087.226 1.971.451 2.649.226.677.55 1.176.972 1.485.418.316.974.468 1.662.468s1.244-.151 1.665-.468c.418-.31.742-.809.969-1.485.225-.679.377-1.562.45-2.649.077-1.087.113-2.409.113-3.959 0-1.548-.036-2.86-.113-3.938-.073-1.077-.225-1.96-.45-2.651-.227-.689-.551-1.188-.969-1.502-.421-.31-.977-.466-1.665-.466-.689 0-1.244.156-1.662.466-.422.314-.745.813-.972 1.502-.226.691-.377 1.574-.451 2.651-.077 1.078-.114 2.391-.114 3.938 0 1.55.037 2.872.114 3.959zM479.248 166.841h.065v-15.795h4.263v23.066h-5.297l-5.686-16.155h-.065v16.155h-4.263v-23.066h5.361l5.622 15.795z"/></g><g fill="#B3B3B3"><path d="M475.72 45.174c0-4.444 3.602-8.045 8.044-8.046v1.633c-1.772 0-3.369.717-4.532 1.879-1.162 1.162-1.878 2.76-1.878 4.533 0 1.773.716 3.37 1.878 4.533 1.163 1.162 2.761 1.877 4.532 1.879 1.773-.002 3.371-.717 4.534-1.879 1.162-1.163 1.878-2.76 1.878-4.533 0-1.773-.716-3.371-1.878-4.533-1.163-1.162-2.761-1.879-4.534-1.879v-1.633c4.444.001 8.046 3.602 8.046 8.046 0 4.443-3.602 8.044-8.046 8.045-4.443-.001-8.044-3.602-8.044-8.045z"/><path d="M483.321 44.517c.454 0 .78-.085.975-.254.199-.169.299-.448.299-.835 0-.383-.1-.658-.299-.823-.195-.166-.521-.249-.975-.249h-.914v2.161h.914m-.915 1.499v3.188h-2.172v-8.42h3.316c1.11 0 1.921.186 2.437.558.518.372.778.961.778 1.766 0 .556-.135 1.013-.406 1.37-.266.357-.671.621-1.212.79.297.067.561.222.795.462.236.237.476.598.716 1.084l1.179 2.391h-2.312l-1.026-2.092c-.207-.422-.418-.71-.633-.863-.21-.154-.491-.232-.845-.232h-.615"/></g></svg>