<svg xmlns="http://www.w3.org/2000/svg" width="1280" height="800" viewBox="-9.223 -288.133 1280 800" enable-background="new -9.223 -288.133 1280 800"><g><path fill="#B3B3B3" d="M364.305 36.426h46.37v10.3h-49.376c-19.105 0-32.274 2.867-39.498 8.586-10.233 5.082-18.104 15.535-23.614 31.344-1.145 4.512-2.006 10.232-2.576 17.179.572 8.588 2.001 16.168 4.295 22.753 5.723 13.67 14.882 23.541 27.477 29.619 7.154 3.443 18.607 5.163 34.35 5.163h99.95l-1.538 9.869h-110.437c-20.968 0-38.285-8.586-51.951-25.764-4.436-6.366-7.875-14.233-10.308-23.607l-2.574-15.46c0-10.805 2.433-22.254 7.298-34.347l5.585-9.017c7.583-11.165 18.604-18.893 33.059-23.188 5.294-2.289 16.457-3.43 33.488-3.43zm-74.601 115.467c-3.108-4.478-5.692-9.339-7.705-14.466-7.005-17.841-9.621-36.735-4.612-55.444 1.289-4.812 3.028-9.619 5.162-14.124 3.237-6.834 7.671-13.21 12.91-18.647 6.72-6.973 14.615-12.355 23.498-16.191 2.529-1.09 5.116-2.057 7.728-2.931 6.114-2.045 12.418-3.053 18.836-3.516 1.812-.131 3.628-.225 5.442-.309 4.44-.198 8.891-.247 13.335-.284v10.301-10.301h56.801v31.182l-59.802-.015c-8.066-.066-16.027 1.222-23.94 2.662-15.2 2.762-24.772 15.58-29.118 29.715-5.378 17.487-.739 38.508 13.535 50.58 3.043 2.573 6.566 4.893 10.125 6.695 4.468 2.264 14.87 4.205 29.828 4.118h112.141l-4.79 30.752h-119.958c-13.332 0-28.486-4.265-39.811-11.181-7.839-4.791-14.444-11.165-19.605-18.596zM463.291 53.49c10.447-12.448 22.897-18.676 37.352-18.676h.862v9.552h-.429c-13.813 0-24.403 5.646-31.774 16.954-3.72 5.134-5.582 13.691-5.582 25.642v84.289h-9.875v-136.878h9.447v19.117h-.001zm-19.888 128.176v-157.738h30.327v7.326c8.222-4.54 17.334-6.958 26.917-6.892h11.285v30.436h-10.856c-8.077 0-15.679 3.15-20.972 9.325-1.519 1.772-3.008 3.988-3.789 6.203-1.051 2.978-1.566 6.133-1.872 9.27-.238 2.446-.287 4.913-.287 7.368v94.705h-30.753v-.003zM528.75 34.846v57.54c0 19.456 2.574 32.766 7.728 39.927 5.51 10.442 14.669 18.175 27.48 23.181 8.085 2.859 15.098 4.298 21.036 4.298h3.438c11.515 0 23.4-4.011 35.637-12.023 13.739-11.739 20.608-27.342 20.608-46.799v-66.554h9.442v135.683h-9.442v-30.057c-8.018 12.734-20.182 21.754-36.495 27.045-5.871 2.007-11.451 3.012-16.748 3.012h-2.576c-23.257 0-41.004-7.307-53.242-21.898-7.01-6.297-12.161-16.607-15.457-30.918-1.143-7.152-1.716-12.592-1.716-16.312v-66.125h10.307zm-.666 120.596c-9.024-8.473-14.568-20.643-18.094-35.828l-.088-.37-.046-.322c-1.175-7.454-1.837-13.206-1.85-17.959v-76.562h20.746v10.445-10.445h10.43v67.986c0 10.765-.24 22.832 4.881 32.637 3.905 7.477 9.86 13.691 17.226 17.824 1.963 1.1 4.029 2.041 6.147 2.796 7.332 2.617 13.297 3.723 17.561 3.704 10.004-.05 20.12-2.286 28.768-7.467 8.219-4.924 14.358-12.984 17.553-21.964.861-2.413 1.497-4.949 1.932-7.474.643-3.744.983-7.677.983-11.478v-76.987h30.324v156.546h-30.324v-14.696c-6.706 4.721-14.331 8.448-22.687 11.131-6.76 2.305-13.488 3.564-20.116 3.564h-3.155c-24.806.001-45.95-8.291-60.191-25.081zM726.802 34.336h104.418l3.83 9.897h-110.396c-14.812 0-24.265 6.03-28.341 18.078-1.148 3.735-1.719 7.032-1.719 9.891 0 7.746 3.296 14.644 9.881 20.668 5.22 3.723 9.804 5.746 13.738 6.031h59.685c7.505.861 14.09 3.72 19.746 8.608 5.868 5.582 9.45 11.328 10.734 17.214l.861 5.585v9.036c-.861 7.041-4.149 13.92-9.879 20.661-4.644 4.442-10.66 7.609-18.031 9.469l-9.445.438-126.717.317-1.142-9.749 125.712-.038c15.745 0 25.474-6.462 29.197-19.361l.855-6.895c0-10.987-5.436-18.998-16.313-24.102l-7.725-1.718h-54.532c-7.581.278-14.879-1.881-21.898-6.457-9.729-8.251-14.596-18.292-14.596-30.136 0-11.043 4.439-20.943 13.312-29.693 6.649-5.167 16.242-7.744 28.765-7.744zm-94.505 115.713l137.439-.05c12.852-.718 15.947-3.202 18.971-11.296l.613-4.975c.61-3.864-1.986-8.631-4.879-10.939-3.235-2.584-7.376-3.639-11.435-3.929-2.327-.167-4.653-.09-6.985-.078-6.625.031-13.25-.007-19.875.007l-4.813.003c-9.859 0-20.114.746-29.869-.918-3.507-.599-7.117-1.687-10.364-3.147-12.866-5.773-22.411-17.95-25.596-31.651-.846-3.647-1.25-7.556-1.211-11.3.134-13.235 5.658-27.794 15.889-36.573 7.828-6.718 17.577-9.875 27.721-10.886.743-.075 8.901-.56 8.901-.429v9.907-9.907h111.566l11.914 30.771h-125.626c-3.824.198-7.977.472-11.497 2.144-5.438 2.583-8.134 9.685-8.134 15.399 0 6.532 5.062 14.275 11.578 15.925 2.352.595 4.832.348 7.229.334 4.232-.026 8.464-.003 12.695-.007 5.323-.004 10.648-.035 15.972-.001 5.013.031 10.035-.091 15.047.021 4.383.097 8.589-.084 12.969.425 7.044.811 13.669 3.372 19.544 7.361 1.66 1.125 3.253 2.358 4.763 3.679 6.365 5.561 11.62 13.538 13.601 21.786.617 2.574 1.112 5.335 1.256 7.98.169 3.118-.013 6.29-.006 9.415.015 6.66-3.022 13.752-6.333 19.399-3.265 5.566-7.583 10.58-13.038 14.086-5.264 3.381-11.657 6.601-17.957 7.263-3.13.328-6.334.332-9.478.451-3.523.134-7.083.046-10.614.048-1.837 0-3.673-.013-5.51-.006-2.464.009-4.926.029-7.389.032-2.562.003-5.125 0-7.689.009-2.958.01-5.915.026-8.874.031-3.018.006-6.036.007-9.052.016-3.237.013-6.471.028-9.706.031-3.218.006-6.438.009-9.657.021-3.281.01-6.563.024-9.844.031-3.177.004-6.352.012-9.528.021-3.093.012-6.187.022-9.283.028-2.887.006-5.777.013-8.664.022-2.671.009-5.344.016-8.016.021l-7.076.019c-2.013.007-4.026.012-6.04.016l-4.76.012-3.363.009-1.688.006h-.241c-.002-.003-3.578-30.637-3.578-30.637zM849.179 64.377h.429c6.155-10.946 16.025-19.25 29.623-24.904 7.943-3.716 17.822-5.577 29.622-5.577h1.719c12.17 0 25.33 4.58 39.503 13.739 10.16 8.589 16.745 17.321 19.753 26.194 3.432 5.862 5.151 16.027 5.151 30.477v64.835h-9.874v-66.551c0-26.614-12.312-44.941-36.927-54.955-5.228-1.785-12.236-2.934-21.037-3.438-14.669 0-28.27 5.013-40.794 15.029l-4.287 4.722c-8.589 10.092-12.883 24.552-12.883 43.37v61.824h-9.881v-185.059h9.881v80.294h.002zm105.482 115.191v-76.985c-.514-23.25-8.993-35.943-30.195-45.19-3.78-1.256-9.788-2.311-17.622-2.768-11.907.123-22.64 3.92-33.361 12.252l-3.481 3.839c-6.435 7.533-10.375 19.261-10.391 36.592v72.26h-30.75v-205.917h30.75v21.757c0 6.215.001 12.43 0 18.644 0 5.423-.001 10.845.001 16.266v5.282c-.001.458-.272 1.989-.01 2.383l-.004.32c.007-.508 3.617-2.364 4.14-2.692 7.571-4.73 15.948-8.172 24.657-10.131 2.69-.605 5.414-1.067 8.157-1.358 4.064-.43 8.21-.666 12.296-.666l1.719-.015c9.092 0 18.245 2.18 26.622 5.591 8.895 3.622 17.667 8.331 24.701 14.945 10.864 10.213 18.924 24.563 21.792 39.21 1.358 6.933 1.726 14.055 1.726 21.11v75.266h-30.749l.002.005z"/><path fill="#ccc" d="M570.746 195.579c2.371 0 4.287.385 5.742 1.161 1.453.782 2.589 1.882 3.394 3.322.81 1.441 1.352 3.172 1.638 5.197.285 2.028.429 4.287.429 6.79 0 2.975-.184 5.564-.547 7.756-.364 2.204-.989 4.02-1.875 5.441-.886 1.425-2.073 2.485-3.56 3.177-1.485.702-3.366 1.048-5.645 1.048h-10.777v-33.89l11.201-.002zm-1.332 28.859c1.203 0 2.169-.209 2.899-.613.726-.416 1.303-1.098 1.732-2.05.426-.942.711-2.192.854-3.753.143-1.544.213-3.475.213-5.787 0-1.929-.065-3.622-.19-5.073-.126-1.453-.388-2.67-.783-3.636-.397-.962-.981-1.691-1.756-2.182-.777-.486-1.813-.733-3.109-.733h-2.896v23.827h3.036zm29.667-28.859c2.846 0 5.06.72 6.643 2.158 1.584 1.443 2.376 3.632 2.376 6.581 0 2.273-.461 4.135-1.38 5.57-.915 1.438-2.341 2.373-4.268 2.778v.098c1.707.247 2.958.808 3.75 1.662.788.849 1.281 2.229 1.471 4.126.062.635.11 1.322.143 2.064l.094 2.493c.06 1.801.157 3.18.285 4.132.187.945.599 1.597 1.233 1.942v.285h-7.405c-.347-.476-.567-1.018-.663-1.64-.095-.617-.159-1.256-.19-1.922l-.19-6.502c-.065-1.333-.398-2.37-1.001-3.131-.601-.765-1.613-1.143-3.037-1.143h-3.656v14.337h-6.831v-33.89l12.626.002zm-2.944 14.808c1.646 0 2.912-.385 3.795-1.159.887-.776 1.331-2.085 1.331-3.921 0-3.131-1.582-4.696-4.746-4.696h-3.231v9.777h2.851zm24.068 8.829c0 .857.054 1.635.165 2.352.109.711.317 1.325.617 1.848.303.522.714.937 1.237 1.234.519.303 1.174.451 1.963.451.826 0 1.491-.148 1.995-.451.507-.297.911-.713 1.209-1.234.303-.522.508-1.136.619-1.848.113-.716.167-1.496.167-2.352v-23.638h6.834v23.638c0 2.151-.301 3.932-.902 5.342-.601 1.406-1.408 2.517-2.418 3.341-1.012.829-2.169 1.38-3.465 1.665-1.299.285-2.646.426-4.039.426s-2.733-.131-4.03-.381c-1.299-.251-2.454-.768-3.465-1.541-1.012-.774-1.822-1.875-2.421-3.303-.604-1.418-.902-3.275-.902-5.549v-23.638h6.837l-.001 23.638zm29.423-23.637l4.838 23.923h.094l4.888-23.923h10.113v33.89h-6.266v-27.057h-.094l-6.028 27.057h-5.316l-6.027-27.057h-.096v27.057h-6.266v-33.89h10.16zm30.329 24.3c0 .793.065 1.512.191 2.166.126.644.364 1.195.711 1.635.348.441.815.789 1.402 1.04.583.257 1.321.381 2.208.381 1.042 0 1.986-.341 2.822-1.023.838-.676 1.258-1.731 1.258-3.152 0-.763-.101-1.418-.31-1.972-.203-.554-.542-1.051-1.017-1.491-.478-.453-1.102-.851-1.876-1.221-.773-.359-1.732-.733-2.868-1.111-1.521-.504-2.834-1.061-3.941-1.656-1.111-.607-2.035-1.309-2.78-2.116-.743-.808-1.29-1.738-1.635-2.795-.353-1.062-.523-2.294-.523-3.685 0-3.35.934-5.852 2.797-7.496 1.87-1.643 4.433-2.476 7.693-2.476 1.515 0 2.916.172 4.198.504 1.28.334 2.388.868 3.322 1.612.936.748 1.663 1.691 2.183 2.847.525 1.153.783 2.54.783 4.158v.942h-6.55c0-1.609-.281-2.852-.852-3.723-.572-.868-1.519-1.302-2.847-1.302-.761 0-1.394.106-1.9.335-.507.215-.911.516-1.208.876-.304.366-.513.782-.622 1.255-.11.475-.165.965-.165 1.474 0 1.04.22 1.923.666 2.63.441.711 1.388 1.372 2.847 1.972l5.27 2.285c1.297.564 2.354 1.159 3.178 1.781.823.61 1.477 1.275 1.97 1.989.491.714.829 1.491 1.02 2.348.19.861.285 1.806.285 2.849 0 3.575-1.036 6.177-3.107 7.808-2.073 1.629-4.962 2.443-8.663 2.443-3.864 0-6.622-.832-8.282-2.514-1.663-1.678-2.492-4.082-2.492-7.213v-1.383h6.832l.002.999zm49.219-4.126c.22-.98.333-1.837.333-2.564h5.889c0 1.834-.329 3.6-.976 5.294-.648 1.691-1.477 3.269-2.49 4.721l4.461 6.266h-7.261l-1.9-2.609c-.852 1.011-2.001 1.785-3.438 2.324-1.44.535-3.019.807-4.727.807-2.119 0-3.86-.31-5.219-.923-1.361-.617-2.421-1.422-3.181-2.398-.761-.981-1.283-2.047-1.568-3.181-.281-1.142-.425-2.189-.425-3.131 0-1.998.608-3.794 1.828-5.388 1.217-1.6 2.884-3.063 5.009-4.389l-1.192-1.762c-.472-.692-.861-1.309-1.161-1.848-.304-.536-.529-1.043-.691-1.519-.156-.479-.267-.932-.329-1.377-.066-.448-.096-.902-.096-1.378 0-1.108.215-2.095.639-2.968.429-.868 1.023-1.612 1.781-2.233.761-.613 1.668-1.092 2.731-1.418 1.056-.332 2.221-.501 3.485-.501 1.458 0 2.715.181 3.775.547 1.059.36 1.938.871 2.637 1.519.691.652 1.206 1.397 1.541 2.254.329.857.497 1.773.497 2.753 0 1.71-.482 3.24-1.449 4.605-.964 1.358-2.44 2.753-4.436 4.171l5.079 6.882c.347-.727.635-1.576.854-2.556zm-13.217 1.71c-.491.882-.733 1.844-.733 2.894 0 .501.1 1.026.309 1.563.204.542.503 1.018.901 1.444.394.426.893.783 1.493 1.048.601.272 1.281.401 2.044.401 1.804 0 3.275-.705 4.415-2.133l-5.695-8.074c-1.337 1.024-2.242 1.966-2.734 2.857zm3.392-11.25l.81 1.137 1.234-1.048c.76-.63 1.303-1.259 1.637-1.87.332-.622.5-1.224.5-1.831 0-.917-.278-1.624-.833-2.114-.554-.486-1.272-.733-2.157-.733-.824 0-1.512.242-2.066.716-.552.475-.833 1.152-.833 2.038-.002.95.57 2.179 1.708 3.705zm42.621-10.634c1.745 0 3.206.292 4.393.876 1.187.592 2.145 1.361 2.872 2.301.726.952 1.25 2.042 1.566 3.259.317 1.217.475 2.458.475 3.719 0 1.74-.26 3.266-.783 4.562-.52 1.294-1.25 2.357-2.18 3.181-.934.821-2.066 1.437-3.393 1.844-1.333.416-2.805.62-4.418.62h-3.656v13.529h-6.829v-33.89h11.953zm-2.084 15.333c1.358 0 2.46-.411 3.297-1.237.836-.823 1.256-2.105 1.256-3.847 0-1.707-.363-3.005-1.09-3.889-.73-.887-1.945-1.328-3.656-1.328h-2.85v10.303h3.043v-.002zm33.697-9.731h-12.104v7.972h11.396v5.596h-11.396v9.121h12.58v5.599h-19.411v-33.89h18.935v5.602zm16.517-5.602c2.849 0 5.062.72 6.646 2.158 1.581 1.443 2.373 3.632 2.373 6.581 0 2.273-.461 4.135-1.38 5.57-.917 1.438-2.341 2.373-4.268 2.778v.098c1.707.247 2.958.808 3.75 1.662.788.849 1.281 2.229 1.471 4.126.06.635.109 1.322.143 2.064l.094 2.493c.062 1.801.157 3.18.285 4.132.188.945.599 1.597 1.234 1.942v.285h-7.405c-.347-.476-.569-1.018-.663-1.64-.094-.617-.159-1.256-.191-1.922l-.188-6.502c-.065-1.333-.4-2.37-1.001-3.131-.601-.765-1.615-1.143-3.038-1.143h-3.654v14.337h-6.832v-33.89l12.624.002zm-2.941 14.808c1.644 0 2.909-.385 3.794-1.159.887-.776 1.334-2.085 1.334-3.921 0-3.131-1.585-4.696-4.749-4.696h-3.229v9.777h2.85zm30.306-8.758c-.582-1.118-1.651-1.682-3.204-1.682-.852 0-1.559.229-2.11.685-.555.461-.992 1.202-1.308 2.232-.319 1.03-.538 2.376-.663 4.033-.129 1.669-.191 3.697-.191 6.103 0 2.559.087 4.633.263 6.215.172 1.582.441 2.802.804 3.678.366.874.823 1.459 1.378 1.756.551.303 1.196.451 1.923.451.601 0 1.165-.101 1.685-.307.523-.201.974-.617 1.352-1.237.381-.617.683-1.488.904-2.609.222-1.117.333-2.602.333-4.436h6.835c0 1.834-.141 3.572-.426 5.219-.288 1.653-.817 3.085-1.591 4.323-.779 1.234-1.869 2.199-3.274 2.894-1.412.698-3.238 1.043-5.485 1.043-2.561 0-4.603-.416-6.122-1.234-1.518-.826-2.683-2.006-3.487-3.562-.81-1.552-1.328-3.397-1.565-5.552-.24-2.154-.357-4.522-.357-7.122 0-2.559.118-4.925.357-7.091.237-2.169.757-4.03 1.565-5.582.804-1.547 1.969-2.756 3.487-3.635 1.519-.868 3.562-1.305 6.122-1.305 2.438 0 4.358.401 5.771 1.192 1.405.786 2.458 1.795 3.154 3.015.693 1.217 1.128 2.532 1.305 3.935.173 1.415.262 2.733.262 3.97h-6.834c-.001-2.475-.293-4.267-.883-5.39zm18.297 17.587c0 .857.054 1.635.167 2.352.107.711.316 1.325.614 1.848.303.522.713.937 1.237 1.234.52.303 1.177.451 1.967.451.823 0 1.488-.148 1.994-.451.505-.297.911-.713 1.209-1.234.303-.522.505-1.136.617-1.848.113-.716.166-1.496.166-2.352v-23.638h6.836v23.638c0 2.151-.303 3.932-.907 5.342-.598 1.406-1.405 2.517-2.417 3.341-1.012.829-2.167 1.38-3.465 1.665-1.299.285-2.643.426-4.036.426-1.394 0-2.736-.131-4.033-.381-1.297-.251-2.452-.768-3.463-1.541-1.014-.774-1.82-1.875-2.421-3.303-.602-1.418-.901-3.275-.901-5.549v-23.638h6.834v23.638zm24.634.663c0 .793.065 1.512.193 2.166.125.644.363 1.195.711 1.635.347.441.814.789 1.4 1.04.582.257 1.321.381 2.208.381 1.042 0 1.986-.341 2.823-1.023.84-.676 1.256-1.731 1.256-3.152 0-.763-.1-1.418-.309-1.972-.204-.554-.542-1.051-1.018-1.491-.476-.453-1.102-.851-1.875-1.221-.774-.359-1.734-.733-2.87-1.111-1.519-.504-2.834-1.061-3.941-1.656-1.109-.607-2.035-1.309-2.777-2.116-.745-.808-1.293-1.738-1.638-2.795-.348-1.062-.523-2.294-.523-3.685 0-3.35.936-5.852 2.802-7.496 1.867-1.643 4.428-2.476 7.689-2.476 1.519 0 2.917.172 4.198.504 1.28.334 2.389.868 3.322 1.612.937.748 1.663 1.691 2.186 2.847.522 1.153.782 2.54.782 4.158v.942h-6.55c0-1.609-.282-2.852-.854-3.723-.572-.868-1.519-1.302-2.846-1.302-.761 0-1.393.106-1.9.335-.505.215-.911.516-1.208.876-.304.366-.513.782-.622 1.255-.11.475-.163.965-.163 1.474 0 1.04.219 1.923.664 2.63.442.711 1.388 1.372 2.847 1.972l5.27 2.285c1.299.564 2.354 1.159 3.178 1.781.824.61 1.48 1.275 1.973 1.989.488.714.827 1.491 1.017 2.348.193.861.285 1.806.285 2.849 0 3.575-1.034 6.177-3.107 7.808-2.072 1.629-4.96 2.443-8.663 2.443-3.863 0-6.622-.832-8.282-2.514-1.663-1.678-2.492-4.082-2.492-7.213v-1.383h6.832v.999h.002zm24.635 0c0 .793.062 1.512.19 2.166.125.644.361 1.195.713 1.635.347.441.814.789 1.4 1.04.583.257 1.319.381 2.207.381 1.043 0 1.985-.341 2.822-1.023.84-.676 1.258-1.731 1.258-3.152 0-.763-.101-1.418-.309-1.972-.204-.554-.545-1.051-1.02-1.491-.475-.453-1.102-.851-1.873-1.221-.776-.359-1.734-.733-2.872-1.111-1.518-.504-2.833-1.061-3.941-1.656-1.109-.607-2.031-1.309-2.775-2.116-.745-.808-1.293-1.738-1.637-2.795-.35-1.062-.525-2.294-.525-3.685 0-3.35.934-5.852 2.8-7.496 1.867-1.643 4.431-2.476 7.689-2.476 1.519 0 2.919.172 4.199.504 1.281.334 2.389.868 3.323 1.612.934.748 1.66 1.691 2.186 2.847.52 1.153.78 2.54.78 4.158v.942h-6.552c0-1.609-.281-2.852-.852-3.723-.57-.868-1.518-1.302-2.849-1.302-.76 0-1.391.106-1.898.335-.505.215-.911.516-1.209.876-.303.366-.51.782-.617 1.255-.115.475-.168.965-.168 1.474 0 1.04.22 1.923.667 2.63.441.711 1.388 1.372 2.846 1.972l5.269 2.285c1.3.564 2.355 1.159 3.181 1.781.823.61 1.48 1.275 1.97 1.989.489.714.829 1.491 1.018 2.348.191.861.287 1.806.287 2.849 0 3.575-1.037 6.177-3.108 7.808-2.073 1.629-4.962 2.443-8.666 2.443-3.861 0-6.622-.832-8.281-2.514-1.663-1.678-2.495-4.082-2.495-7.213v-1.383h6.836v.998l.006.001zm19.458-24.3h6.836v33.89h-6.837l.001-33.89zm11.559 9.851c.237-2.169.758-4.03 1.566-5.582.805-1.547 1.97-2.756 3.488-3.635 1.518-.868 3.56-1.305 6.122-1.305 2.565 0 4.603.436 6.122 1.305 1.518.879 2.683 2.088 3.488 3.635.81 1.552 1.328 3.413 1.566 5.582.235 2.166.357 4.531.357 7.091 0 2.599-.122 4.968-.357 7.122-.238 2.155-.758 4.002-1.566 5.552-.805 1.556-1.97 2.736-3.488 3.562-1.519.818-3.557 1.234-6.122 1.234-2.562 0-4.605-.416-6.122-1.234-1.518-.826-2.683-2.006-3.488-3.562-.81-1.552-1.33-3.397-1.566-5.552-.237-2.154-.356-4.522-.356-7.122 0-2.56.119-4.925.356-7.091zm6.644 12.908c.109 1.597.332 2.896.663 3.892.332.995.808 1.728 1.428 2.182.614.464 1.431.688 2.442.688 1.011 0 1.828-.222 2.446-.688.614-.455 1.09-1.189 1.424-2.182.331-.998.554-2.295.661-3.892.113-1.597.166-3.539.166-5.817 0-2.274-.053-4.202-.166-5.786-.107-1.582-.331-2.88-.661-3.895-.333-1.012-.81-1.745-1.424-2.207-.619-.455-1.435-.685-2.446-.685-1.012 0-1.828.229-2.442.685-.62.461-1.095 1.195-1.428 2.207-.332 1.015-.554 2.313-.663 3.895-.113 1.584-.168 3.513-.168 5.786 0 2.277.055 4.219.168 5.817zm36.242.448h.096v-23.207h6.263v33.89h-7.783l-8.354-23.736h-.096v23.736h-6.263v-33.89h7.877l8.26 23.207z"/><g fill="#B3B3B3"><path d="M973.753 40.024c0-6.529 5.292-11.82 11.819-11.822v2.399c-2.604 0-4.95 1.053-6.659 2.761-1.707 1.707-2.759 4.055-2.759 6.66 0 2.605 1.052 4.951 2.759 6.66 1.709 1.707 4.057 2.758 6.659 2.761 2.605-.003 4.953-1.053 6.662-2.761 1.707-1.709 2.759-4.055 2.759-6.66 0-2.605-1.052-4.953-2.759-6.66-1.709-1.707-4.057-2.761-6.662-2.761v-2.399c6.529.001 11.822 5.292 11.822 11.822 0 6.528-5.292 11.819-11.822 11.82-6.528-.001-11.819-5.292-11.819-11.82zM984.921 39.059c.667 0 1.146-.125 1.433-.373.292-.248.439-.658.439-1.227 0-.563-.147-.967-.439-1.209-.286-.244-.766-.366-1.433-.366h-1.343v3.175h1.343m-1.345 2.202v4.684h-3.191v-12.371h4.872c1.631 0 2.822.273 3.581.82.761.547 1.143 1.412 1.143 2.595 0 .817-.198 1.488-.597 2.013-.391.525-.986.912-1.781 1.161.436.098.824.326 1.168.679.347.348.699.879 1.052 1.593l1.732 3.513h-3.397l-1.507-3.074c-.304-.62-.614-1.043-.93-1.268-.309-.226-.721-.341-1.242-.341h-.904"/></g></g></svg>