<svg xmlns="http://www.w3.org/2000/svg" viewBox="-9.223 -288.133 1280 800" enable-background="new -9.223 -288.133 1280 800"><g><path d="M313.706 20.338h33.745c23.957.216 48.547 2.674 67.487 19.176 17.633 15.163 27.646 40.595 27.646 64.019 0 22.97-10.225 47.507-27.646 62.683-19.368 16.953-42.232 18.959-66.836 18.959h-34.395v-164.837zm33.528 135.171c16.768 0 32.221-.673 46.147-11.158 12.414-9.807 19.385-24.76 19.385-40.818 0-17.172-7.402-33.9-21.334-43.724-13.501-9.365-30.044-9.804-45.722-9.804h-2.183v105.503h3.707zM541.339 20.338h-25.903l-106.23 164.837h34.606l25.032-42.601h42.671v42.601h29.824v-164.837zm-29.823 92.573h-25.036l24.596-42.388h.44v42.388zM671.422 185.175h-26.568v-16.731h-.431c-8.501 13.611-24.388 20.751-40.06 20.751-17.636 0-32.868-8.266-43.539-20.751-10.233-12.05-16.329-28.105-16.329-44.607 0-16.514 5.442-32.792 16.329-45.286 10.887-12.491 27.866-20.963 44.418-20.963 13.929 0 28.083 5.794 37.209 16.723v-53.973h28.971v164.837zm-63.141-98.587c-18.506 0-34.832 16.946-34.832 35.904 0 20.52 15.025 37.701 35.275 37.701 20.027 0 35.7-16.731 35.7-37.029-.001-20.522-16.327-36.576-36.143-36.576zM801.501 185.175h-26.556v-16.731h-.44c-8.481 13.611-24.382 20.751-40.054 20.751-17.636 0-32.875-8.266-43.542-20.751-10.228-12.05-16.329-28.105-16.329-44.607 0-16.514 5.445-32.792 16.329-45.286 10.884-12.491 27.857-20.963 44.403-20.963 13.943 0 28.086 5.794 37.241 16.723v-53.973h28.948v164.837zm-63.135-98.587c-18.497 0-34.832 16.946-34.832 35.904 0 20.52 15.016 37.701 35.272 37.701 20.027 0 35.699-16.731 35.699-37.029 0-20.522-16.329-36.576-36.139-36.576zM932.02 185.175h-26.55v-16.731h-.44c-8.709 12.707-25.689 20.751-40.927 20.751-18.72 0-33.959-8.044-44.409-20.751-9.583-11.827-15.028-27.883-15.028-45.052 0-17.184 4.349-31.454 15.461-44.394 12.191-14.501 27.213-21.41 44.842-21.41 16.557 0 30.917 7.579 40.5 21.41v-17.398h26.55v123.575zm-62.256-98.587c-21.34-.227-36.133 16.273-36.133 37.922 0 20.289 16.094 35.903 35.699 35.683 20.895.219 35.266-15.842 35.266-37.029 0-20.744-14.371-36.803-34.832-36.576zM944.656 61.6h26.357v15.165h.434c6.307-10.482 13.926-15.165 25.894-15.165h2.18v28.774c-5.867 0-12.841 2.013-17.63 5.803-8.27 6.909-8.493 16.052-8.27 26.315v62.683h-28.965v-123.575zM1170.927 123.603c0 36.59-28.959 65.592-64.43 65.592-34.832 0-63.792-29.666-63.792-65.592 0-37.015 28.959-66.014 65.092-66.014 35.483 0 63.13 30.106 63.13 66.014zm-89.252-25.645c-6.752 6.909-10.011 15.839-10.011 25.645 0 19.859 15.016 36.59 34.832 36.59 20.461 0 35.471-15.842 35.471-36.59 0-20.292-15.444-37.015-35.471-37.015-8.926 0-18.737 4.674-24.821 11.37zM1009.005 61.6h28.959v123.575h-28.959zM456.97 12.519h28.951l-15.06 34.798h-27.972l14.081-34.798zM1024.296 12.519h28.948l-15.057 34.798h-27.975l14.084-34.798z"/><path fill="#D9272E" d="M138.828 157.515c24.367-5.987 39.386-31.086 33.543-56.059-4.897-20.907-23.142-35.655-44.128-35.655h-37.616v-6.55h37.616c21.615 0 40.96 13.77 48.509 34.524 9.975 27.447-3.651 57.987-30.442 68.211 29.824-7.708 47.899-38.725 40.374-69.278-6.242-25.345-28.49-43.107-53.995-43.107h-42.062v-6.546h42.062c26.137 0 49.473 16.773 58.373 41.956 11.669 33.032-5.002 69.508-37.244 81.465 35.266-9.488 56.354-46.463 47.105-82.596-7.619-29.737-33.85-50.471-63.856-50.471h-46.44v-6.552h46.504c30.621 0 57.945 19.706 68.272 49.248 13.507 38.63-6.104 81.177-43.814 95.014 40.737-11.365 64.77-54.42 53.681-96.156-9.061-34.096-39.275-57.754-73.767-57.754h-50.876v-6.552h50.877c35.137 0 66.452 22.718 78.116 56.679 15.192 44.205-7.473 92.649-50.613 108.212 46.205-12.842 73.494-61.632 60.963-108.978-10.248-38.699-44.532-65.562-83.663-65.562h-55.68v-6.549h55.68c51.392 0 93.058 42.69 93.058 95.351 0 52.66-41.666 95.351-93.058 95.351h-55.68v-31.326h33.214c19.362 0 35.052-16.076 35.052-35.917 0-19.835-15.69-35.915-35.052-35.915h-33.214v-6.55h33.214c17.108 0 32.461 10.77 38.648 27.115 8.273 21.867-2.318 46.47-23.661 54.947z"/></g></svg>