<?xml-stylesheet type="text/css" href="../../styles/main.min.css" ?><svg xmlns="http://www.w3.org/2000/svg" viewBox="-9.223 -288.133 1280 800" enable-background="new -9.223 -288.133 1280 800"><g><g fill-rule="evenodd" clip-rule="evenodd"><path stroke="#000" stroke-width="11.26" stroke-linecap="round" stroke-linejoin="round" stroke-miterlimit="10" d="M165.527 125.391c-7.636 7.842-17.001 7.653-26.348 7.447h-4.026v-50.747h12.803c7.447 0 13.563 2.542 17.952 7.828 4.596 5.303 6.876 11.177 6.876 17.641.001 6.272-2.09 12.542-7.257 17.831zm48.569-18.022c0-18.415-6.635-34.019-19.679-47.047-13.062-13.009-28.508-19.61-46.46-19.61l-55.116-.017v134.074l54.494-.535h1.953c17.968 0 32.067-6.445 45.129-19.523 13.044-13.079 19.679-28.922 19.679-47.342zM298.152 97.814c0 8.535-6.772 15.723-14.806 15.723h-22.825v-31.446h22.825c8.034 0 14.806 6.982 14.806 15.723zm45.336 33.59c-6.375 3.697-13.39 5.632-20.404 6.219 10.125-10.298 16.362-24.275 16.362-39.809 0-15.723-5.65-29.322-16.76-40.394-11.092-11.077-24.534-16.709-39.34-16.709h-64.136v133.021h41.311v-19.022h.363c10.229 10.298 22.651 17.466 35.799 20.406l.191-.122c7.498 1.381 15.291 2.004 23.084 2.004 3.317 0 6.823 0 10.14-.379 11.663-.882 23.188-3.457 33.934-9.677l-20.544-35.538zM452.735 43.668h-41.31v66c0 8.585-5.961 12.594-11.94 12.594-6.323 0-12.664-4.198-12.664-12.594v-66h-41.294v66c0 14.719 5.442 27.488 16.155 38.114 10.73 10.643 23.585 15.86 37.632 15.86 14.046 0 26.849-5.217 37.527-15.86 10.661-10.626 15.895-23.395 15.895-38.114v-66zM572.696 37.291l-31.413 58.313-31.582-58.313-72.965 132.417h44.697l27.904-50.691 31.945 59.383 15.898-29.874c5.355-9.83 10.71-19.679 15.877-29.509l28.078 50.691h44.714l-73.153-132.417z"/><path fill="#fff" d="M165.519 123.864c-7.636 7.845-16.984 7.655-26.348 7.449h-4.009v-50.747h12.786c7.463 0 13.563 2.542 17.968 7.826 4.578 5.306 6.876 11.178 6.876 17.644.001 6.269-2.106 12.541-7.273 17.828zm48.568-18.022c0-18.416-6.618-34.017-19.679-47.045-13.045-13.009-28.491-19.61-46.46-19.61l-55.099-.017v134.074l54.477-.537h1.97c17.952 0 32.067-6.442 45.112-19.523 13.061-13.077 19.679-28.922 19.679-47.342zM298.143 96.29c0 8.535-6.755 15.723-14.789 15.723h-22.841v-31.447h22.841c8.034 0 14.789 6.982 14.789 15.724zm45.337 33.587c-6.375 3.697-13.39 5.634-20.404 6.222 10.142-10.3 16.362-24.278 16.362-39.809 0-15.723-5.65-29.322-16.742-40.394-11.11-11.077-24.552-16.709-39.341-16.709h-64.153v133.021h41.311v-19.025h.363c10.228 10.3 22.651 17.468 35.799 20.408l.19-.122c7.515 1.381 15.307 2.004 23.1 2.004 3.299 0 6.807 0 10.124-.379 11.663-.885 23.187-3.457 33.952-9.677l-20.561-35.54zM452.728 42.141h-41.294v66.002c0 8.585-5.978 12.594-11.957 12.594-6.324 0-12.664-4.198-12.664-12.594v-66.002h-41.294v66.002c0 14.719 5.459 27.488 16.171 38.114 10.714 10.643 23.567 15.86 37.615 15.86 14.063 0 26.866-5.217 37.525-15.86 10.662-10.626 15.897-23.395 15.897-38.114v-66.002zM572.686 35.766l-31.392 58.313-31.584-58.313-72.963 132.417h44.697l27.887-50.691 31.964 59.383 15.877-29.876c5.356-9.83 10.714-19.677 15.897-29.507l28.075 50.691h44.698l-73.156-132.417z"/></g><g fill-rule="evenodd" clip-rule="evenodd"><path stroke="#000" stroke-width="15.903" stroke-linecap="round" stroke-linejoin="round" stroke-miterlimit="10" d="M927.116 48.132h-40.626v65.003c0 8.468-5.881 12.398-11.736 12.398-6.224 0-12.47-4.124-12.47-12.398v-65.003h-40.626v65.003c0 14.496 5.366 27.088 15.908 37.555 10.542 10.468 23.18 15.62 37.016 15.62 13.812 0 26.404-5.152 36.896-15.62 10.489-10.468 15.639-23.059 15.639-37.555v-65.003zM1012.596 101.473c0 8.42-6.639 15.493-14.544 15.493h-22.47v-30.991h22.47c7.906 0 14.544 6.884 14.544 15.498zm44.605 33.086c-6.272 3.637-13.177 5.541-20.082 6.128 9.976-10.151 16.109-23.913 16.109-39.214 0-15.498-5.569-28.891-16.5-39.797-10.904-10.911-24.131-16.45-38.675-16.45h-63.101v131.014h40.632v-18.742h.359c10.058 10.151 22.281 17.229 35.211 20.106l.173-.122c7.396 1.367 15.059 1.978 22.743 1.978 3.246 0 6.684 0 9.955-.369 11.472-.877 22.791-3.414 33.381-9.54l-20.205-34.992zM1128.091 48.816v64.319c0 8.468-5.884 12.398-11.765 12.398-6.222 0-12.448-4.124-12.448-12.398v-64.319h-40.622v64.319c0 14.496 5.366 27.088 15.905 37.555 10.544 10.468 23.182 15.62 36.994 15.62 13.834 0 26.428-5.152 36.922-15.62 10.489-10.468 15.635-23.059 15.635-37.555l-.024-64.319h-40.597zM814.383 74.702c-5.661-9.854-13.616-17.567-23.549-23.302-9.933-5.733-20.59-8.588-32.113-8.588-17.811 0-33.113 6.27-45.556 18.641-12.467 12.347-18.79 27.5-18.79 45.117 0 17.596 6.322 32.796 18.79 45.218 12.443 12.422 27.745 18.715 45.556 18.715h46.731v-65.93h-38.287v27.766h-8.444c-7.147 0-13.225-2.537-18.348-7.612-5.148-5.097-7.708-11.077-7.708-18.157 0-7.073 2.561-13.249 7.708-18.154 5.124-4.901 11.201-7.442 18.348-7.442 9.542 0 17.84 4.905 22.352 12.884l33.31-19.156z"/><path fill="#C2122D" d="M926.301 45.979h-40.626v65.003c0 8.468-5.884 12.398-11.765 12.398-6.222 0-12.446-4.124-12.446-12.398v-65.003h-40.626v65.003c0 14.493 5.366 27.085 15.908 37.555 10.542 10.468 23.18 15.615 36.994 15.615 13.836 0 26.423-5.147 36.92-15.615 10.492-10.47 15.642-23.062 15.642-37.555v-65.003zM1011.755 99.32c0 8.418-6.639 15.493-14.541 15.493h-22.451v-30.991h22.451c7.902 0 14.541 6.881 14.541 15.498zm44.604 33.086c-6.267 3.637-13.172 5.541-20.055 6.126 9.955-10.151 16.078-23.913 16.078-39.212 0-15.498-5.536-28.893-16.469-39.799-10.933-10.909-24.158-16.447-38.699-16.447h-63.082v131.012h40.631v-18.742h.34c10.077 10.154 22.278 17.229 35.237 20.108l.168-.125c7.394 1.369 15.057 1.976 22.717 1.976 3.273 0 6.711 0 9.962-.365 11.467-.875 22.813-3.414 33.403-9.542l-20.231-34.99zM1127.247 46.66v64.322c0 8.468-5.883 12.398-11.741 12.398-6.243 0-12.467-4.124-12.467-12.398v-64.322h-40.629v64.322c0 14.493 5.37 27.085 15.908 37.555 10.544 10.468 23.182 15.615 36.994 15.615 13.839 0 26.426-5.147 36.922-15.615 10.489-10.47 15.639-23.062 15.639-37.555v-64.322h-40.626zM813.539 72.549c-5.637-9.856-13.616-17.569-23.544-23.304-9.933-5.73-20.573-8.588-32.087-8.588-17.816 0-33.115 6.272-45.584 18.643-12.47 12.347-18.79 27.5-18.79 45.117 0 17.596 6.32 32.796 18.79 45.218 12.47 12.419 27.768 18.715 45.584 18.715h46.726v-65.933h-38.287v27.769h-8.44c-7.178 0-13.23-2.537-18.377-7.615-5.124-5.097-7.715-11.077-7.715-18.154 0-7.073 2.592-13.249 7.715-18.154 5.148-4.901 11.199-7.442 18.377-7.442 9.516 0 17.833 4.905 22.348 12.884l33.284-19.156z"/></g><g fill="#231F20"><path d="M1159.662 180.106v.937h-2.652v6.924h-1.074v-6.924h-2.649v-.937h6.375zM1160.614 180.106h1.525l2.261 6.646 2.244-6.646h1.515v7.861h-1.017v-4.639l.01-.796c.007-.372.01-.77.01-1.196l-2.244 6.631h-1.055l-2.266-6.631v.242l.017.88.017.87v4.639h-1.016v-7.861z"/></g></g></svg>
