<svg xmlns="http://www.w3.org/2000/svg" viewBox="-9.223 -288.133 1280 800" enable-background="new -9.223 -288.133 1280 800"><g><g fill-rule="evenodd" clip-rule="evenodd"><path stroke="#000" stroke-width="11.26" stroke-linecap="round" stroke-linejoin="round" stroke-miterlimit="10" d="M126.964 126.512c-8.269 8.492-18.41 8.287-28.532 8.064h-4.359v-54.953h13.864c8.064 0 14.687 2.752 19.44 8.477 4.977 5.743 7.446 12.104 7.446 19.104 0 6.791-2.264 13.581-7.859 19.308zm52.594-19.516c0-19.942-7.185-36.839-21.31-50.947-14.145-14.087-30.871-21.235-50.311-21.235l-59.685-.018v145.187l59.011-.579h2.115c19.458 0 34.725-6.979 48.87-21.142 14.125-14.163 21.31-31.319 21.31-51.266zM270.581 96.65c0 9.243-7.333 17.026-16.033 17.026h-24.717v-34.053h24.717c8.7 0 16.033 7.561 16.033 17.027zm49.094 36.374c-6.903 4.003-14.5 6.099-22.096 6.735 10.964-11.151 17.718-26.287 17.718-43.109 0-17.026-6.118-31.752-18.149-43.742-12.012-11.995-26.568-18.094-42.601-18.094h-69.452v144.047h44.735v-20.599h.393c11.077 11.151 24.528 18.914 38.766 22.097l.206-.132c8.12 1.495 16.558 2.17 24.997 2.17 3.592 0 7.389 0 10.981-.41 12.63-.956 25.11-3.744 36.747-10.479l-22.245-38.484zM437.978 38.015h-44.734v71.471c0 9.297-6.456 13.638-12.93 13.638-6.847 0-13.714-4.546-13.714-13.638v-71.471h-44.717v71.471c0 15.939 5.894 29.766 17.494 41.273 11.62 11.525 25.54 17.174 40.751 17.174 15.21 0 29.075-5.65 40.637-17.174 11.544-11.507 17.212-25.335 17.212-41.273v-71.471zM567.881 31.109l-34.016 63.147-34.2-63.147-79.013 143.393h48.402l30.217-54.893 34.593 64.305 17.216-32.35c5.799-10.645 11.598-21.31 17.193-31.955l30.405 54.893h48.421l-79.218-143.393z"/><path fill="#fff" d="M126.955 124.858c-8.269 8.495-18.392 8.29-28.532 8.067h-4.341v-54.953h13.846c8.082 0 14.687 2.752 19.458 8.474 4.958 5.746 7.446 12.104 7.446 19.106 0 6.79-2.282 13.582-7.877 19.306zm52.594-19.516c0-19.942-7.167-36.836-21.31-50.944-14.126-14.088-30.853-21.235-50.311-21.235l-59.667-.018v145.187l58.993-.582h2.133c19.44 0 34.725-6.976 48.852-21.141 14.143-14.161 21.31-31.32 21.31-51.267zM270.572 94.998c0 9.243-7.315 17.026-16.015 17.026h-24.735v-34.052h24.735c8.7 0 16.015 7.56 16.015 17.026zm49.094 36.372c-6.903 4.004-14.5 6.101-22.096 6.737 10.982-11.154 17.718-26.29 17.718-43.109 0-17.026-6.118-31.752-18.13-43.742-12.031-11.995-26.587-18.094-42.602-18.094h-69.47v144.048h44.735v-20.601h.393c11.076 11.154 24.528 18.916 38.767 22.1l.206-.132c8.138 1.495 16.576 2.17 25.015 2.17 3.572 0 7.371 0 10.963-.41 12.63-.958 25.109-3.744 36.766-10.479l-22.265-38.488zM437.97 36.362h-44.717v71.473c0 9.297-6.474 13.638-12.948 13.638-6.848 0-13.714-4.546-13.714-13.638v-71.473h-44.717v71.473c0 15.939 5.912 29.766 17.512 41.273 11.602 11.525 25.52 17.174 40.733 17.174 15.228 0 29.093-5.65 40.636-17.174 11.545-11.507 17.215-25.335 17.215-41.273v-71.473zM567.871 29.458l-33.994 63.147-34.202-63.147-79.011 143.393h48.401l30.199-54.893 34.614 64.305 17.193-32.352c5.8-10.645 11.602-21.308 17.215-31.952l30.402 54.893h48.403l-79.22-143.394z"/></g><g fill-rule="evenodd" clip-rule="evenodd"><path stroke="#000" stroke-width="15.903" stroke-linecap="round" stroke-linejoin="round" stroke-miterlimit="10" d="M951.679 42.85h-43.994v70.391c0 9.17-6.369 13.425-12.709 13.425-6.74 0-13.503-4.466-13.503-13.425v-70.391h-43.994v70.391c0 15.697 5.81 29.333 17.226 40.668s25.101 16.915 40.084 16.915c14.957 0 28.593-5.579 39.954-16.915 11.359-11.335 16.936-24.971 16.936-40.668v-70.391zM1044.245 100.612c0 9.118-7.189 16.777-15.749 16.777h-24.332v-33.56h24.332c8.56 0 15.749 7.454 15.749 16.783zm48.301 35.828c-6.792 3.939-14.269 6-21.747 6.636 10.803-10.992 17.444-25.895 17.444-42.465 0-16.782-6.031-31.285-17.868-43.096-11.808-11.816-26.132-17.813-41.88-17.813h-68.332v141.874h43.999v-20.295h.389c10.891 10.992 24.127 18.657 38.129 21.772l.187-.132c8.01 1.48 16.307 2.142 24.628 2.142 3.516 0 7.239 0 10.78-.4 12.423-.95 24.68-3.697 36.148-10.33l-21.877-37.893zM1169.313 43.589v69.651c0 9.17-6.371 13.425-12.74 13.425-6.737 0-13.48-4.466-13.48-13.425v-69.651h-43.989v69.651c0 15.697 5.81 29.333 17.224 40.668 11.418 11.335 25.104 16.915 40.061 16.915 14.98 0 28.619-5.579 39.983-16.915 11.359-11.335 16.931-24.971 16.931-40.668l-.026-69.651h-43.964zM829.602 71.622c-6.13-10.671-14.744-19.023-25.501-25.233-10.756-6.208-22.297-9.3-34.775-9.3-19.288 0-35.857 6.789-49.332 20.186-13.501 13.371-20.347 29.779-20.347 48.857 0 19.054 6.846 35.515 20.347 48.966 13.475 13.451 30.044 20.267 49.332 20.267h50.604v-71.395h-41.46v30.067h-9.144c-7.739 0-14.321-2.747-19.869-8.243-5.574-5.52-8.347-11.995-8.347-19.662 0-7.659 2.773-14.347 8.347-19.659 5.548-5.307 12.13-8.059 19.869-8.059 10.333 0 19.319 5.312 24.205 13.952l36.071-20.744z"/><path class="override" fill="#C2122D" d="M950.797 40.518h-43.994v70.391c0 9.17-6.371 13.425-12.74 13.425-6.737 0-13.477-4.466-13.477-13.425v-70.391h-43.994v70.391c0 15.694 5.81 29.33 17.226 40.668 11.416 11.335 25.101 16.909 40.06 16.909 14.983 0 28.614-5.574 39.98-16.909 11.362-11.338 16.938-24.974 16.938-40.668v-70.391zM1043.333 98.28c0 9.116-7.189 16.777-15.746 16.777h-24.311v-33.56h24.311c8.557.001 15.746 7.452 15.746 16.783zm48.302 35.829c-6.787 3.938-14.264 6-21.718 6.633 10.78-10.993 17.411-25.895 17.411-42.462 0-16.782-5.995-31.288-17.834-43.098-11.839-11.813-26.16-17.81-41.907-17.81h-68.311v141.871h43.999v-20.295h.368c10.912 10.995 24.125 18.657 38.158 21.775l.182-.135c8.007 1.482 16.305 2.139 24.6 2.139 3.544 0 7.267 0 10.787-.395 12.418-.948 24.704-3.697 36.172-10.333l-21.907-37.89zM1168.399 41.255v69.653c0 9.17-6.371 13.425-12.714 13.425-6.761 0-13.501-4.466-13.501-13.425v-69.653h-43.997v69.653c0 15.694 5.816 29.33 17.226 40.668 11.418 11.335 25.103 16.909 40.06 16.909 14.986 0 28.616-5.574 39.983-16.909 11.359-11.338 16.935-24.974 16.935-40.668v-69.653h-43.992zM828.688 69.29c-6.104-10.673-14.744-19.025-25.495-25.236-10.756-6.205-22.279-9.3-34.746-9.3-19.293 0-35.86 6.792-49.363 20.189-13.503 13.371-20.347 29.779-20.347 48.857 0 19.054 6.844 35.515 20.347 48.966 13.503 13.448 30.07 20.266 49.363 20.266h50.599v-71.398h-41.46v30.07h-9.139c-7.773 0-14.326-2.747-19.9-8.246-5.548-5.52-8.355-11.995-8.355-19.659 0-7.659 2.807-14.347 8.355-19.659 5.574-5.307 12.127-8.059 19.9-8.059 10.305 0 19.311 5.312 24.2 13.952l36.041-20.743z"/></g><g fill="#231F20"><path d="M1203.501 185.762v1.015h-2.872v7.498h-1.163v-7.498h-2.869v-1.015h6.904zM1204.531 185.762h1.651l2.448 7.197 2.43-7.197h1.641v8.513h-1.101v-5.024l.01-.862c.008-.403.011-.833.011-1.296l-2.43 7.181h-1.142l-2.453-7.181v.262c0 .208.005.527.018.953.013.426.018.74.018.942v5.024h-1.101v-8.512z"/></g></g></svg>
