<svg xmlns="http://www.w3.org/2000/svg" viewBox="-9.223 -288.133 1280 800" enable-background="new -9.223 -288.133 1280 800"><path d="M1018.075 28.868c-20.098-20.664-49.305-38.828-86.795-53.994-75.282-30.456-182.004-47.223-300.503-47.223-118.5 0-225.217 16.766-300.499 47.223-37.489 15.166-66.696 33.33-86.797 53.995-20.916 21.505-31.521 45.252-31.521 70.56 0 25.316 10.605 49.062 31.521 70.56 20.1 20.667 49.308 38.832 86.797 53.997 75.282 30.454 181.999 47.219 300.499 47.219 118.5 0 225.222-16.765 300.503-47.219 37.489-15.165 66.696-33.33 86.794-53.997 20.916-21.498 31.518-45.244 31.518-70.56.001-25.309-10.601-49.056-31.517-70.561zm-387.296 219.679c-230.595 0-373.152-66.763-373.152-149.109 0-82.354 142.556-149.119 373.152-149.119 230.593 0 373.145 66.764 373.145 149.119 0 82.346-142.552 149.109-373.145 149.109zm303.374-216.056v1.348h-2.87v9.177h-1.41v-9.177h-2.868v-1.348h7.148zm10.321 10.525l-.389-6.359c-.038-.818 0-1.816-.014-2.853h-.066c-.249.989-.524 2.091-.808 3.017l-1.941 6.064h-1.1l-1.899-6.228c-.237-.827-.476-1.864-.692-2.853h-.069c-.026 1.007 0 1.917-.038 2.853l-.365 6.359h-1.36l.735-10.525h1.863l1.825 5.704c.242.796.419 1.689.666 2.638h.052c.223-.949.426-1.888.645-2.66l1.842-5.682h1.849l.706 10.525h-1.442zm-240.966 118.825l-11.6-37.94v-88.648h60.801l25.263 83.335.015-83.335h37.204v126.588h-59.671l-26.391-85.872-.005 85.872zm220.055-124.408v32.445c-9.699-3.789-21.191-6.323-33.478-6.323-6.801 0-18.617.173-18.617 8.322 0 16.505 59.382.91 59.382 49.705 0 33.907-29.935 42.427-55.003 42.427-16.664 0-30.419-1.817-46.601-5.987v-32.811c11.653 5.426 25.887 8.326 38.828 8.326 10.197 0 19.423-2.344 19.423-8.688 0-17.06-59.377-1.642-59.377-50.802 0-34.795 32.353-40.975 58.085-40.975 12.13.001 25.561 1.642 37.358 4.361"/><path d="M335.19 161.841v-126.47h89.399l9.932 30.375h-56.95v17.925h53.067v30.463h-53.067v17.225h56.625v30.482zm145.18 0l-40.284-126.588h46.428l21.048 75.807 21.502-75.807h44.325l-41.718 126.588z"/><path fill-rule="evenodd" clip-rule="evenodd" d="M618.015 62.466l-12.454 41.524h25.052l-12.598-41.524zm-68.597 99.375l39.63-126.589h59.697l40.284 126.589h-45.473l-7.438-27.388h-36.555l-6.95 27.388h-43.195z"/><path d="M959.677 114.608c-1.697-3.319-4.873-3.319-6.774-3.319h-8.429v2.742h8.46c2.47 0 4.113.694 4.873 2.052 1.124 1.99 1.211 6.401.183 8.436-1.176 2.35-3.465 2.35-5.141 2.35h-8.374v2.706h8.609c2.181 0 4.909 0 6.722-3.427 1.35-2.562 1.281-8.831-.129-11.54zm-12.97-8.313c.574.416 1.427.667 2.313.667.569 0 1.076-.118 1.467-.308 2.174-1.132 2.517-4.268 2.683-5.763l.462-4.939c.351-2.772 1.086-3.566 1.493-3.806.472-.3 1.083-.258 1.621.072.704.435 1.588 1.614 1.742 4.749.156 2.437.019 5.979-2.925 8.447l-.261.206 1.624 2.15.237-.241c3.75-3.826 3.802-8.392 3.508-11.514-.074-.805-.574-4.919-3.018-6.344-1.05-.611-2.66-.611-3.757-.009-2.157 1.217-2.579 4.828-2.745 6.204l-.422 4.72c-.064.709-.299 2.87-1.256 3.426-.346.21-1.145.21-1.522 0-.894-.475-1.403-2.133-1.579-3.4-.505-3.574.332-6.54 2.477-8.818l.211-.215-1.472-1.981-.239.21c-2.726 2.454-3.183 5.661-3.281 8.49-.021 1.406.079 6.125 2.639 7.997zm13.691-21.845l-3.947-2.288v-10.617l3.947-2.251v-3.093l-15.749 9.085-.175.094v2.962l15.924 9.153v-3.045zm-6.187-11.586v8.053l-7.26-4.098 7.26-3.955z"/></svg>