<svg xmlns="http://www.w3.org/2000/svg" viewBox="-9.223 -288.133 1280 800" enable-background="new -9.223 -288.133 1280 800"><g><path fill="#020000" d="M103.984 158.9v-163.283h25.869v163.283h33.264v-163.283h25.871v236.528h-25.871v-49.051h-33.264v49.051h-25.869v-49.051h-22.177l-15.118-24.194h37.295zM229.46-4.383v197.219c0 3.364 0 19.488 15.789 19.488 16.464 0 16.464-15.123 16.464-19.488v-197.219h25.871v197.219c0 9.747-1.008 22.848-11.758 33.596-7.727 7.735-19.152 11.764-30.239 11.764-12.43 0-41.997-4.703-41.997-45.359v-197.22h25.87zM302.858-12.445c56.781 22.843 89.037 68.876 89.037 126.328 0 57.448-32.255 103.812-89.037 126.666v-252.994zm25.871 208.308c22.846-21.168 37.295-49.73 37.295-80.635 0-31.247-14.449-60.143-37.295-81.646v162.281zM405.038 232.145c13.101-15.787 22.174-36.618 22.174-56.444 0-17.133-4.034-25.868-14.784-49.054-9.073-19.481-13.441-34.267-13.441-54.424 0-27.89 8.399-54.435 24.528-76.606h35.278c-20.158 19.154-33.599 46.365-33.599 76.941 0 12.427 1.009 22.508 12.096 46.362 11.761 25.2 15.792 37.295 15.792 55.101 0 14.112-3.025 36.623-15.12 58.124h-32.924zM467.642 30.897c0-27.553 21.84-41.326 42.334-41.326 29.904 0 42.671 22.845 42.671 41.326v165.972c0 34.944-30.239 41.326-41.997 41.326-20.831 0-43.008-12.428-43.008-41.326v-165.972zm25.87 158.916c0 8.399 0 21.837 17.138 21.837 16.127 0 16.127-14.449 16.127-21.837v-152.534c0-7.39 0-21.84-16.464-21.84-16.801 0-16.801 14.784-16.801 21.84v152.534zM567.247 232.145v-248.961l56.447 98.109v-85.676h26.205v236.528h-26.205v-103.815l-30.575-50.736v154.551h-25.872zM817.229 232.145v-201.248c0-13.109-8.062-15.457-13.775-15.457-3.697 0-14.107 1.009-14.107 15.457v201.248h-25.871v-201.248c0-15.457-12.769-15.457-14.112-15.457-2.691 0-13.775 1.009-13.775 15.457v201.248h-25.866v-201.248c0-41.326 34.939-41.326 38.635-41.326 13.434 0 21.833 6.045 27.883 10.413 6.382-4.705 14.112-10.413 27.888-10.413 13.438 0 38.977 6.045 38.977 41.326v201.248h-25.877zM883.244-4.383v197.219c0 3.364 0 19.488 15.792 19.488 16.461 0 16.461-15.123 16.461-19.488v-197.219h25.871v197.219c0 9.747-1.006 22.848-11.759 33.596-7.725 7.735-19.152 11.764-30.236 11.764-12.432 0-42-4.703-42-45.359v-197.22h25.871zM961.94 232.145c13.101-15.787 22.169-36.618 22.169-56.444 0-17.133-4.029-25.868-14.781-49.054-9.068-19.481-13.438-34.267-13.438-54.424 0-27.89 8.399-54.435 24.528-76.606h35.281c-20.162 19.154-33.601 46.365-33.601 76.941 0 12.427 1.011 22.508 12.095 46.362 11.759 25.2 15.792 37.295 15.792 55.101 0 14.112-3.023 36.623-15.118 58.124h-32.927zM1026.227-4.383h25.871v236.528h-25.871v-236.528zM1112.917 232.145c-29.562-32.585-46.702-74.585-46.702-118.596 0-43.682 18.146-85.005 46.702-117.932h37.634c-15.455 13.436-58.461 51.07-58.461 117.932 0 68.54 40.989 103.483 58.461 118.596h-37.634zM1174.175 232.082c-11.134 0-20.802-8.38-20.802-20.407 0-11.919 9.669-20.299 20.802-20.299 11.021 0 20.689 8.38 20.689 20.299.001 12.027-9.667 20.407-20.689 20.407zm0-37.503c-9.444 0-16.974 7.652-16.974 17.096 0 9.557 7.53 17.199 16.974 17.199 9.444 0 16.861-7.642 16.861-17.199 0-9.444-7.417-17.096-16.861-17.096zm.786 5.572c3.936 0 7.871 1.118 7.871 5.732 0 2.808-1.802 4.947-4.61 5.513v.215c3.257.455 3.428 2.256 3.824 5.064.278 1.915.562 4.498 1.348 6.182h-4.156c-.23-1.236-.508-2.588-.732-3.877-.171-1.573-.225-2.979-.84-4.102-.62-1.128-1.582-1.91-2.925-1.91h-4.839v9.889h-3.824v-22.706h8.883zm-5.058 2.92v6.861h4.839c3.033 0 4.043-1.572 4.043-3.487 0-1.909-.899-3.374-4.043-3.374h-4.839z"/></g></svg>