<?xml-stylesheet type="text/css" href="../../styles/main.min.css" ?><svg id="Paiste" xmlns="http://www.w3.org/2000/svg" viewBox="0 0 1280 300"><title>paiste-thin</title><g id="layer1"><path id="path2396" d="M706.48,278.49,698,277.23c-28.21-4.17-54.59-23.15-64.46-46.38-2.17-5.11-5.12-16.68-5.12-20.09,0-1.14,2.7-1.31,21.52-1.31h21.52l.48,4C674.41,234.28,693,251,713.77,251c6.85,0,17.21-2.71,23.13-6.09,9.45-5.39,16.78-14.84,18.39-23.74.83-4.58-1.59-12-5.25-16s-13.27-8.9-20.23-10.14c-2.8-.5-14.06-2.4-25-4.21-29-4.8-41.54-9.7-53.42-20.91-9.81-9.26-14.46-20.42-14.46-34.74,0-24,13.14-43.63,35.13-52.44C690,75.56,720.27,75,740.42,81.48c25.4,8.17,42.31,25.92,47.76,50.12l1.29,5.73H752.54l-.49-4.14c-1.52-12.84-12.64-23.3-29.44-27.72-8.27-2.17-23.39-2-30.48.44-9.75,3.29-15.65,8.66-18.89,17.19-4.82,12.7.18,24.39,13.15,30.75,8.05,3.95,15.1,5.62,37.49,8.88,29.9,4.36,37.71,6.73,48.53,14.74,12.92,9.57,19.74,23.69,19.77,41,0,24.27-13.9,43.13-39.4,53.33C740.29,276.76,717.38,280.09,706.48,278.49ZM244.05,182.3V86.42L288,86.25c24.15-.09,46.39-.07,49.42.06,22,.93,43.43,14.95,53,34.6,5,10.31,6.6,17.62,6.65,30.85,0,10.21-.21,12.19-2.23,18.24-2.92,8.77-6.16,14.29-12.18,20.79-14,15.08-33.72,22.05-62.55,22.06-7.06,0-17.7.25-23.65.56l-10.82.55v64.22H244.05ZM330,183.6c10.75-2.28,20.79-9.52,24.74-17.83,5.74-12.1,2.43-30.43-7.3-40.42-4.46-4.58-12.59-8.7-19.74-10-2.77-.51-13.36-.92-23.55-.92H285.63v70.42h19.3C318.41,184.82,326,184.45,330,183.6Zm585.9,89.08c-10.07-1.65-24.73-6.65-32.57-11.12-24.65-14-39.74-35.76-46.24-66.54-2.82-13.37-2.7-32.16.28-43.34,4.43-16.59,10.85-28.48,21.48-39.74,14-14.86,33.44-25,56.38-29.42,12.67-2.44,31.65-2.14,43.8.69,20,4.67,35.47,13,49.16,26.52,17.93,17.72,26.19,36.66,27.29,62.58l.49,11.67H875.33v4.4c0,19.39,14.48,39.61,34.36,48a71.33,71.33,0,0,0,22.24,4.47,111.4,111.4,0,0,0,26.55-4.28c14.14-4.65,25.74-13.67,29.74-23.1,1.63-3.84,2.41-4.82,3.62-4.52.85.21,9.06,2,18.24,4s17,3.85,17.37,4.18c.92.81-5.31,12.68-9.73,18.53-10.81,14.32-28,26.27-46.53,32.33C955.2,273.17,931.39,275.21,915.88,272.68Zm83.71-115.2c-2.58-11.95-11.38-24.71-22.16-32.13a74.05,74.05,0,0,0-19.85-8.93c-7.85-2.19-30.21-2.17-38.56,0-18.26,4.81-32.52,15.5-39.4,29.57-1.89,3.85-3.67,8.63-4,10.62l-.54,3.61h125.08ZM586,186.59c0-46.17.29-84.13.64-84.34s9.7-.18,20.79.08l20.15.46V270.54H586Zm207.67-32.08-.22-84.64-34.58,0L724.3,70V45.69H908.42V69.23l-36.9.38c-20.29.21-37.19.68-37.55,1s-.77,38.42-.92,84.58l-.27,83.93H793.88ZM375.8,217.3c.24-.82,5.78-13.51,12.32-28.21,13-29.13,46.52-104.84,63.64-143.6l10.77-24.38,18.63.2,18.63.2,8.65,19.94L550.79,139c18.53,42.7,33.88,78.11,34.11,78.7.33.83-4.39,1.06-21.94,1.06H540.6l-1.85-4.45c-1-2.45-4.37-10.18-7.46-17.18s-7.2-16.45-9.13-21l-3.52-8.28-39.08.22-39.08.22-10.94,25.24L418.6,218.79H397C376.8,218.79,375.4,218.69,375.8,217.3Zm134.68-69.36c0-.23-6.51-15.93-14.47-34.89s-14.69-35.57-15-36.91c-.52-2.6-2-3.37-2-1,0,1.11-15.77,38-29.21,68.4l-2.16,4.88H479.1C496.36,148.36,510.48,148.17,510.48,147.94ZM586,71.57v-14h41.58v28H586Z"/></g></svg>
