<svg xmlns="http://www.w3.org/2000/svg" viewBox="-9.223 -288.133 1280 800" enable-background="new -9.223 -288.133 1280 800"><g><path d="M211.422 109.539c-2.172.853-4.344.853-8.925.853h-25.986v-28.48h.078v-.161h28.908c4.739 0 9.557.648 12.203 6.815.512 1.258 1.461 3.774 1.461 7.506v1.297c.002 11.157-7.739 12.17-7.739 12.17m43.519-38.781c-7.977-21.38-24.326-22.191-41.9-22.191h-76.02v120.808h39.491v-26.002h30.093c12.083 0 27.485-.204 38.149-9.738 13.506-11.805 14.098-31.359 14.098-38.418-.001-12.167-2.173-19.714-3.911-24.459M466.297 143.657c-20.496 0-25.827-18.945-25.827-33.953 0-18.176 7.305-34.118 25.669-34.118 21.483 0 25.076 21.785 25.076 33.954 0 12.334-2.684 34.117-24.918 34.117m57.855-71.845c-8.214-14.563-23.577-28.072-59.276-28.072-22.549 0-37.043 6.57-45.574 13.711-8.726 7.098-21.877 23.083-21.877 53.955 0 11.398 2.447 36.713 23.892 51.846 8.214 5.718 22.035 11.641 43.44 11.641 17.85 0 33.172-2.755 46.283-13.548 20.417-16.837 22.274-41.42 22.274-52.372 0-18.581-5.845-31.237-9.162-37.161"/><path d="M308.49 81.912h.08v-.161h28.947c4.659 0 9.557.648 12.203 6.815.474 1.258 1.461 3.774 1.461 7.506v1.297c0 11.156-7.7 12.169-7.7 12.169-2.212.853-4.464.853-8.965.853h-26.026v-28.479zm39.847 87.464h46.007l-18.797-34.766 1.184-.974c13.506-11.805 14.178-31.359 14.178-38.418 0-12.169-2.252-19.716-3.95-24.461-8.016-21.38-24.326-22.191-41.938-22.191h-75.982v120.808h39.451v-26.002h27.17l12.677 26.004zM714.26 209.946h12.127c2.132 0 5.051.243 6.159 2.272.474.891.55 2.798-.042 3.815-1.066 1.782-4.738 2.068-6.946 2.068h-11.298v-8.155zm17.14-7.1c-1.066 1.703-3.396 1.947-5.292 1.947h-11.848v-6.853h11.928c1.857 0 4.42.161 5.33 1.782.554.973.355 2.312-.118 3.124m3.396 4.14c.592-.368.99-.773 1.383-1.177 1.933-2.111 2.094-6.166 1.265-8.195-1.265-3.288-5.016-4.992-10.82-4.992h-18.324c-.118 0-.237.122-.237.243v30.385c0 .122.118.204.237.204h18.797c4.776 0 8.253-1.138 10.148-3.528 2.132-2.637 2.013-5.561 1.815-7.061-.512-2.715-1.617-4.297-4.264-5.879"/><path d="M770.537 192.622c-.042 0-.118 0-.16.043l-10.228 12.776-10.109-12.776c0-.043-.077-.043-.118-.043h-7.267c-.077 0-.16.043-.195.165-.042.079-.042.161.035.2l14.495 18.258v12.006c0 .122.08.204.199.204h5.803c.118 0 .279-.082.279-.204v-12.006l14.415-18.258c.038-.039.038-.122 0-.2-.042-.122-.08-.165-.16-.165h-6.989zM826.65 213.474c-2.327 4.019-6.472 4.384-10.186 4.384h-7.939v-19.757h7.503c3.71 0 8.57.812 10.663 4.706 1.423 2.755 1.423 8.03-.041 10.667m-8.883-20.852h-15.202c-.118 0-.279.122-.279.243v30.385c0 .122.16.204.279.204h13.899c5.253 0 11.726-.73 15.321-6.935 2.529-4.301 2.648-11.931.317-16.676-3.159-5.961-9.517-7.221-14.335-7.221M849.242 192.622h-5.452c-.153 0-.237.122-.237.243v6.005c0 .122.084.204.237.204h2.136l-2.17 6.205.035.161c.042.043.084.122.161.122h2.686l.157-.122 2.606-5.962v-6.614c-.003-.121-.08-.242-.159-.242M875.386 211.001h-11.492l5.724-11.766 5.768 11.766zm-2.766-18.379h-5.964c-.118 0-.157.043-.195.165l-14.77 30.303c-.042.122-.042.204 0 .243.038.082.077.122.157.122h6.082c.08 0 .157-.04.157-.122l3.359-6.896h16.31l3.358 6.896c.039.082.118.122.195.122h6.041c.083 0 .202-.04.237-.122.042-.04.042-.122 0-.243l-14.767-30.303c-.04-.122-.12-.165-.2-.165M921.152 213.474c-2.289 4.019-6.434 4.384-10.148 4.384h-7.977v-19.757h7.504c3.71 0 8.569.812 10.663 4.706 1.463 2.755 1.463 8.03-.042 10.667m-8.882-20.852h-15.244c-.118 0-.195.122-.195.243v30.385c0 .122.077.204.195.204h13.979c5.253 0 11.729-.73 15.324-6.935 2.487-4.301 2.644-11.931.237-16.676-3.08-5.961-9.479-7.221-14.296-7.221M962.067 213.474c-2.289 4.019-6.434 4.384-10.19 4.384h-7.936v-19.757h7.504c3.748 0 8.608.812 10.701 4.706 1.422 2.755 1.422 8.03-.079 10.667m-8.845-20.852h-15.244c-.119 0-.237.122-.237.243v30.385c0 .122.118.204.237.204h13.899c5.295 0 11.767-.73 15.363-6.935 2.529-4.301 2.647-11.931.317-16.676-3.201-5.961-9.555-7.221-14.335-7.221M997.568 211.001h-11.489l5.727-11.766 5.762 11.766zm-2.763-18.379h-5.964c-.118 0-.157.043-.198.165l-14.771 30.303c-.035.122-.035.204 0 .243.042.082.084.122.161.122h6.082c.077 0 .157-.04.195-.122l3.32-6.896h16.307l3.358 6.896c.042.082.16.122.237.122h6.006c.077 0 .157-.04.237-.122.038-.04.038-.122 0-.243l-14.77-30.303c-.043-.122-.119-.165-.2-.165"/><path d="M1023.792 198.101h11.848c2.17 0 4.619.122 5.605 1.947.439.934.557 3.246-.035 4.258-1.069 1.825-3.755 2.029-5.925 2.029h-11.492v-8.234zm16.23 13.266c3.278-.569 5.528-2.029 6.793-4.259 1.223-2.315 1.146-7.465-.118-9.78-2.526-4.706-8.726-4.706-11.019-4.706h-17.888c-.08 0-.237.122-.237.243v30.385c0 .122.157.204.237.204h5.765c.118 0 .237-.082.237-.204v-11.602h8.966l8.451 11.723c.035.043.153.082.195.082h7.106c.08 0 .16-.04.16-.122.038-.04.038-.122 0-.243l-8.648-11.721zM1064.428 192.622h-5.765c-.077 0-.195.122-.195.243v30.385c0 .122.119.204.195.204h5.765c.118 0 .198-.082.198-.204v-30.385c0-.122-.08-.243-.198-.243M1105.617 211.244c-.867 3.489-2.846 5.518-6.594 6.613-1.265.405-2.961.648-4.661.648-3.832 0-7.068-1.056-8.967-2.881-2.961-2.759-3.156-7.869-2.606-10.467.791-3.811 3.08-6.205 7.072-7.261 1.143-.326 2.564-.526 4.069-.526 1.815 0 6.354.283 9.078 3.081 3.637 3.612 3.163 8.278 2.609 10.793m3.435-13.183c-3.515-4.505-10.426-6.127-15.756-6.127-.711 0-1.383.04-1.975.079-1.696.122-4.302.651-6.434 1.625-4.821 2.147-7.545 5.922-8.451 11.397-.634 4.262.153 10.671 4.539 14.769 4.031 3.811 10.071 4.38 13.346 4.38 2.254 0 4.623-.283 6.518-.77 5.372-1.464 8.768-4.627 10.427-9.658 1.461-4.297.869-11.68-2.214-15.695"/><path d="M775.157 80.493h.592l11.848 38.5h-24.326l11.886-38.5zm-25.946-32.454l-43.283 121.58h42.335l.512-1.378 5.727-17.524h41.862l5.727 17.524.509 1.378h40.479l-43.28-121.58h-50.588zM883.677 81.547h.16v-.122h29.025c4.738 0 9.594.608 12.321 6.857.436 1.258 1.383 3.774 1.383 7.504v1.26c0 11.317-7.702 12.292-7.702 12.292-2.17.852-4.42.852-9.005.852h-26.182v-28.643zm88.461 87.911l-19.55-36.145c13.307-11.969 13.941-31.279 13.941-38.378 0-12.292-2.208-19.796-3.909-24.583-8.096-21.502-24.524-22.312-42.179-22.312h-76.416v91.806l10.43 29.612h29.22v-26.127h29.464l12.715 26.127h46.284zM979.718 48.567v120.891h41.308l.042-48.559h.195l38.542 48.598h48.498l-46.324-60.119 44.468-60.811h-46.677l-38.507 53.144h-.157l.039-53.144zM650.445 48.567l-27.882 69.898h-.159l-27.879-69.898h-52.563v120.852h38.899v-67.263h.197l25.867 67.302h30.687l25.98-67.302h.202v67.302h39.092v-120.891zM1109.407 48.689v.852h2.568v7.139h.909v-7.139h2.606v-.852zM1123.624 48.689l-2.801 4.38-2.846-4.38h-.867v7.991h.867v-6.45l2.804 4.26h.042l2.843-4.26v6.45h.867v-7.991z"/></g></svg>