<?xml-stylesheet type="text/css" href="../../styles/main.min.css" ?><svg xmlns="http://www.w3.org/2000/svg" viewBox="-9.223 -288.133 1280 800" enable-background="new -9.223 -288.133 1280 800"><path d="M153.12 85.281c0 8.945-2.465 16.594-7.391 22.944-5.318 7.129-12.32 10.692-21.008 10.692h-73.526v32.465h-23.28v-99.93h96.82c8.683 0 15.681 3.566 20.996 10.692 4.924 6.483 7.389 14.194 7.389 23.137zm-23.33 0c0-7.032-1.688-10.549-5.058-10.549h-73.537v20.905h73.537c3.371 0 5.058-3.452 5.058-10.356zm155.942 35.189c0 8.426-2.658 15.683-7.973 21.776-5.315 6.092-12.123 9.136-20.417 9.136h-66.114c-8.428 0-15.265-3.044-20.516-9.136-5.251-6.092-7.874-13.35-7.874-21.776v-69.018h23.28v69.063c0 5.058 1.685 7.587 5.055 7.587h66.101c3.239 0 4.86-2.529 4.86-7.587v-69.063h23.597v69.018zm127.123 30.912h-31.884l-49.965-55.904h60.145c4.281 0 6.424-3.457 6.424-10.373 0-6.914-2.143-10.373-6.426-10.373h-72.441v76.65h-23.28v-99.93h97.035c8.945 0 16.01 3.501 21.197 10.504 4.795 6.354 7.196 14.072 7.196 23.149 0 9.079-2.4 16.794-7.198 23.149-5.191 7.003-12.261 10.504-21.209 10.504h-8.95l29.356 32.624zm124.426-76.65h-83.455v15.045h78.011v23.28h-78.011v15.045h83.259v23.28h-106.539v-99.93h106.735v23.28zm129.129 45.847c0 8.396-2.529 15.565-7.582 21.503-5.449 6.201-12.318 9.299-20.617 9.299h-86.349v-23.28h86.403c3.242 0 4.865-2.507 4.865-7.523 0-5.013-1.623-7.522-4.865-7.522h-62.853c-8.304 0-15.178-3.108-20.625-9.329-5.192-5.83-7.785-12.954-7.785-21.377 0-8.421 2.655-15.676 7.97-21.766 5.315-6.087 12.12-9.133 20.414-9.133h86.321v23.28h-86.252c-3.239 0-4.857 2.541-4.857 7.619 0 4.951 1.618 7.426 4.857 7.426h62.774c8.29 0 15.159 3.1 20.603 9.299 5.054 5.942 7.578 13.111 7.578 21.504zm133.682-.826c0 9.057-3.172 16.592-9.522 22.607-6.35 6.015-14.06 9.022-23.132 9.022h-58.695c-9.071 0-16.782-3.007-23.132-9.022-6.349-6.015-9.522-13.55-9.522-22.607v-36.672c0-9.054 3.172-16.589 9.522-22.605 6.35-6.015 14.06-9.024 23.132-9.024h58.695c9.072 0 16.782 3.009 23.132 9.024 6.35 6.015 9.522 13.55 9.522 22.605v36.672zm-23.28.005v-36.682c0-5.563-3.113-8.344-9.339-8.344h-58.764c-6.226 0-9.339 2.781-9.339 8.344v36.682c0 5.563 3.113 8.344 9.339 8.344h58.764c6.226 0 9.339-2.781 9.339-8.344zm155.928.712c0 8.426-2.658 15.683-7.973 21.776-5.315 6.092-12.12 9.136-20.414 9.136h-66.114c-8.428 0-15.268-3.044-20.518-9.136-5.251-6.092-7.874-13.35-7.874-21.776v-69.018h23.28v69.063c0 5.058 1.688 7.587 5.058 7.587h66.099c3.242 0 4.86-2.529 4.86-7.587v-69.063h23.597v69.018zm116.44 30.912h-23.28l-60.18-67.304v67.304h-23.28v-99.93h23.329l60.076 66.843.054-66.843h23.28v99.93zm119.305-31.629c0 9.057-3.142 16.592-9.423 22.607-6.285 6.015-13.961 9.022-23.028 9.022h-77.14v-63.028h23.28v39.748h53.786c5.954 0 8.928-2.781 8.928-8.344v-36.682c0-5.563-2.974-8.344-8.928-8.344h-77.066v-23.28h77.14c9.067 0 16.742 3.009 23.028 9.024 6.28 6.015 9.423 13.55 9.423 22.605v36.672zm32.03-60.761h-10.828v18.371h-5.582v-18.371h-10.809v-5.582h27.219v5.582zm33.124 18.37h-5.582v-14.594l-9.977 14.214-9.977-14.214v14.594h-5.582v-23.953h5.869l9.69 13.832 9.735-13.832h5.825v23.953z" stroke="#000" stroke-miterlimit="10"/></svg>