<?xml-stylesheet type="text/css" href="../../styles/main.min.css" ?><svg xmlns="http://www.w3.org/2000/svg" viewBox="-9.223 -288.133 1280 800" enable-background="new -9.223 -288.133 1280 800"><path d="M881.664 245.743h-500.339l-47.334-150.348c31.501 26.786 71.137 35.955 108.613 22.752 41.672-14.69 71.519-54.057 82.923-106.745 23.135 46.477 61.664 73.845 106.438 73.539 43.902-.306 82.472-27.991 105.211-73.115 11.676 51.857 42.863 91.823 85.519 106.627 36.847 12.762 74.541 3.879 104.771-22.651l-45.802 149.941m63.741-207.791c-32.62 60.783-81.923 69.37-117.2 57.136-45.146-15.676-74.979-65.252-76.045-126.334l-19.551-3.321c-14.642 57.503-54.171 94.861-100.751 95.201-36.902.259-83.045-24.731-101.818-95.625l-19.51 3.321c-1.764 63.599-29.246 110.88-73.489 126.476-44.844 15.794-93.491-6.585-121.056-55.659l-17.612 11.184 66.735 211.888 2.449 7.806h528.028l2.418-7.907 65.177-213.314-17.775-10.852zm-475.278 148.04c6.712 0 7.767.464 9.105-1.396 1.163-1.756.67-2.692.587-9.216 0-7.123.656-8.752-.684-10.511-1.15-1.511-2.789-1.511-4.978-1.511h-47.165s-1.053 0-1.64.582c-.479.599-.67 1.511-.67 2.338v17.389c0 .565.191 1.164.587 1.629.465.697 1.039.697 1.615.697h43.243m4.033 21.221l-46.802-.098c-.656 0-1.327.098-1.817.565-.576.599-.861 1.295-.861 2.338v19.949h-20.263l-.097-88.189h71.946c9.706 0 15.354-1.295 19.687 4.283 4.992 6.443 4.13 10.979 4.13 27.089 0 6.992.765 12.473-2.886 17.486-3.363 4.684-7.191 3.869-7.191 5.515.097 1.494 4.224.929 6.919 4.768 3.061 4.667 2.776 6.891 2.776 11.44v17.604h-21.041v-13.402c0-4.435.396-6.063-.861-7.937-1.357-1.872-3.639-1.411-3.639-1.411zm46.392 22.755v-88.071h80.502v19.347h-57.262c-.573 0-1.15 0-1.817.713-.479.451-.67 1.279-.67 2.093v10.727c0 .717.615 1.295.983 1.746.493.498 1.094.498 1.765.498h55.168v16.891h-55.727c-.576 0-.848.114-1.421.481-.576.814-.767 1.063-.767 1.992v10.828c-.108.831.368 1.413.862 1.76.382.35.67.582 1.244.697h57.248v20.296h-80.106m128.054-64.038c-.972-2.574-2.31-2.224-4.047-2.224-1.629 0-1.449 3.388-1.449 5.828v60.218h-20.645v-87.97h37.656l19.784 54.01c.299.713.972 2.921 2.31 2.921 1.15 0 1.723-1.625 2.122-2.688l20.26-54.124h37.75v87.852h-19.975v-61.036c0-4.317 0-5.262-1.438-5.262-1.449 0-2.119 0-3.282 2.709l-27.182 63.589h-16.706l-25.158-63.823"/><path d="M840.797 166.629c0-3.274-2.967-4.32-3.748-4.32l-12.388-.131h-37.177c-1.446 0-3.075.232-4.127 1.528-1.258 1.396-1.258 3.486-1.258 5.367l-.08 34.542c0 3.604 2.199 5.131 4.989 5.131h49.835c2.23 0 3.87-1.861 3.87-5.013l.084-37.104m14.698 58.441c-4.701 6.06-10.471 4.899-17.088 4.899-3.186 0-52.736.114-56.099 0-6.058 0-10.568.828-15.177-4.899-4.701-5.828-3.554-13.072-3.554-17.025 0-2.692-.08-37.799-.08-40.605 0-6.309-1.463-15.313 3.925-21.241 5.072-5.562 11.908-4.418 17.964-4.418h52.924c7.781 0 11.908-1.06 16.997 4.536 4.895 5.612 3.842 12.722 3.748 19.731l.094 39.31c.105 5.362 1.449 13.067-3.654 19.712z"/><path fill="#231F20" d="M874.187 152.975v-3.106h2.119c.889 0 2.244-.118 2.244 1.41 0 1.43-.74 1.729-1.789 1.696h-2.574m3.623 1.692c1.643-.131 2.543-.962 2.543-3.089 0-2.655-1.177-3.452-3.609-3.452h-4.526v11.326h1.969v-4.785h1.546l2.078 4.785h2.244l-2.245-4.785zm-2.024 9.552c4.759 0 8.64-4.7 8.64-10.444 0-5.818-3.881-10.532-8.64-10.532-4.812 0-8.64 4.714-8.64 10.532 0 5.741 3.828 10.444 8.64 10.444zm0-2.473c-3.787 0-6.343-3.321-6.343-7.971 0-4.7 2.557-8.058 6.343-8.058 3.679 0 6.357 3.355 6.357 8.058 0 4.647-2.679 7.971-6.357 7.971z"/></svg>
