<svg xmlns="http://www.w3.org/2000/svg" viewBox="-9.223 -288.133 1280 800" enable-background="new -9.223 -288.133 1280 800"><path d="M611.021 95.267c0-6.714 5.444-12.157 12.159-12.157 6.714 0 12.157 5.443 12.157 12.157 0 6.716-5.443 12.158-12.157 12.158-6.715.001-12.159-5.442-12.159-12.158zm-19.339 0c0 17.395 14.102 31.498 31.498 31.498 17.394 0 31.496-14.102 31.496-31.498 0-4.308-.866-8.417-2.433-12.157h12.202c1.134 3.854 1.742 7.935 1.742 12.157 0 23.752-19.255 43.009-43.007 43.009-23.754 0-43.01-19.257-43.01-43.009 0-4.222.609-8.303 1.743-12.157h12.202c-1.568 3.741-2.433 7.849-2.433 12.157zm-21.642 0c0 29.348 23.791 53.139 53.14 53.139 29.347 0 53.139-23.79 53.139-53.139 0-4.182-.485-8.252-1.398-12.157h11.298c.756 3.937 1.151 8 1.151 12.157 0 35.451-28.739 64.192-64.19 64.192-35.452 0-64.191-28.741-64.191-64.192 0-4.157.395-8.22 1.15-12.157h11.298c-.914 3.905-1.397 7.975-1.397 12.157zm-22.563 0c0 41.81 33.892 75.703 75.703 75.703 41.808 0 75.701-33.893 75.701-75.703 0-4.139-.332-8.198-.972-12.157h10.712c.561 3.971.851 8.03.851 12.157 0 47.658-38.636 86.294-86.292 86.294-47.659 0-86.293-38.636-86.293-86.294 0-4.126.29-8.186.849-12.157h10.712c-.639 3.959-.971 8.019-.971 12.157zm-28.089 0c0 57.323 46.468 103.791 103.791 103.791 57.321 0 103.789-46.468 103.789-103.791 0-4.112-.238-8.169-.703-12.157h12.045c.416 3.994.631 8.05.631 12.157 0 63.935-51.828 115.763-115.761 115.763-63.935 0-115.763-51.828-115.763-115.763 0-4.106.214-8.162.63-12.157h12.047c-.467 3.988-.706 8.046-.706 12.157zm-22.562 0c0 69.784 56.569 126.353 126.354 126.353 69.782 0 126.353-56.569 126.353-126.353 0-4.101-.196-8.157-.579-12.157h11.562c.35 4.005.528 8.061.528 12.157 0 76.141-61.723 137.866-137.864 137.866-76.142 0-137.866-61.725-137.866-137.866 0-4.096.179-8.151.529-12.157h11.56c-.382 4.001-.577 8.056-.577 12.157zm-22.103 0c0 81.991 66.465 148.457 148.457 148.457 81.99 0 148.455-66.466 148.455-148.457 0-4.092-.166-8.148-.491-12.157h11.547c.301 4.012.454 8.066.454 12.157 0 88.35-71.618 159.968-159.966 159.968-88.349 0-159.969-71.618-159.969-159.968 0-4.09.154-8.144.456-12.157h11.547c-.324 4.01-.49 8.065-.49 12.157zm-21.642 0c0 93.944 76.155 170.098 170.098 170.098 93.942 0 170.096-76.154 170.096-170.098 0-4.087-.144-8.142-.427-12.157h11.078c.265 4.018.4 8.072.4 12.157 0 100.047-81.102 181.149-181.147 181.149-100.048 0-181.15-81.102-181.15-181.149 0-4.085.135-8.139.401-12.157h11.078c-.283 4.015-.427 8.071-.427 12.157zm-21.642 0c0 105.897 85.843 191.74 191.74 191.74 105.895 0 191.738-85.843 191.738-191.74 0-4.083-.128-8.137-.379-12.157h11.071c.238 4.021.359 8.075.359 12.157 0 112-90.792 202.791-202.79 202.791-112 0-202.791-90.792-202.791-202.791 0-4.081.12-8.135.358-12.157h11.072c-.25 4.02-.378 8.074-.378 12.157zm-21.642 0c0 117.85 95.533 213.383 213.383 213.383 117.848 0 213.381-95.533 213.381-213.383 0-4.079-.115-8.133-.341-12.157h11.529c.213 4.025.323 8.079.323 12.157 0 124.207-100.687 224.894-224.892 224.894-124.208 0-224.894-100.687-224.894-224.894 0-4.077.108-8.132.323-12.157h11.529c-.227 4.024-.341 8.078-.341 12.157zm196.118-96.238c-.538 13.066-3.335 23.628-3.335 36.973 4.778.642 8.913 1.302 13.9 0 20.659-5.508 23.194-28.86 4.309-36.001-10.461-4.012-14.231-1.893-14.874-.972zm147.825-5.559c-.626-.018-6.543 17.68-6.047 18.068.536.42 10.114-3.266 12.232-3.89.487-.765-5.473-14.422-6.185-14.178zm-247.07.277c-.834.139-4.518 11.937-6.395 18.348 6.517-2.66 12.563-4.536 12.563-4.536s-5.334-13.951-6.168-13.812zm108.141-52.819c-3.198.052-8.826 1.564-9.452 2.781v31.691c.833 0 1.929.103 2.78 0 16.194-2.224 30.232-34.889 6.672-34.472zm-231.295-37.251c4.726-.712 19.807 2.415 26.966 3.057 8.34.73 13.101 1.564 23.073.835 9.331-.712 28.994-2.696 30.58-1.113 1.028 1.028-4.274 14.178-5.976 19.322-.905 2.676-4.937 14.9-5.482 15.329-1.028.806-11.233.186-24.385-2.177-9.921-1.789-20.746-2.155-25.733-.225-7.731 2.972-10.06 17.565-2.363 22.795 5.473 3.718 14.092 3.407 21.685 5.004 22.639 4.727 39.198 16.714 43.923 39.476 9.66-23.561 22.466-52.212 21.128-67.276-.748-8.427-8.081-22.842-7.228-24.465.641-1.217 26.67-11.363 30.58-9.45 3.44 1.666 5.003 10.25 6.672 13.899 6.238 13.673 11.172 29.433 16.68 43.923 7.906 20.885 18.782 41.664 28.912 61.158.678 1.042.8 1.217 1.304-1.32 4.691-24.133 7.523-49.918 9.26-79.299-7.524-1.024-21.128-3.475-21.684-5.003-.555-1.529.313-2.902 1.286-3.753 10.043-8.983 11.363-18.297 13.588-20.432 3.005-3.179 8.253.729 32.803-.696 23.387-1.39 33.221-6.065 38.224-4.725 3.894 1.024 8.602 5.49 11.399 7.922 18.643 16.297 18.643 40.934 1.111 61.158-1.98 2.26-4.812 4.622-6.948 6.673 7.783 2.242 11.832 6.011 15.845 11.12 1.946 2.467 4.222 6.238 5.699 9.174 2.05-26.115 1.542-82.859 2.642-84.233.716-.896 5.63-1.668 7.246-1.912 15.688-2.328 35.218-7.522 35.009-4.761 0 12.232-2.501 22.153-3.892 32.804-3.022 22.779-4.449 47.954-4.449 73.391.61-1.077 10.791-13.5 18.905-37.251 3.197-9.417 12.474-31.518 11.397-42.533-.833-8.411-4.811-16.436-6.671-24.881-.4-1.147 2.431-2.676 4.9-3.266 14.837-3.493 22.256-9.087 25.958-8.271 2.014.435 4.188 4.882 5.003 6.673 7.888 17.617 13.379 36.887 20.573 55.043 5.838 14.734 13.066 28.459 20.153 42.255.68.885 1.131-.036 1.201-.974 1.111-17.879 2.588-40.448-.227-57.963-1.876-11.554-5.699-21.457-6.671-33.915 1.962-1.477 6.149-2.763 10.806-3.771 9.991-2.137 14.283-3.614 22.137-6.186 1.354-.435 3.544-.678 3.336 2.312-.087 11.675 9.886 18.227 25.576 47.954 8.061 15.307 14.056 24.203 24.602 47.121.904 1.98 1.374 2.727 1.391 1.527 0-17.895.94-35.999-1.668-52.262-1.789-11.033-4.986-23.334-5.56-25.785-.833-3.614-1.163-5.387-.608-6.914.521-1.425 15.533-5.683 29.242-9.643 4.795-1.372 5.408 1.176 6.303 3.114 18.353 38.201 10.094 95.351-1.044 139.819-.435 1.598-.896 4.775-3.881 5.522-6.061 1.515-24.086 7.118-31.455 8.682-1.32.278-1.894-.453-2.519-1.807-3.96-8.357-7.331-17.028-11.607-25.698-7.037-14.211-19.303-40.273-20.571-40.03 0 18.869.487 41.056-.312 58.17-.036.867.104 2.779-1.356 3.544-1.407.747-23.213 6.395-37.529 8.687-.469.07-2.087.696-2.294-1.181-.209-1.875-.139-4.047-.139-7.435-7.68 5.421-8.371 4.139-12.58-2.224-7.659-11.581-12.595-24.156-13.343-24.187-1.782-.07-14.341 8.041-27.453 11.468-4.406 1.153-14.14 2.887-14.386 3.614-1.843 5.441-11.989 19.511-14.039 19.599-2.148.092-10.269-10.478-15.706-14.595.903 5.89-1.773 6.047-4.31 6.393-15.394 2.032-40.906 8.481-41.7 7.089-.875-1.531.399-9.661 1.113-14.456.521-1.755-.33-1.268-1.948.418-3.248 3.3-8.009 6.584-10.701 7.783-9.54 4.117-16.94 6.898-26.826 7.922-22.865 2.346-42.564-1.758-60.599-5.493-1.122-.232-.317-2.846-.56-3.958-4.17 2.936-8.845 8.045-11.676 6.115-6.551-9.695-10.86-20.831-17.514-30.162-7.454 3.717-17.22 7.488-25.855 10.146-4.708 1.443-12.213 2.137-15.567 3.892-1.269.66-1.807 2.938-3.492 5.405-4.344 6.411-10.947 14.126-12.91 13.361-2.502-.974-13.049-12.389-18.487-19.322-9.104 5.455-16.35 9.47-26.826 11.677-29.502 6.15-64.461-2.676-81.732-15.152-2.554-1.737-1.337-4.326-.885-5.073 4.431-7.524 7.106-9.782 10.338-15.915 2.711-5.178 4.049-9.001 7.228-13.482.938-1.479 2.068-.835 2.866-.209 13.327 10.442 22.918 19.773 47.173 17.583 6.03-.557 14.804-4.344 16.68-9.451 7.228-19.929-28.252-23.561-41.144-27.244-16.888-4.829-24.412-13.327-28.912-24.046-.956-2.26-.66-10.808 2.711-18.625 9.29-21.144 19.194-44.686 26.196-45.728z"/></svg>