<svg xmlns="http://www.w3.org/2000/svg" viewBox="-9.223 -288.133 1280 800" enable-background="new -9.223 -288.133 1280 800"><path d="M98.458 46.983h-99.035v99.211h12.289v-86.918h75.331c3.866-5.796 7.728-9.662 11.415-12.293zm-9.483 129.767h99.036v-99.214h-12.289v86.743h-75.331c-3.687 5.798-7.553 9.836-11.416 12.471zm7.55-17.913c-10.886 17.741-21.07 17.913-33.538 17.913h-63.564v-25.115h19.843c13.169 0 23.704-6.669 29.324-16.152l42.495-70.591c10.71-17.734 20.895-17.909 33.362-17.909h63.565v24.936h-19.843c-13.169 0-23.704 6.669-29.321 16.331l-42.323 70.587zm220.545-33.382c5.796 7.725 3.863 26.69-14.222 26.69h-51.802v-16.33h22.828c4.388 0 5.093-4.038 2.459-7.55l-21.6-29.325c-5.795-7.728-3.862-26.69 14.398-26.69h51.626v16.155h-22.828c-4.214 0-4.915 4.213-2.284 7.55l21.425 29.5zm718.189 0c5.799 7.725 3.866 26.69-14.397 26.69h-51.798v-16.33h23.003c4.21 0 4.912-4.038 2.456-7.55l-21.601-29.325c-5.971-7.728-4.038-26.69 14.225-26.69h51.798v16.155h-22.824c-4.389 0-5.091 4.213-2.463 7.55l21.601 29.5zm-688.338-53.205h70.416v16.857h-36v15.275h36v15.804h-36v14.927h36v17.032h-70.416v-79.895zm716.259 0h70.413v16.857h-35.997v15.275h35.997v15.804h-35.997v14.927h35.997v17.032h-70.413v-79.895zm-255.139 0h70.413v16.857h-35.998v15.275h35.998v15.804h-35.998v14.927h35.998v17.032h-70.413v-79.895zm-324.684 0h-36.17v79.895h16.331v-49.517l32.837 49.517h36.348v-79.895h-16.506v49.694l-32.84-49.694zm113.44 0h-36.176v79.895h16.506v-49.517l32.84 49.517h36.173v-79.895h-16.51v49.694l-32.833-49.694zm310.803 0h34.766v79.895h-34.766v-79.895zm-229.859 0h34.952v30.378h27.564v-30.378h34.766v79.895h-34.766v-30.201h-27.564v30.201h-34.952v-79.895zm535.922 48.115h-14.748v31.78h-34.595v-79.895h72.174c9.129 0 21.6 7.023 23.175 21.772.88 9.308-2.806 17.913-15.45 23.884l17.913 34.239h-31.257l-17.212-31.78zm-14.748-31.96h20.196c4.389 0 8.077 3.512 8.077 8.076 0 4.392-3.688 8.079-8.077 8.079h-20.196v-16.155z" fill-rule="evenodd" clip-rule="evenodd"/></svg>