<?xml version="1.0" encoding="utf-8"?>
<!-- Generator: Adobe Illustrator 17.0.0, SVG Export Plug-In . SVG Version: 6.00 Build 0)  -->
<!DOCTYPE svg PUBLIC "-//W3C//DTD SVG 1.1//EN" "http://www.w3.org/Graphics/SVG/1.1/DTD/svg11.dtd">
<svg version="1.1" id="Layer_1" xmlns="http://www.w3.org/2000/svg" xmlns:xlink="http://www.w3.org/1999/xlink" x="0px" y="0px"
	 width="1280px" height="800px" viewBox="-9.223 -288.133 1280 800" enable-background="new -9.223 -288.133 1280 800"
	 xml:space="preserve">
<g>
	<path fill="#B3B2B3" d="M703.89,23.967h-77.311 M626.579,23.967l-13.094,106.51h-20.153l13.292-106.51h-76.199l-9.269,73.656
		c-1.03,10.104-2.913,28.15,1.078,40.732c8.934,28.19,32.576,38.303,32.576,38.303l2.762,1.5c9.89,5.042,21.252,6.686,31.503,6.686
		h7.101c18.898-0.049,34.307-4.218,46.884-10.525c0.02-0.065,0.775-0.333,0.775-0.333c4.098-2.429,27.405-14.465,41.884-42.983
		c5.41-10.749,5.836-13.034,8.842-30.425l9.328-76.611"/>
	<path fill="#B3B2B3" d="M392.775,178.209l6.637-54.095h23.019l0.422-0.218l-6.681,54.298h74.753L509.87,23.947h-74.763
		l-6.542,53.459l-0.129-0.08h-23.121l-0.221,0.08l6.517-53.459h-74.768l-18.843,154.261L392.775,178.209z M1116.658,30.668v5.36
		h2.618c2.821,0,4.118-0.636,4.118-2.569c0-2.021-1.297-2.792-4.193-2.792H1116.658 M1126.568,33.143c0,2.3-1.386,3.919-3.755,4.386
		l3.656,7.466h-3.457l-3.304-6.999h-3.05v6.999h-3.089V28.607h6.15C1124.307,28.607,1126.568,30.182,1126.568,33.143
		L1126.568,33.143z M1128.296,28.274c-2.384-2.429-5.484-3.73-8.897-3.73c-3.372,0-6.438,1.281-8.733,3.592
		c-2.409,2.489-3.79,5.658-3.79,8.951c0,3.258,1.306,6.373,3.686,8.742c2.35,2.439,5.499,3.755,8.713,3.755
		c3.373,0,6.458-1.286,8.986-3.715c2.36-2.265,3.601-5.315,3.601-8.663C1131.863,33.718,1130.636,30.623,1128.296,28.274
		L1128.296,28.274z M1129.628,26.978c2.647,2.687,4.153,6.279,4.153,10.108c0,3.949-1.445,7.51-4.192,10.128
		c-2.841,2.747-6.462,4.287-10.213,4.287c-3.875,0-7.441-1.54-10.163-4.342c-2.742-2.762-4.237-6.284-4.237-10.074
		c0-3.815,1.58-7.471,4.376-10.362c2.647-2.652,6.095-4.064,10.024-4.064C1123.24,22.661,1126.841,24.186,1129.628,26.978z
		 M1073.142,137.66l-90.493-0.069l2.787-20.451h90.224l4.831-39.341l-89.671,0.074l2.533-18.528h89.402l4.347-35.402H921.133
		L907.006,139l-56.767-28.92c0,0,15.667-4.486,24.231-10.451c8.927-6.273,12.686-12.473,14.385-15.354
		c3.14-5.345,6.572-11.519,6.969-23.148c0.417-11.971-5.876-20.55-9.254-24.484c-3.407-4.083-11.748-12.88-26.426-12.677H724.346
		l-4.372,34.846h107.513l-2.563,18.816H717.74l-12.374,100.584h65.254l6.356-51.089l122.594,73.949l2.722-22.845h165.867
		L1073.142,137.66L1073.142,137.66z M185.144,23.923c-9.967,0.04-18.819,3.477-25.924,9.045l-0.337,0.065
		c-0.089,0-0.089-0.065-0.089-0.065v0.065c-22.656,17.674-27.571,56.419,4.588,72.325c4.301,2.077,75.386,30.936,75.386,30.936
		l0.143,0.085l-105.989,0.026l-5.147,41.894l130.149-0.049c19.819,0.025,33.465-7.501,42.918-20.858
		c3.393-4.57,5.687-9.12,7.233-13.745c4.913-14.529,3.969-31.066-5.861-39.029c-2.111-1.62-3.939-3.129-5.881-4.282
		c-1.321-0.8-3.539-2.171-5.444-3.089c-16.887-7.997-89.136-38.577-89.136-38.577l111.725-0.035l4.292-34.672L185.144,23.923"/>
</g>
</svg>
