<svg xmlns="http://www.w3.org/2000/svg" viewBox="-9.223 -288.133 1280 800" enable-background="new -9.223 -288.133 1280 800"><g><path d="M703.89 23.967h-77.311m0 0l-13.094 106.51h-20.153l13.292-106.51h-76.199l-9.269 73.656c-1.03 10.104-2.913 28.15 1.078 40.732 8.934 28.19 32.576 38.303 32.576 38.303l2.762 1.5c9.89 5.042 21.252 6.686 31.503 6.686h7.101c18.898-.049 34.307-4.218 46.884-10.525.02-.065.775-.333.775-.333 4.098-2.429 27.405-14.465 41.884-42.983 5.41-10.749 5.836-13.034 8.842-30.425l9.328-76.611M392.775 178.209l6.637-54.095h23.019l.422-.218-6.681 54.298h74.753l18.945-154.247h-74.763l-6.542 53.459-.129-.08h-23.121l-.221.08 6.517-53.459h-74.768l-18.843 154.261 74.775.001zm723.883-147.541v5.36h2.618c2.821 0 4.118-.636 4.118-2.569 0-2.021-1.297-2.792-4.193-2.792h-2.543m9.91 2.476c0 2.3-1.386 3.919-3.755 4.386l3.656 7.466h-3.457l-3.304-6.999h-3.05v6.999h-3.089v-16.388h6.15c4.588 0 6.849 1.575 6.849 4.536zm1.728-4.869c-2.384-2.429-5.484-3.73-8.897-3.73-3.372 0-6.438 1.281-8.733 3.592-2.409 2.489-3.79 5.658-3.79 8.951 0 3.258 1.306 6.373 3.686 8.742 2.35 2.439 5.499 3.755 8.713 3.755 3.373 0 6.458-1.286 8.986-3.715 2.36-2.265 3.601-5.315 3.601-8.663.001-3.488-1.226-6.583-3.566-8.932zm1.332-1.296c2.647 2.687 4.153 6.279 4.153 10.108 0 3.949-1.445 7.51-4.192 10.128-2.841 2.747-6.462 4.287-10.213 4.287-3.875 0-7.441-1.54-10.163-4.342-2.742-2.762-4.237-6.284-4.237-10.074 0-3.815 1.58-7.471 4.376-10.362 2.647-2.652 6.095-4.064 10.024-4.064 3.864.002 7.465 1.527 10.252 4.319zm-56.486 110.682l-90.493-.069 2.787-20.451h90.224l4.831-39.341-89.671.074 2.533-18.528h89.402l4.347-35.402h-165.969l-14.127 115.057-56.767-28.92s15.667-4.486 24.231-10.451c8.927-6.273 12.686-12.473 14.385-15.354 3.14-5.345 6.572-11.519 6.969-23.148.417-11.971-5.876-20.55-9.254-24.484-3.407-4.083-11.748-12.88-26.426-12.677h-135.798l-4.372 34.846h107.513l-2.563 18.816h-107.184l-12.374 100.584h65.254l6.356-51.089 122.594 73.949 2.722-22.845h165.867l4.983-40.567zm-887.998-113.737c-9.967.04-18.819 3.477-25.924 9.045l-.337.065c-.089 0-.089-.065-.089-.065v.065c-22.656 17.674-27.571 56.419 4.588 72.325 4.301 2.077 75.386 30.936 75.386 30.936l.143.085-105.989.026-5.147 41.894 130.149-.049c19.819.025 33.465-7.501 42.918-20.858 3.393-4.57 5.687-9.12 7.233-13.745 4.913-14.529 3.969-31.066-5.861-39.029-2.111-1.62-3.939-3.129-5.881-4.282-1.321-.8-3.539-2.171-5.444-3.089-16.887-7.997-89.136-38.577-89.136-38.577l111.725-.035 4.292-34.672-132.626-.04"/></g></svg>