<?xml version="1.0" encoding="utf-8"?>
<!-- Generator: Adobe Illustrator 17.1.0, SVG Export Plug-In . SVG Version: 6.00 Build 0)  -->
<!DOCTYPE svg PUBLIC "-//W3C//DTD SVG 1.1//EN" "http://www.w3.org/Graphics/SVG/1.1/DTD/svg11.dtd">
<svg version="1.1" xmlns="http://www.w3.org/2000/svg" xmlns:xlink="http://www.w3.org/1999/xlink" x="0px" y="0px"
	 viewBox="-9.223 -288.133 1280 800" enable-background="new -9.223 -288.133 1280 800" xml:space="preserve">
<g id="Layer_1">
	<g>
		<path d="M703.89,23.967h-77.311 M626.579,23.967l-13.094,106.51h-20.153l13.292-106.51h-76.199l-9.269,73.656
			c-1.03,10.104-2.913,28.15,1.078,40.732c8.934,28.19,32.576,38.303,32.576,38.303l2.762,1.5c9.89,5.042,21.252,6.686,31.503,6.686
			h7.101c18.898-0.049,34.307-4.218,46.884-10.525c0.02-0.065,0.775-0.333,0.775-0.333c4.098-2.429,27.405-14.465,41.884-42.983
			c5.41-10.749,5.836-13.034,8.842-30.425l9.328-76.611"/>
		<path d="M392.775,178.209l6.637-54.095h23.019l0.422-0.218l-6.681,54.298h74.753L509.87,23.947h-74.763l-6.542,53.459l-0.129-0.08
			h-23.121l-0.221,0.08l6.517-53.459h-74.768l-18.843,154.261L392.775,178.209z M1116.658,30.668v5.36h2.618
			c2.821,0,4.118-0.636,4.118-2.569c0-2.021-1.297-2.792-4.193-2.792H1116.658 M1126.568,33.143c0,2.3-1.386,3.919-3.755,4.386
			l3.656,7.466h-3.457l-3.304-6.999h-3.05v6.999h-3.089V28.607h6.15C1124.307,28.607,1126.568,30.182,1126.568,33.143
			L1126.568,33.143z M1128.296,28.274c-2.384-2.429-5.484-3.73-8.897-3.73c-3.372,0-6.438,1.281-8.733,3.592
			c-2.409,2.489-3.79,5.658-3.79,8.951c0,3.258,1.306,6.373,3.686,8.742c2.35,2.439,5.499,3.755,8.713,3.755
			c3.373,0,6.458-1.286,8.986-3.715c2.36-2.265,3.601-5.315,3.601-8.663C1131.863,33.718,1130.636,30.623,1128.296,28.274
			L1128.296,28.274z M1129.628,26.978c2.647,2.687,4.153,6.279,4.153,10.108c0,3.949-1.445,7.51-4.192,10.128
			c-2.841,2.747-6.462,4.287-10.213,4.287c-3.875,0-7.441-1.54-10.163-4.342c-2.742-2.762-4.237-6.284-4.237-10.074
			c0-3.815,1.58-7.471,4.376-10.362c2.647-2.652,6.095-4.064,10.024-4.064C1123.24,22.661,1126.841,24.186,1129.628,26.978z
			 M1073.142,137.66l-90.493-0.069l2.787-20.451h90.224l4.831-39.341l-89.671,0.074l2.533-18.528h89.402l4.347-35.402H921.133
			L907.006,139l-56.767-28.92c0,0,15.667-4.486,24.231-10.451c8.927-6.273,12.686-12.473,14.385-15.354
			c3.14-5.345,6.572-11.519,6.969-23.148c0.417-11.971-5.876-20.55-9.254-24.484c-3.407-4.083-11.748-12.88-26.426-12.677H724.346
			l-4.372,34.846h107.513l-2.563,18.816H717.74l-12.374,100.584h65.254l6.356-51.089l122.594,73.949l2.722-22.845h165.867
			L1073.142,137.66L1073.142,137.66z M185.144,23.923c-9.967,0.04-18.819,3.477-25.924,9.045l-0.337,0.065
			c-0.089,0-0.089-0.065-0.089-0.065v0.065c-22.656,17.674-27.571,56.419,4.588,72.325c4.301,2.077,75.386,30.936,75.386,30.936
			l0.143,0.085l-105.989,0.026l-5.147,41.894l130.149-0.049c19.819,0.025,33.465-7.501,42.918-20.858
			c3.393-4.57,5.687-9.12,7.233-13.745c4.913-14.529,3.969-31.066-5.861-39.029c-2.111-1.62-3.939-3.129-5.881-4.282
			c-1.321-0.8-3.539-2.171-5.444-3.089c-16.887-7.997-89.136-38.577-89.136-38.577l111.725-0.035l4.292-34.672L185.144,23.923"/>
	</g>
</g>
<g id="Layer_2" display="none">
	<g display="inline">
		<g>
			<path fill="#050002" d="M364.305,36.426h46.37v10.3h-49.376c-19.105,0-32.274,2.867-39.498,8.586
				c-10.233,5.082-18.104,15.535-23.614,31.344c-1.145,4.512-2.006,10.232-2.576,17.179c0.572,8.588,2.001,16.168,4.295,22.753
				c5.723,13.67,14.882,23.541,27.477,29.619c7.154,3.443,18.607,5.163,34.35,5.163h99.95l-1.538,9.869H349.708
				c-20.968,0-38.285-8.586-51.951-25.764c-4.436-6.366-7.875-14.233-10.308-23.607l-2.574-15.46
				c0-10.805,2.433-22.254,7.298-34.347l5.585-9.017c7.583-11.165,18.604-18.893,33.059-23.188
				C336.111,37.567,347.274,36.426,364.305,36.426z M289.704,151.893c-3.108-4.478-5.692-9.339-7.705-14.466
				c-7.005-17.841-9.621-36.735-4.612-55.444c1.289-4.812,3.028-9.619,5.162-14.124c3.237-6.834,7.671-13.21,12.91-18.647
				c6.72-6.973,14.615-12.355,23.498-16.191c2.529-1.09,5.116-2.057,7.728-2.931c6.114-2.045,12.418-3.053,18.836-3.516
				c1.812-0.131,3.628-0.225,5.442-0.309c4.44-0.198,8.891-0.247,13.335-0.284v10.301V25.981h56.801v31.182l-59.802-0.015
				c-8.066-0.066-16.027,1.222-23.94,2.662c-15.2,2.762-24.772,15.58-29.118,29.715c-5.378,17.487-0.739,38.508,13.535,50.58
				c3.043,2.573,6.566,4.893,10.125,6.695c4.468,2.264,14.87,4.205,29.828,4.118h112.141l-4.79,30.752H349.12
				c-13.332,0-28.486-4.265-39.811-11.181C301.47,165.698,294.865,159.324,289.704,151.893L289.704,151.893z"/>
		</g>
		<g>
			<path fill="#050002" d="M463.291,53.49c10.447-12.448,22.897-18.676,37.352-18.676h0.862v9.552h-0.429
				c-13.813,0-24.403,5.646-31.774,16.954c-3.72,5.134-5.582,13.691-5.582,25.642v84.289h-9.875V34.373h9.447V53.49L463.291,53.49z
				 M443.403,181.666V23.928h30.327v7.326c8.222-4.54,17.334-6.958,26.917-6.892h11.285v30.436h-10.856
				c-8.077,0-15.679,3.15-20.972,9.325c-1.519,1.772-3.008,3.988-3.789,6.203c-1.051,2.978-1.566,6.133-1.872,9.27
				c-0.238,2.446-0.287,4.913-0.287,7.368v94.705h-30.753V181.666z"/>
		</g>
		<g>
			<path fill="#050002" d="M528.75,34.846v57.54c0,19.456,2.574,32.766,7.728,39.927c5.51,10.442,14.669,18.175,27.48,23.181
				c8.085,2.859,15.098,4.298,21.036,4.298h3.438c11.515,0,23.4-4.011,35.637-12.023c13.739-11.739,20.608-27.342,20.608-46.799
				V34.416h9.442v135.683h-9.442v-30.057c-8.018,12.734-20.182,21.754-36.495,27.045c-5.871,2.007-11.451,3.012-16.748,3.012h-2.576
				c-23.257,0-41.004-7.307-53.242-21.898c-7.01-6.297-12.161-16.607-15.457-30.918c-1.143-7.152-1.716-12.592-1.716-16.312V34.846
				L528.75,34.846L528.75,34.846z M528.084,155.442c-9.024-8.473-14.568-20.643-18.094-35.828l-0.088-0.37l-0.046-0.322
				c-1.175-7.454-1.837-13.206-1.85-17.959V24.401h20.746v10.445V24.401h10.43v67.986c0,10.765-0.24,22.832,4.881,32.637
				c3.905,7.477,9.86,13.691,17.226,17.824c1.963,1.1,4.029,2.041,6.147,2.796c7.332,2.617,13.297,3.723,17.561,3.704
				c10.004-0.05,20.12-2.286,28.768-7.467c8.219-4.924,14.358-12.984,17.553-21.964c0.861-2.413,1.497-4.949,1.932-7.474
				c0.643-3.744,0.983-7.677,0.983-11.478V23.978h30.324v156.546h-30.324v-14.696c-6.706,4.721-14.331,8.448-22.687,11.131
				c-6.76,2.305-13.488,3.564-20.116,3.564h-3.155C563.469,180.524,542.325,172.232,528.084,155.442z"/>
		</g>
		<g>
			<path fill="#050002" d="M726.802,34.336H831.22l3.83,9.897H724.654c-14.812,0-24.265,6.03-28.341,18.078
				c-1.148,3.735-1.719,7.032-1.719,9.891c0,7.746,3.296,14.644,9.881,20.668c5.22,3.723,9.804,5.746,13.738,6.031h59.685
				c7.505,0.861,14.09,3.72,19.746,8.608c5.868,5.582,9.45,11.328,10.734,17.214l0.861,5.585v9.036
				c-0.861,7.041-4.149,13.92-9.879,20.661c-4.644,4.442-10.66,7.609-18.031,9.469l-9.445,0.438l-126.717,0.317l-1.142-9.749
				l125.712-0.038c15.745,0,25.474-6.462,29.197-19.361l0.855-6.895c0-10.987-5.436-18.998-16.313-24.102l-7.725-1.718h-54.532
				c-7.581,0.278-14.879-1.881-21.898-6.457c-9.729-8.251-14.596-18.292-14.596-30.136c0-11.043,4.439-20.943,13.312-29.693
				C704.686,36.913,714.279,34.336,726.802,34.336L726.802,34.336z M632.297,150.049l137.439-0.05
				c12.852-0.718,15.947-3.202,18.971-11.296l0.613-4.975c0.61-3.864-1.986-8.631-4.879-10.939
				c-3.235-2.584-7.376-3.639-11.435-3.929c-2.327-0.167-4.653-0.09-6.985-0.078c-6.625,0.031-13.25-0.007-19.875,0.007
				l-4.813,0.003c-9.859,0-20.114,0.746-29.869-0.918c-3.507-0.599-7.117-1.687-10.364-3.147
				c-12.866-5.773-22.411-17.95-25.596-31.651c-0.846-3.647-1.25-7.556-1.211-11.3c0.134-13.235,5.658-27.794,15.889-36.573
				c7.828-6.718,17.577-9.875,27.721-10.886c0.743-0.075,8.901-0.56,8.901-0.429v9.907v-9.907h111.566l11.914,30.771H724.658
				c-3.824,0.198-7.977,0.472-11.497,2.144c-5.438,2.583-8.134,9.685-8.134,15.399c0,6.532,5.062,14.275,11.578,15.925
				c2.352,0.595,4.832,0.348,7.229,0.334c4.232-0.026,8.464-0.003,12.695-0.007c5.323-0.004,10.648-0.035,15.972-0.001
				c5.013,0.031,10.035-0.091,15.047,0.021c4.383,0.097,8.589-0.084,12.969,0.425c7.044,0.811,13.669,3.372,19.544,7.361
				c1.66,1.125,3.253,2.358,4.763,3.679c6.365,5.561,11.62,13.538,13.601,21.786c0.617,2.574,1.112,5.335,1.256,7.98
				c0.169,3.118-0.013,6.29-0.006,9.415c0.015,6.66-3.022,13.752-6.333,19.399c-3.265,5.566-7.583,10.58-13.038,14.086
				c-5.264,3.381-11.657,6.601-17.957,7.263c-3.13,0.328-6.334,0.332-9.478,0.451c-3.523,0.134-7.083,0.046-10.614,0.048
				c-1.837,0-3.673-0.013-5.51-0.006c-2.464,0.009-4.926,0.029-7.389,0.032c-2.562,0.003-5.125,0-7.689,0.009
				c-2.958,0.01-5.915,0.026-8.874,0.031c-3.018,0.006-6.036,0.007-9.052,0.016c-3.237,0.013-6.471,0.028-9.706,0.031
				c-3.218,0.006-6.438,0.009-9.657,0.021c-3.281,0.01-6.563,0.024-9.844,0.031c-3.177,0.004-6.352,0.012-9.528,0.021
				c-3.093,0.012-6.187,0.022-9.283,0.028c-2.887,0.006-5.777,0.013-8.664,0.022c-2.671,0.009-5.344,0.016-8.016,0.021l-7.076,0.019
				c-2.013,0.007-4.026,0.012-6.04,0.016l-4.76,0.012l-3.363,0.009l-1.688,0.006h-0.241L632.297,150.049z"/>
		</g>
		<g>
			<path fill="#050002" d="M849.179,64.377h0.429c6.155-10.946,16.025-19.25,29.623-24.904c7.943-3.716,17.822-5.577,29.622-5.577
				h1.719c12.17,0,25.33,4.58,39.503,13.739c10.16,8.589,16.745,17.321,19.753,26.194c3.432,5.862,5.151,16.027,5.151,30.477v64.835
				h-9.874V102.59c0-26.614-12.312-44.941-36.927-54.955c-5.228-1.785-12.236-2.934-21.037-3.438
				c-14.669,0-28.27,5.013-40.794,15.029l-4.287,4.722c-8.589,10.092-12.883,24.552-12.883,43.37v61.824h-9.881V-15.917h9.881
				v80.294L849.179,64.377z M954.661,179.568v-76.985c-0.514-23.25-8.993-35.943-30.195-45.19c-3.78-1.256-9.788-2.311-17.622-2.768
				c-11.907,0.123-22.64,3.92-33.361,12.252l-3.481,3.839c-6.435,7.533-10.375,19.261-10.391,36.592v72.26h-30.75V-26.349h30.75
				v21.757c0,6.215,0.001,12.43,0,18.644c0,5.423-0.001,10.845,0.001,16.266V35.6c-0.001,0.458-0.272,1.989-0.01,2.383l-0.004,0.32
				c0.007-0.508,3.617-2.364,4.14-2.692c7.571-4.73,15.948-8.172,24.657-10.131c2.69-0.605,5.414-1.067,8.157-1.358
				c4.064-0.43,8.21-0.666,12.296-0.666l1.719-0.015c9.092,0,18.245,2.18,26.622,5.591c8.895,3.622,17.667,8.331,24.701,14.945
				c10.864,10.213,18.924,24.563,21.792,39.21c1.358,6.933,1.726,14.055,1.726,21.11v75.266h-30.749L954.661,179.568z"/>
		</g>
		<g>
			<path fill="#050002" d="M570.746,195.579c2.371,0,4.287,0.385,5.742,1.161c1.453,0.782,2.589,1.882,3.394,3.322
				c0.81,1.441,1.352,3.172,1.638,5.197c0.285,2.028,0.429,4.287,0.429,6.79c0,2.975-0.184,5.564-0.547,7.756
				c-0.364,2.204-0.989,4.02-1.875,5.441c-0.886,1.425-2.073,2.485-3.56,3.177c-1.485,0.702-3.366,1.048-5.645,1.048h-10.777v-33.89
				L570.746,195.579L570.746,195.579z M569.414,224.438c1.203,0,2.169-0.209,2.899-0.613c0.726-0.416,1.303-1.098,1.732-2.05
				c0.426-0.942,0.711-2.192,0.854-3.753c0.143-1.544,0.213-3.475,0.213-5.787c0-1.929-0.065-3.622-0.19-5.073
				c-0.126-1.453-0.388-2.67-0.783-3.636c-0.397-0.962-0.981-1.691-1.756-2.182c-0.777-0.486-1.813-0.733-3.109-0.733h-2.896v23.827
				L569.414,224.438L569.414,224.438z M599.081,195.579c2.846,0,5.06,0.72,6.643,2.158c1.584,1.443,2.376,3.632,2.376,6.581
				c0,2.273-0.461,4.135-1.38,5.57c-0.915,1.438-2.341,2.373-4.268,2.778v0.098c1.707,0.247,2.958,0.808,3.75,1.662
				c0.788,0.849,1.281,2.229,1.471,4.126c0.062,0.635,0.11,1.322,0.143,2.064l0.094,2.493c0.06,1.801,0.157,3.18,0.285,4.132
				c0.187,0.945,0.599,1.597,1.233,1.942v0.285h-7.405c-0.347-0.476-0.567-1.018-0.663-1.64c-0.095-0.617-0.159-1.256-0.19-1.922
				l-0.19-6.502c-0.065-1.333-0.398-2.37-1.001-3.131c-0.601-0.765-1.613-1.143-3.037-1.143h-3.656v14.337h-6.831v-33.89
				L599.081,195.579L599.081,195.579z M596.137,210.387c1.646,0,2.912-0.385,3.795-1.159c0.887-0.776,1.331-2.085,1.331-3.921
				c0-3.131-1.582-4.696-4.746-4.696h-3.231v9.777H596.137z M620.205,219.216c0,0.857,0.054,1.635,0.165,2.352
				c0.109,0.711,0.317,1.325,0.617,1.848c0.303,0.522,0.714,0.937,1.237,1.234c0.519,0.303,1.174,0.451,1.963,0.451
				c0.826,0,1.491-0.148,1.995-0.451c0.507-0.297,0.911-0.713,1.209-1.234c0.303-0.522,0.508-1.136,0.619-1.848
				c0.113-0.716,0.167-1.496,0.167-2.352v-23.638h6.834v23.638c0,2.151-0.301,3.932-0.902,5.342
				c-0.601,1.406-1.408,2.517-2.418,3.341c-1.012,0.829-2.169,1.38-3.465,1.665c-1.299,0.285-2.646,0.426-4.039,0.426
				s-2.733-0.131-4.03-0.381c-1.299-0.251-2.454-0.768-3.465-1.541c-1.012-0.774-1.822-1.875-2.421-3.303
				c-0.604-1.418-0.902-3.275-0.902-5.549v-23.638h6.837L620.205,219.216L620.205,219.216z M649.628,195.579l4.838,23.923h0.094
				l4.888-23.923h10.113v33.89h-6.266v-27.057h-0.094l-6.028,27.057h-5.316l-6.027-27.057h-0.096v27.057h-6.266v-33.89H649.628
				L649.628,195.579z M679.957,219.879c0,0.793,0.065,1.512,0.191,2.166c0.126,0.644,0.364,1.195,0.711,1.635
				c0.348,0.441,0.815,0.789,1.402,1.04c0.583,0.257,1.321,0.381,2.208,0.381c1.042,0,1.986-0.341,2.822-1.023
				c0.838-0.676,1.258-1.731,1.258-3.152c0-0.763-0.101-1.418-0.31-1.972c-0.203-0.554-0.542-1.051-1.017-1.491
				c-0.478-0.453-1.102-0.851-1.876-1.221c-0.773-0.359-1.732-0.733-2.868-1.111c-1.521-0.504-2.834-1.061-3.941-1.656
				c-1.111-0.607-2.035-1.309-2.78-2.116c-0.743-0.808-1.29-1.738-1.635-2.795c-0.353-1.062-0.523-2.294-0.523-3.685
				c0-3.35,0.934-5.852,2.797-7.496c1.87-1.643,4.433-2.476,7.693-2.476c1.515,0,2.916,0.172,4.198,0.504
				c1.28,0.334,2.388,0.868,3.322,1.612c0.936,0.748,1.663,1.691,2.183,2.847c0.525,1.153,0.783,2.54,0.783,4.158v0.942h-6.55
				c0-1.609-0.281-2.852-0.852-3.723c-0.572-0.868-1.519-1.302-2.847-1.302c-0.761,0-1.394,0.106-1.9,0.335
				c-0.507,0.215-0.911,0.516-1.208,0.876c-0.304,0.366-0.513,0.782-0.622,1.255c-0.11,0.475-0.165,0.965-0.165,1.474
				c0,1.04,0.22,1.923,0.666,2.63c0.441,0.711,1.388,1.372,2.847,1.972l5.27,2.285c1.297,0.564,2.354,1.159,3.178,1.781
				c0.823,0.61,1.477,1.275,1.97,1.989c0.491,0.714,0.829,1.491,1.02,2.348c0.19,0.861,0.285,1.806,0.285,2.849
				c0,3.575-1.036,6.177-3.107,7.808c-2.073,1.629-4.962,2.443-8.663,2.443c-3.864,0-6.622-0.832-8.282-2.514
				c-1.663-1.678-2.492-4.082-2.492-7.213v-1.383h6.832L679.957,219.879L679.957,219.879z M729.176,215.753
				c0.22-0.98,0.333-1.837,0.333-2.564h5.889c0,1.834-0.329,3.6-0.976,5.294c-0.648,1.691-1.477,3.269-2.49,4.721l4.461,6.266
				h-7.261l-1.9-2.609c-0.852,1.011-2.001,1.785-3.438,2.324c-1.44,0.535-3.019,0.807-4.727,0.807c-2.119,0-3.86-0.31-5.219-0.923
				c-1.361-0.617-2.421-1.422-3.181-2.398c-0.761-0.981-1.283-2.047-1.568-3.181c-0.281-1.142-0.425-2.189-0.425-3.131
				c0-1.998,0.608-3.794,1.828-5.388c1.217-1.6,2.884-3.063,5.009-4.389l-1.192-1.762c-0.472-0.692-0.861-1.309-1.161-1.848
				c-0.304-0.536-0.529-1.043-0.691-1.519c-0.156-0.479-0.267-0.932-0.329-1.377c-0.066-0.448-0.096-0.902-0.096-1.378
				c0-1.108,0.215-2.095,0.639-2.968c0.429-0.868,1.023-1.612,1.781-2.233c0.761-0.613,1.668-1.092,2.731-1.418
				c1.056-0.332,2.221-0.501,3.485-0.501c1.458,0,2.715,0.181,3.775,0.547c1.059,0.36,1.938,0.871,2.637,1.519
				c0.691,0.652,1.206,1.397,1.541,2.254c0.329,0.857,0.497,1.773,0.497,2.753c0,1.71-0.482,3.24-1.449,4.605
				c-0.964,1.358-2.44,2.753-4.436,4.171l5.079,6.882C728.669,217.582,728.957,216.733,729.176,215.753L729.176,215.753z
				 M715.959,217.463c-0.491,0.882-0.733,1.844-0.733,2.894c0,0.501,0.1,1.026,0.309,1.563c0.204,0.542,0.503,1.018,0.901,1.444
				c0.394,0.426,0.893,0.783,1.493,1.048c0.601,0.272,1.281,0.401,2.044,0.401c1.804,0,3.275-0.705,4.415-2.133l-5.695-8.074
				C717.356,215.63,716.451,216.572,715.959,217.463z M719.351,206.213l0.81,1.137l1.234-1.048c0.76-0.63,1.303-1.259,1.637-1.87
				c0.332-0.622,0.5-1.224,0.5-1.831c0-0.917-0.278-1.624-0.833-2.114c-0.554-0.486-1.272-0.733-2.157-0.733
				c-0.824,0-1.512,0.242-2.066,0.716c-0.552,0.475-0.833,1.152-0.833,2.038C717.641,203.458,718.213,204.687,719.351,206.213
				L719.351,206.213z M761.972,195.579c1.745,0,3.206,0.292,4.393,0.876c1.187,0.592,2.145,1.361,2.872,2.301
				c0.726,0.952,1.25,2.042,1.566,3.259c0.317,1.217,0.475,2.458,0.475,3.719c0,1.74-0.26,3.266-0.783,4.562
				c-0.52,1.294-1.25,2.357-2.18,3.181c-0.934,0.821-2.066,1.437-3.393,1.844c-1.333,0.416-2.805,0.62-4.418,0.62h-3.656v13.529
				h-6.829v-33.89H761.972z M759.888,210.912c1.358,0,2.46-0.411,3.297-1.237c0.836-0.823,1.256-2.105,1.256-3.847
				c0-1.707-0.363-3.005-1.09-3.889c-0.73-0.887-1.945-1.328-3.656-1.328h-2.85v10.303h3.043V210.912z M793.585,201.181h-12.104
				v7.972h11.396v5.596h-11.396v9.121h12.58v5.599H774.65v-33.89h18.935V201.181L793.585,201.181z M810.102,195.579
				c2.849,0,5.062,0.72,6.646,2.158c1.581,1.443,2.373,3.632,2.373,6.581c0,2.273-0.461,4.135-1.38,5.57
				c-0.917,1.438-2.341,2.373-4.268,2.778v0.098c1.707,0.247,2.958,0.808,3.75,1.662c0.788,0.849,1.281,2.229,1.471,4.126
				c0.06,0.635,0.109,1.322,0.143,2.064l0.094,2.493c0.062,1.801,0.157,3.18,0.285,4.132c0.188,0.945,0.599,1.597,1.234,1.942v0.285
				h-7.405c-0.347-0.476-0.569-1.018-0.663-1.64c-0.094-0.617-0.159-1.256-0.191-1.922l-0.188-6.502
				c-0.065-1.333-0.4-2.37-1.001-3.131c-0.601-0.765-1.615-1.143-3.038-1.143h-3.654v14.337h-6.832v-33.89L810.102,195.579
				L810.102,195.579z M807.161,210.387c1.644,0,2.909-0.385,3.794-1.159c0.887-0.776,1.334-2.085,1.334-3.921
				c0-3.131-1.585-4.696-4.749-4.696h-3.229v9.777H807.161z M837.467,201.629c-0.582-1.118-1.651-1.682-3.204-1.682
				c-0.852,0-1.559,0.229-2.11,0.685c-0.555,0.461-0.992,1.202-1.308,2.232c-0.319,1.03-0.538,2.376-0.663,4.033
				c-0.129,1.669-0.191,3.697-0.191,6.103c0,2.559,0.087,4.633,0.263,6.215c0.172,1.582,0.441,2.802,0.804,3.678
				c0.366,0.874,0.823,1.459,1.378,1.756c0.551,0.303,1.196,0.451,1.923,0.451c0.601,0,1.165-0.101,1.685-0.307
				c0.523-0.201,0.974-0.617,1.352-1.237c0.381-0.617,0.683-1.488,0.904-2.609c0.222-1.117,0.333-2.602,0.333-4.436h6.835
				c0,1.834-0.141,3.572-0.426,5.219c-0.288,1.653-0.817,3.085-1.591,4.323c-0.779,1.234-1.869,2.199-3.274,2.894
				c-1.412,0.698-3.238,1.043-5.485,1.043c-2.561,0-4.603-0.416-6.122-1.234c-1.518-0.826-2.683-2.006-3.487-3.562
				c-0.81-1.552-1.328-3.397-1.565-5.552c-0.24-2.154-0.357-4.522-0.357-7.122c0-2.559,0.118-4.925,0.357-7.091
				c0.237-2.169,0.757-4.03,1.565-5.582c0.804-1.547,1.969-2.756,3.487-3.635c1.519-0.868,3.562-1.305,6.122-1.305
				c2.438,0,4.358,0.401,5.771,1.192c1.405,0.786,2.458,1.795,3.154,3.015c0.693,1.217,1.128,2.532,1.305,3.935
				c0.173,1.415,0.262,2.733,0.262,3.97h-6.834C838.349,204.544,838.057,202.752,837.467,201.629L837.467,201.629z M855.764,219.216
				c0,0.857,0.054,1.635,0.167,2.352c0.107,0.711,0.316,1.325,0.614,1.848c0.303,0.522,0.713,0.937,1.237,1.234
				c0.52,0.303,1.177,0.451,1.967,0.451c0.823,0,1.488-0.148,1.994-0.451c0.505-0.297,0.911-0.713,1.209-1.234
				c0.303-0.522,0.505-1.136,0.617-1.848c0.113-0.716,0.166-1.496,0.166-2.352v-23.638h6.836v23.638
				c0,2.151-0.303,3.932-0.907,5.342c-0.598,1.406-1.405,2.517-2.417,3.341c-1.012,0.829-2.167,1.38-3.465,1.665
				c-1.299,0.285-2.643,0.426-4.036,0.426c-1.394,0-2.736-0.131-4.033-0.381c-1.297-0.251-2.452-0.768-3.463-1.541
				c-1.014-0.774-1.82-1.875-2.421-3.303c-0.602-1.418-0.901-3.275-0.901-5.549v-23.638h6.834V219.216z M880.398,219.879
				c0,0.793,0.065,1.512,0.193,2.166c0.125,0.644,0.363,1.195,0.711,1.635c0.347,0.441,0.814,0.789,1.4,1.04
				c0.582,0.257,1.321,0.381,2.208,0.381c1.042,0,1.986-0.341,2.823-1.023c0.84-0.676,1.256-1.731,1.256-3.152
				c0-0.763-0.1-1.418-0.309-1.972c-0.204-0.554-0.542-1.051-1.018-1.491c-0.476-0.453-1.102-0.851-1.875-1.221
				c-0.774-0.359-1.734-0.733-2.87-1.111c-1.519-0.504-2.834-1.061-3.941-1.656c-1.109-0.607-2.035-1.309-2.777-2.116
				c-0.745-0.808-1.293-1.738-1.638-2.795c-0.348-1.062-0.523-2.294-0.523-3.685c0-3.35,0.936-5.852,2.802-7.496
				c1.867-1.643,4.428-2.476,7.689-2.476c1.519,0,2.917,0.172,4.198,0.504c1.28,0.334,2.389,0.868,3.322,1.612
				c0.937,0.748,1.663,1.691,2.186,2.847c0.522,1.153,0.782,2.54,0.782,4.158v0.942h-6.55c0-1.609-0.282-2.852-0.854-3.723
				c-0.572-0.868-1.519-1.302-2.846-1.302c-0.761,0-1.393,0.106-1.9,0.335c-0.505,0.215-0.911,0.516-1.208,0.876
				c-0.304,0.366-0.513,0.782-0.622,1.255c-0.11,0.475-0.163,0.965-0.163,1.474c0,1.04,0.219,1.923,0.664,2.63
				c0.442,0.711,1.388,1.372,2.847,1.972l5.27,2.285c1.299,0.564,2.354,1.159,3.178,1.781c0.824,0.61,1.48,1.275,1.973,1.989
				c0.488,0.714,0.827,1.491,1.017,2.348c0.193,0.861,0.285,1.806,0.285,2.849c0,3.575-1.034,6.177-3.107,7.808
				c-2.072,1.629-4.96,2.443-8.663,2.443c-3.863,0-6.622-0.832-8.282-2.514c-1.663-1.678-2.492-4.082-2.492-7.213v-1.383h6.832
				V219.879L880.398,219.879z M905.033,219.879c0,0.793,0.062,1.512,0.19,2.166c0.125,0.644,0.361,1.195,0.713,1.635
				c0.347,0.441,0.814,0.789,1.4,1.04c0.583,0.257,1.319,0.381,2.207,0.381c1.043,0,1.985-0.341,2.822-1.023
				c0.84-0.676,1.258-1.731,1.258-3.152c0-0.763-0.101-1.418-0.309-1.972c-0.204-0.554-0.545-1.051-1.02-1.491
				c-0.475-0.453-1.102-0.851-1.873-1.221c-0.776-0.359-1.734-0.733-2.872-1.111c-1.518-0.504-2.833-1.061-3.941-1.656
				c-1.109-0.607-2.031-1.309-2.775-2.116c-0.745-0.808-1.293-1.738-1.637-2.795c-0.35-1.062-0.525-2.294-0.525-3.685
				c0-3.35,0.934-5.852,2.8-7.496c1.867-1.643,4.431-2.476,7.689-2.476c1.519,0,2.919,0.172,4.199,0.504
				c1.281,0.334,2.389,0.868,3.323,1.612c0.934,0.748,1.66,1.691,2.186,2.847c0.52,1.153,0.78,2.54,0.78,4.158v0.942h-6.552
				c0-1.609-0.281-2.852-0.852-3.723c-0.57-0.868-1.518-1.302-2.849-1.302c-0.76,0-1.391,0.106-1.898,0.335
				c-0.505,0.215-0.911,0.516-1.209,0.876c-0.303,0.366-0.51,0.782-0.617,1.255c-0.115,0.475-0.168,0.965-0.168,1.474
				c0,1.04,0.22,1.923,0.667,2.63c0.441,0.711,1.388,1.372,2.846,1.972l5.269,2.285c1.3,0.564,2.355,1.159,3.181,1.781
				c0.823,0.61,1.48,1.275,1.97,1.989c0.489,0.714,0.829,1.491,1.018,2.348c0.191,0.861,0.287,1.806,0.287,2.849
				c0,3.575-1.037,6.177-3.108,7.808c-2.073,1.629-4.962,2.443-8.666,2.443c-3.861,0-6.622-0.832-8.281-2.514
				c-1.663-1.678-2.495-4.082-2.495-7.213v-1.383h6.836v0.998L905.033,219.879z M924.491,195.579h6.836v33.89h-6.837
				L924.491,195.579L924.491,195.579z M936.05,205.43c0.237-2.169,0.758-4.03,1.566-5.582c0.805-1.547,1.97-2.756,3.488-3.635
				c1.518-0.868,3.56-1.305,6.122-1.305c2.565,0,4.603,0.436,6.122,1.305c1.518,0.879,2.683,2.088,3.488,3.635
				c0.81,1.552,1.328,3.413,1.566,5.582c0.235,2.166,0.357,4.531,0.357,7.091c0,2.599-0.122,4.968-0.357,7.122
				c-0.238,2.155-0.758,4.002-1.566,5.552c-0.805,1.556-1.97,2.736-3.488,3.562c-1.519,0.818-3.557,1.234-6.122,1.234
				c-2.562,0-4.605-0.416-6.122-1.234c-1.518-0.826-2.683-2.006-3.488-3.562c-0.81-1.552-1.33-3.397-1.566-5.552
				c-0.237-2.154-0.356-4.522-0.356-7.122C935.694,209.961,935.813,207.596,936.05,205.43z M942.694,218.338
				c0.109,1.597,0.332,2.896,0.663,3.892c0.332,0.995,0.808,1.728,1.428,2.182c0.614,0.464,1.431,0.688,2.442,0.688
				c1.011,0,1.828-0.222,2.446-0.688c0.614-0.455,1.09-1.189,1.424-2.182c0.331-0.998,0.554-2.295,0.661-3.892
				c0.113-1.597,0.166-3.539,0.166-5.817c0-2.274-0.053-4.202-0.166-5.786c-0.107-1.582-0.331-2.88-0.661-3.895
				c-0.333-1.012-0.81-1.745-1.424-2.207c-0.619-0.455-1.435-0.685-2.446-0.685c-1.012,0-1.828,0.229-2.442,0.685
				c-0.62,0.461-1.095,1.195-1.428,2.207c-0.332,1.015-0.554,2.313-0.663,3.895c-0.113,1.584-0.168,3.513-0.168,5.786
				C942.526,214.798,942.581,216.74,942.694,218.338z M978.936,218.786h0.096v-23.207h6.263v33.89h-7.783l-8.354-23.736h-0.096
				v23.736h-6.263v-33.89h7.877L978.936,218.786z"/>
		</g>
		<g>
			<path fill="#050002" d="M973.753,40.024c0-6.529,5.292-11.82,11.819-11.822v2.399c-2.604,0-4.95,1.053-6.659,2.761
				c-1.707,1.707-2.759,4.055-2.759,6.66c0,2.605,1.052,4.951,2.759,6.66c1.709,1.707,4.057,2.758,6.659,2.761
				c2.605-0.003,4.953-1.053,6.662-2.761c1.707-1.709,2.759-4.055,2.759-6.66c0-2.605-1.052-4.953-2.759-6.66
				c-1.709-1.707-4.057-2.761-6.662-2.761v-2.399c6.529,0.001,11.822,5.292,11.822,11.822c0,6.528-5.292,11.819-11.822,11.82
				C979.044,51.843,973.753,46.552,973.753,40.024z"/>
			<path fill="#050002" d="M984.921,39.059c0.667,0,1.146-0.125,1.433-0.373c0.292-0.248,0.439-0.658,0.439-1.227
				c0-0.563-0.147-0.967-0.439-1.209c-0.286-0.244-0.766-0.366-1.433-0.366h-1.343v3.175L984.921,39.059 M983.576,41.261v4.684
				h-3.191V33.574h4.872c1.631,0,2.822,0.273,3.581,0.82c0.761,0.547,1.143,1.412,1.143,2.595c0,0.817-0.198,1.488-0.597,2.013
				c-0.391,0.525-0.986,0.912-1.781,1.161c0.436,0.098,0.824,0.326,1.168,0.679c0.347,0.348,0.699,0.879,1.052,1.593l1.732,3.513
				h-3.397l-1.507-3.074c-0.304-0.62-0.614-1.043-0.93-1.268c-0.309-0.226-0.721-0.341-1.242-0.341h-0.904"/>
		</g>
	</g>
</g>
<g id="Layer_3" display="none">
	<g display="inline">
		<path fill-rule="evenodd" clip-rule="evenodd" d="M75.97,67.666l50.122,160.401h43.111l6.014-23.453L131.103,67.666H75.97
			L75.97,67.666z M219.324,67.666l-36.585,117.098L146.142,67.666H219.324L219.324,67.666z"/>
		<path d="M75.97,67.666l50.122,160.401h43.111l6.014-23.453L131.103,67.666H75.97L75.97,67.666z M219.324,67.666l-36.585,117.098
			L146.142,67.666H219.324L219.324,67.666z"/>
		<polygon fill-rule="evenodd" clip-rule="evenodd" points="230.881,67.666 286.02,67.666 286.02,228.067 230.881,228.067 
			230.881,67.666 		"/>
		<path fill-rule="evenodd" clip-rule="evenodd" d="M372.654,67.666h47.617v55.14L372.654,67.666L372.654,67.666z M372.654,228.067
			h47.617v-55.133L372.654,228.067L372.654,228.067z M360.121,67.666h5.017v160.401h-5.017c-39.496,0-63.154-40.698-63.154-80.194
			C296.966,108.377,320.625,67.666,360.121,67.666L360.121,67.666z"/>
		<path d="M372.654,67.666h47.617v55.14L372.654,67.666L372.654,67.666z M372.654,228.067h47.617v-55.133L372.654,228.067
			L372.654,228.067z M360.121,67.666h5.017v160.401h-5.017c-39.496,0-63.154-40.698-63.154-80.194
			C296.966,108.377,320.625,67.666,360.121,67.666L360.121,67.666z"/>
		<path fill="#D71D24" d="M229.299,24.821c0-16.102,13.053-29.155,29.149-29.155c16.109,0,29.161,13.053,29.161,29.155
			s-13.053,29.155-29.162,29.155C242.352,53.975,229.299,40.923,229.299,24.821L229.299,24.821z"/>
		<path fill="#D71D24" d="M673.572,24.821c0-16.102,13.053-29.155,29.161-29.155c16.096,0,29.155,13.053,29.155,29.155
			s-13.058,29.155-29.155,29.155C686.625,53.975,673.572,40.923,673.572,24.821L673.572,24.821z"/>
		<path fill-rule="evenodd" clip-rule="evenodd" d="M541.01,67.666h55.133v160.401H541.01V67.666L541.01,67.666z M603.666,67.666
			h57.638v60.157L603.666,67.666L603.666,67.666z M636.243,117.801v60.142l-32.577-30.071L636.243,117.801L636.243,117.801z"/>
		<path d="M541.01,67.666h55.133v160.401H541.01V67.666L541.01,67.666z M603.666,67.666h57.638v60.157L603.666,67.666
			L603.666,67.666z M636.243,117.801v60.142l-32.577-30.071L636.243,117.801L636.243,117.801z"/>
		<polygon fill-rule="evenodd" clip-rule="evenodd" points="675.16,67.666 730.3,67.666 730.3,228.067 675.16,228.067 
			675.16,67.666 		"/>
		<path fill-rule="evenodd" clip-rule="evenodd" d="M746.496,67.666h55.139v160.401h-55.139V67.666L746.496,67.666z M816.667,67.666
			v80.207h10.028c30.578,0,45.111-16.74,45.111-40.107c0-23.352-14.534-40.1-45.111-40.1H816.667L816.667,67.666z M816.667,228.067
			h65.169l-65.169-80.194V228.067L816.667,228.067z"/>
		<path d="M746.496,67.666h55.139v160.401h-55.139V67.666L746.496,67.666z M816.667,67.666v80.207h10.028
			c30.578,0,45.111-16.74,45.111-40.107c0-23.352-14.534-40.1-45.111-40.1H816.667L816.667,67.666z M816.667,228.067h65.169
			l-65.169-80.194V228.067L816.667,228.067z"/>
		<path fill-rule="evenodd" clip-rule="evenodd" d="M924.394,67.666h55.133l0.001,160.401h-55.134V67.666L924.394,67.666z
			 M916.872,67.666h-32.578v70.178L916.872,67.666L916.872,67.666z M987.049,67.666h32.585v70.178L987.049,67.666L987.049,67.666z"
			/>
		<path d="M924.394,67.666h55.133l0.001,160.401h-55.134V67.666L924.394,67.666z M916.872,67.666h-32.578v70.178L916.872,67.666
			L916.872,67.666z M987.049,67.666h32.585v70.178L987.049,67.666L987.049,67.666z"/>
		<polygon fill-rule="evenodd" clip-rule="evenodd" points="1034.633,228.067 1034.633,67.666 1089.767,67.666 1089.767,135.838 
			1107.311,135.838 1107.311,67.666 1162.451,67.666 1162.451,228.067 1107.311,228.067 1107.311,149.88 1089.767,149.88 
			1089.767,228.067 1034.633,228.067 		"/>
		<path d="M1175.556,68.742c1.686,0,3.329,0.439,4.931,1.304c1.608,0.864,2.857,2.1,3.754,3.708
			c0.897,1.608,1.343,3.283,1.343,5.037c0,1.727-0.446,3.389-1.323,4.985c-0.884,1.596-2.12,2.832-3.71,3.721
			c-1.594,0.877-3.256,1.315-4.996,1.315c-1.741,0-3.403-0.439-4.997-1.315c-1.589-0.89-2.834-2.126-3.717-3.721
			c-0.883-1.596-1.329-3.257-1.329-4.985c0-1.754,0.446-3.429,1.35-5.037c0.902-1.608,2.152-2.844,3.76-3.708
			C1172.226,69.181,1173.868,68.742,1175.556,68.742z M1175.556,70.417c-1.41,0-2.779,0.366-4.109,1.091
			c-1.335,0.717-2.378,1.748-3.129,3.089c-0.752,1.343-1.13,2.738-1.13,4.193c0,1.436,0.365,2.825,1.11,4.147
			c0.737,1.323,1.767,2.352,3.097,3.097c1.329,0.738,2.719,1.103,4.161,1.103c1.441,0,2.831-0.365,4.158-1.103
			c1.331-0.744,2.354-1.774,3.092-3.097c0.737-1.322,1.103-2.711,1.103-4.147c0-1.455-0.378-2.85-1.123-4.193
			c-0.745-1.342-1.795-2.372-3.124-3.089C1178.32,70.783,1176.952,70.417,1175.556,70.417z M1171.149,84.32V73.527h3.708
			c1.272,0,2.187,0.106,2.752,0.305c0.565,0.199,1.019,0.545,1.356,1.037c0.338,0.491,0.504,1.023,0.504,1.582
			c0,0.784-0.279,1.469-0.842,2.046c-0.561,0.585-1.304,0.917-2.234,0.983c0.378,0.161,0.684,0.36,0.917,0.573
			c0.432,0.432,0.964,1.143,1.594,2.153l1.31,2.114h-2.12l-0.965-1.702c-0.749-1.343-1.361-2.181-1.812-2.518
			c-0.32-0.246-0.785-0.379-1.398-0.379h-1.015v4.599H1171.149z M1172.904,78.233h2.1c1.002,0,1.694-0.147,2.053-0.446
			c0.373-0.299,0.552-0.697,0.552-1.19c0-0.318-0.086-0.605-0.266-0.856c-0.178-0.253-0.418-0.439-0.731-0.565
			c-0.312-0.12-0.896-0.186-1.734-0.186h-1.974V78.233z"/>
	</g>
</g>
<g id="Layer_4" display="none">
	<g display="inline">
		<path d="M611.021,95.267c0-6.714,5.444-12.157,12.159-12.157c6.714,0,12.157,5.443,12.157,12.157
			c0,6.716-5.443,12.158-12.157,12.158C616.465,107.426,611.021,101.983,611.021,95.267L611.021,95.267z"/>
		<path d="M591.682,95.267c0,17.395,14.102,31.498,31.498,31.498c17.394,0,31.496-14.102,31.496-31.498
			c0-4.308-0.866-8.417-2.433-12.157h12.202c1.134,3.854,1.742,7.935,1.742,12.157c0,23.752-19.255,43.009-43.007,43.009
			c-23.754,0-43.01-19.257-43.01-43.009c0-4.222,0.609-8.303,1.743-12.157h12.202C592.547,86.851,591.682,90.959,591.682,95.267
			L591.682,95.267z"/>
		<path d="M570.04,95.267c0,29.348,23.791,53.139,53.14,53.139c29.347,0,53.139-23.79,53.139-53.139
			c0-4.182-0.485-8.252-1.398-12.157h11.298c0.756,3.937,1.151,8,1.151,12.157c0,35.451-28.739,64.192-64.19,64.192
			c-35.452,0-64.191-28.741-64.191-64.192c0-4.157,0.395-8.22,1.15-12.157h11.298C570.523,87.015,570.04,91.085,570.04,95.267
			L570.04,95.267z"/>
		<path d="M547.477,95.267c0,41.81,33.892,75.703,75.703,75.703c41.808,0,75.701-33.893,75.701-75.703
			c0-4.139-0.332-8.198-0.972-12.157h10.712c0.561,3.971,0.851,8.03,0.851,12.157c0,47.658-38.636,86.294-86.292,86.294
			c-47.659,0-86.293-38.636-86.293-86.294c0-4.126,0.29-8.186,0.849-12.157h10.712C547.809,87.069,547.477,91.129,547.477,95.267
			L547.477,95.267z"/>
		<path d="M519.388,95.267c0,57.323,46.468,103.791,103.791,103.791c57.321,0,103.789-46.468,103.789-103.791
			c0-4.112-0.238-8.169-0.703-12.157h12.045c0.416,3.994,0.631,8.05,0.631,12.157c0,63.935-51.828,115.763-115.761,115.763
			c-63.935,0-115.763-51.828-115.763-115.763c0-4.106,0.214-8.162,0.63-12.157h12.047C519.627,87.098,519.388,91.156,519.388,95.267
			L519.388,95.267z"/>
		<path d="M496.826,95.267c0,69.784,56.569,126.353,126.354,126.353c69.782,0,126.353-56.569,126.353-126.353
			c0-4.101-0.196-8.157-0.579-12.157h11.562c0.35,4.005,0.528,8.061,0.528,12.157c0,76.141-61.723,137.866-137.864,137.866
			c-76.142,0-137.866-61.725-137.866-137.866c0-4.096,0.179-8.151,0.529-12.157h11.56C497.021,87.111,496.826,91.166,496.826,95.267
			L496.826,95.267z"/>
		<path d="M474.723,95.267c0,81.991,66.465,148.457,148.457,148.457c81.99,0,148.455-66.466,148.455-148.457
			c0-4.092-0.166-8.148-0.491-12.157h11.547c0.301,4.012,0.454,8.066,0.454,12.157c0,88.35-71.618,159.968-159.966,159.968
			c-88.349,0-159.969-71.618-159.969-159.968c0-4.09,0.154-8.144,0.456-12.157h11.547C474.889,87.12,474.723,91.175,474.723,95.267
			L474.723,95.267z"/>
		<path d="M453.081,95.267c0,93.944,76.155,170.098,170.098,170.098c93.942,0,170.096-76.154,170.096-170.098
			c0-4.087-0.144-8.142-0.427-12.157h11.078c0.265,4.018,0.4,8.072,0.4,12.157c0,100.047-81.102,181.149-181.147,181.149
			c-100.048,0-181.15-81.102-181.15-181.149c0-4.085,0.135-8.139,0.401-12.157h11.078C453.225,87.125,453.081,91.181,453.081,95.267
			L453.081,95.267z"/>
		<path d="M431.439,95.267c0,105.897,85.843,191.74,191.74,191.74c105.895,0,191.738-85.843,191.738-191.74
			c0-4.083-0.128-8.137-0.379-12.157h11.071c0.238,4.021,0.359,8.075,0.359,12.157c0,112-90.792,202.791-202.79,202.791
			c-112,0-202.791-90.792-202.791-202.791c0-4.081,0.12-8.135,0.358-12.157h11.072C431.567,87.13,431.439,91.184,431.439,95.267
			L431.439,95.267z"/>
		<path d="M409.797,95.267c0,117.85,95.533,213.383,213.383,213.383c117.848,0,213.381-95.533,213.381-213.383
			c0-4.079-0.115-8.133-0.341-12.157h11.529c0.213,4.025,0.323,8.079,0.323,12.157c0,124.207-100.687,224.894-224.892,224.894
			c-124.208,0-224.894-100.687-224.894-224.894c0-4.077,0.108-8.132,0.323-12.157h11.529
			C409.911,87.134,409.797,91.188,409.797,95.267L409.797,95.267z"/>
		<path d="M605.915-0.971c-0.538,13.066-3.335,23.628-3.335,36.973c4.778,0.642,8.913,1.302,13.9,0
			c20.659-5.508,23.194-28.86,4.309-36.001C610.328-4.011,606.558-1.892,605.915-0.971L605.915-0.971z M753.74-6.53
			c-0.626-0.018-6.543,17.68-6.047,18.068c0.536,0.42,10.114-3.266,12.232-3.89C760.412,6.883,754.452-6.774,753.74-6.53
			L753.74-6.53z M506.67-6.253c-0.834,0.139-4.518,11.937-6.395,18.348c6.517-2.66,12.563-4.536,12.563-4.536
			S507.504-6.392,506.67-6.253L506.67-6.253z M614.811-59.072c-3.198,0.052-8.826,1.564-9.452,2.781V-24.6
			c0.833,0,1.929,0.103,2.78,0C624.333-26.824,638.371-59.489,614.811-59.072L614.811-59.072z M383.516-96.323
			c4.726-0.712,19.807,2.415,26.966,3.057c8.34,0.73,13.101,1.564,23.073,0.835c9.331-0.712,28.994-2.696,30.58-1.113
			c1.028,1.028-4.274,14.178-5.976,19.322c-0.905,2.676-4.937,14.9-5.482,15.329c-1.028,0.806-11.233,0.186-24.385-2.177
			c-9.921-1.789-20.746-2.155-25.733-0.225c-7.731,2.972-10.06,17.565-2.363,22.795c5.473,3.718,14.092,3.407,21.685,5.004
			c22.639,4.727,39.198,16.714,43.923,39.476c9.66-23.561,22.466-52.212,21.128-67.276c-0.748-8.427-8.081-22.842-7.228-24.465
			c0.641-1.217,26.67-11.363,30.58-9.45c3.44,1.666,5.003,10.25,6.672,13.899c6.238,13.673,11.172,29.433,16.68,43.923
			c7.906,20.885,18.782,41.664,28.912,61.158c0.678,1.042,0.8,1.217,1.304-1.32c4.691-24.133,7.523-49.918,9.26-79.299
			c-7.524-1.024-21.128-3.475-21.684-5.003c-0.555-1.529,0.313-2.902,1.286-3.753c10.043-8.983,11.363-18.297,13.588-20.432
			c3.005-3.179,8.253,0.729,32.803-0.696c23.387-1.39,33.221-6.065,38.224-4.725c3.894,1.024,8.602,5.49,11.399,7.922
			c18.643,16.297,18.643,40.934,1.111,61.158c-1.98,2.26-4.812,4.622-6.948,6.673c7.783,2.242,11.832,6.011,15.845,11.12
			c1.946,2.467,4.222,6.238,5.699,9.174c2.05-26.115,1.542-82.859,2.642-84.233c0.716-0.896,5.63-1.668,7.246-1.912
			c15.688-2.328,35.218-7.522,35.009-4.761c0,12.232-2.501,22.153-3.892,32.804c-3.022,22.779-4.449,47.954-4.449,73.391
			c0.61-1.077,10.791-13.5,18.905-37.251c3.197-9.417,12.474-31.518,11.397-42.533c-0.833-8.411-4.811-16.436-6.671-24.881
			c-0.4-1.147,2.431-2.676,4.9-3.266c14.837-3.493,22.256-9.087,25.958-8.271c2.014,0.435,4.188,4.882,5.003,6.673
			c7.888,17.617,13.379,36.887,20.573,55.043c5.838,14.734,13.066,28.459,20.153,42.255c0.68,0.885,1.131-0.036,1.201-0.974
			c1.111-17.879,2.588-40.448-0.227-57.963c-1.876-11.554-5.699-21.457-6.671-33.915c1.962-1.477,6.149-2.763,10.806-3.771
			c9.991-2.137,14.283-3.614,22.137-6.186c1.354-0.435,3.544-0.678,3.336,2.312c-0.087,11.675,9.886,18.227,25.576,47.954
			c8.061,15.307,14.056,24.203,24.602,47.121c0.904,1.98,1.374,2.727,1.391,1.527c0-17.895,0.94-35.999-1.668-52.262
			c-1.789-11.033-4.986-23.334-5.56-25.785c-0.833-3.614-1.163-5.387-0.608-6.914c0.521-1.425,15.533-5.683,29.242-9.643
			c4.795-1.372,5.408,1.176,6.303,3.114c18.353,38.201,10.094,95.351-1.044,139.819c-0.435,1.598-0.896,4.775-3.881,5.522
			c-6.061,1.515-24.086,7.118-31.455,8.682c-1.32,0.278-1.894-0.453-2.519-1.807c-3.96-8.357-7.331-17.028-11.607-25.698
			c-7.037-14.211-19.303-40.273-20.571-40.03c0,18.869,0.487,41.056-0.312,58.17c-0.036,0.867,0.104,2.779-1.356,3.544
			c-1.407,0.747-23.213,6.395-37.529,8.687c-0.469,0.07-2.087,0.696-2.294-1.181c-0.209-1.875-0.139-4.047-0.139-7.435
			c-7.68,5.421-8.371,4.139-12.58-2.224c-7.659-11.581-12.595-24.156-13.343-24.187c-1.782-0.07-14.341,8.041-27.453,11.468
			c-4.406,1.153-14.14,2.887-14.386,3.614c-1.843,5.441-11.989,19.511-14.039,19.599c-2.148,0.092-10.269-10.478-15.706-14.595
			c0.903,5.89-1.773,6.047-4.31,6.393c-15.394,2.032-40.906,8.481-41.7,7.089c-0.875-1.531,0.399-9.661,1.113-14.456
			c0.521-1.755-0.33-1.268-1.948,0.418c-3.248,3.3-8.009,6.584-10.701,7.783c-9.54,4.117-16.94,6.898-26.826,7.922
			c-22.865,2.346-42.564-1.758-60.599-5.493c-1.122-0.232-0.317-2.846-0.56-3.958c-4.17,2.936-8.845,8.045-11.676,6.115
			c-6.551-9.695-10.86-20.831-17.514-30.162c-7.454,3.717-17.22,7.488-25.855,10.146c-4.708,1.443-12.213,2.137-15.567,3.892
			c-1.269,0.66-1.807,2.938-3.492,5.405c-4.344,6.411-10.947,14.126-12.91,13.361c-2.502-0.974-13.049-12.389-18.487-19.322
			c-9.104,5.455-16.35,9.47-26.826,11.677c-29.502,6.15-64.461-2.676-81.732-15.152c-2.554-1.737-1.337-4.326-0.885-5.073
			c4.431-7.524,7.106-9.782,10.338-15.915c2.711-5.178,4.049-9.001,7.228-13.482c0.938-1.479,2.068-0.835,2.866-0.209
			c13.327,10.442,22.918,19.773,47.173,17.583c6.03-0.557,14.804-4.344,16.68-9.451c7.228-19.929-28.252-23.561-41.144-27.244
			c-16.888-4.829-24.412-13.327-28.912-24.046c-0.956-2.26-0.66-10.808,2.711-18.625C366.61-71.739,376.514-95.281,383.516-96.323
			L383.516-96.323z"/>
	</g>
</g>
<g id="Layer_5" display="none">
	<g display="inline">
		<path d="M386.635,132.962c0.008,49.567,25.376,55.024,55.028,55.024c32.208,0.004,53.918-23.758,53.914-57.189
			c-0.008-60.464-76.263-40.864-76.271-76.267c-0.004-16.341,12.524-20.701,25.052-20.701c13.075,0.004,28.332,12.532,28.332,33.776
			l14.71,0.004c-0.004-21.79-14.172-45.758-43.559-45.762c-32.456-0.004-54.658,20.113-54.654,52.568
			c0.017,65.626,73.707,41.125,73.719,76.532c0.004,19.066-14,25.057-26.684,25.057c-13.071,0-31.594-8.177-31.598-43.042h-17.977
			L386.635,132.962z M505.919,104.202c0.017,65.273,40.322,83.464,65.013,83.464c25.427,0.004,66.82-17.632,66.804-83.448
			c-0.013-65.458-41.415-81.262-66.837-81.266C545.938,22.953,505.906,39.017,505.919,104.202z M653.084,184.101h18.166
			l-0.021-93.319c-0.273-1.9,0.547-1.9,1.362-0.269c1.093,1.635,50.95,93.601,50.95,93.601l31.321,0.101l-0.034-158.226
			l-18.25-0.004l0.021,83.876c0,1.635-0.547,1.635-1.635,0l-50.42-83.881l-31.493-0.004l0.034,158.134L653.084,184.101z
			 M956.941,184.139l-0.017-65.816c0-2.451,1.089-3.809,4.355-3.809c11.713,0.004,23.421-0.542,23.421,13.621l0.017,56.012
			l40.036,0.004l-0.013-46.75c-0.551-28.327-23.699-27.785-23.699-30.778c0-2.451,28.866-5.44,28.861-37.581
			c-0.004-29.53-22.13-43.025-48.486-43.029l-64.479-0.008l0.029,158.134l39.973,0.004L956.941,184.139z M769.278,104.235
			c0.013,65.273,40.318,83.464,65.008,83.464c25.422,0.004,66.82-17.624,66.804-83.448c-0.013-65.458-41.411-81.262-66.837-81.266
			C809.288,22.987,769.261,39.05,769.278,104.235z M554.943,103.84c-0.017-58.374,3.254-67.813,16.056-67.813
			c12.352,0,18.792,9.716,18.801,67.817c0.017,66.186-6.794,73.261-19.049,73.261s-15.795-7.084-15.807-73.269V103.84z
			 M818.302,103.878c-0.013-58.374,3.254-67.817,16.056-67.817c12.352,0.004,18.792,9.716,18.805,67.817
			c0.017,66.186-6.79,73.269-19.045,73.261c-12.259,0-15.795-7.084-15.812-73.261L818.302,103.878z M249.114,108.839
			c18.595,3.456,32.674,19.768,32.674,39.367c0.004,22.109-17.914,40.036-40.023,40.027c-22.114,0-40.04-17.926-40.044-40.04
			c-0.004-19.869,14.462-36.353,33.44-39.494V25.58h13.945l0.004,83.258L249.114,108.839z M305.992,184.114v-82.838
			c-18.725-3.355-32.927-19.722-32.927-39.414c-0.004-22.109,17.914-40.036,40.023-40.027c22.114,0.004,40.04,17.931,40.044,40.04
			c0.004,19.785-14.336,36.214-33.192,39.451v82.788h-13.945H305.992z M956.92,95.449l-0.013-50.386
			c0-5.991,1.362-5.991,10.62-5.987c9.535,0,16.884,3.54,16.896,31.047c0.004,26.419-7.353,31.047-16.611,31.047
			C958.013,101.171,956.92,100.897,956.92,95.449L956.92,95.449z M1044.723,48.354c-6.886,0-12.423-5.659-12.423-12.663
			s5.537-12.671,12.423-12.671c6.878,0,12.419,5.663,12.423,12.671C1057.147,42.695,1051.61,48.354,1044.723,48.354z
			 M1029.609,35.691c0,8.349,6.764,15.11,15.114,15.11c8.349,0,15.11-6.76,15.11-15.11s-6.764-15.114-15.11-15.114
			C1036.374,20.578,1029.609,27.342,1029.609,35.691z M1041.381,34.754v-5.377h3.666c1.871,0,3.826,0.282,3.826,2.607
			c0,2.644-2.161,2.771-4.604,2.771h-2.892H1041.381z M1038.69,44.608h2.691v-7.408h2.892l4.885,7.408h2.691l-5.049-7.614
			c2.687-0.286,4.768-1.749,4.763-4.889c0-3.506-2.115-5.175-6.029-5.175h-6.844V44.608"/>
	</g>
</g>
<g id="Layer_6" display="none">
	<g display="inline">
		<path d="M320.35,10.295c-50.15,0-90.805,40.655-90.805,90.807c0,50.144,40.655,90.807,90.805,90.807s90.805-40.661,90.805-90.807
			C411.154,50.952,370.496,10.295,320.35,10.295z M320.35,188.04c-48.015,0-86.935-38.925-86.935-86.935
			c0-48.015,38.92-86.94,86.935-86.94s86.94,38.925,86.94,86.94C407.287,149.114,368.362,188.04,320.35,188.04z M315.356,98.217
			v5.767l4.994,2.885l4.994-2.885v-5.767l-4.994-2.888L315.356,98.217z M293.108,111.817c-2.075,1.195-2.788,3.847-1.588,5.928
			c1.2,2.072,3.853,2.786,5.931,1.588l10.605-6.12v-5.016l-4.34-2.505L293.108,111.817z M324.689,84.4V72.153
			c0-2.401-1.942-4.34-4.34-4.34c-2.395,0-4.34,1.942-4.34,4.34V84.4l4.34,2.505L324.689,84.4z M320.35,23.971
			c-42.597,0-77.131,34.534-77.131,77.134c0,42.597,34.534,77.128,77.131,77.128s77.131-34.529,77.131-77.128
			S362.944,23.971,320.35,23.971z M382.262,138.314l-19.072-3.567l-0.668-0.249c-0.648-0.377-1.028-1.028-1.084-1.721
			c-0.173-2.129-1.35-4.136-3.34-5.28c-1.767-1.028-3.805-1.149-5.591-0.527v0.006c-4.538,1.591-9.719,1.271-14.208-1.322
			l-5.653-3.261v37.113h-7.955v-41.708l-4.34-2.505l-4.34,2.511v41.702h-7.955v-37.113l-5.653,3.261
			c-4.49,2.593-9.67,2.913-14.208,1.322v-0.006c-1.786-0.626-3.825-0.504-5.594,0.527c-1.987,1.144-3.168,3.151-3.34,5.28
			c-0.057,0.691-0.436,1.345-1.084,1.721l-0.665,0.249l-19.078,3.567c-0.546,0.116-1.13-0.133-1.427-0.643
			c-0.297-0.515-0.215-1.138,0.156-1.56l12.629-14.741l0.552-0.453c0.64-0.371,1.398-0.377,2.027-0.076
			c1.931,0.917,4.261,0.9,6.248-0.249c1.766-1.022,2.893-2.726,3.244-4.583h-0.003c0.889-4.728,3.754-9.05,8.246-11.644l5.653-3.261
			l-32.139-18.56l3.98-6.89l36.114,20.853l4.34-2.508v-5.011l-36.114-20.85l3.977-6.89l32.139,18.557v-6.531
			c0-5.183,2.313-9.832,5.965-12.96c1.438-1.234,2.347-3.06,2.347-5.104c0-2.296-1.152-4.32-2.907-5.534h-0.003
			c-0.569-0.393-0.946-1.05-0.946-1.798l0.116-0.705l6.452-18.302c0.176-0.532,0.679-0.914,1.271-0.914
			c0.592,0,1.096,0.382,1.274,0.914l6.446,18.302l0.116,0.705c0,0.747-0.374,1.404-0.946,1.798
			c-1.755,1.214-2.905,3.239-2.905,5.534c0,2.044,0.906,3.87,2.344,5.104c3.652,3.128,5.962,7.777,5.962,12.96v6.531l32.142-18.557
			l3.977,6.89l-36.12,20.85v5.011l4.343,2.508l36.117-20.853l3.975,6.89l-32.139,18.56l5.653,3.261
			c4.49,2.593,7.36,6.916,8.244,11.644c0.348,1.857,1.475,3.561,3.244,4.583c1.987,1.149,4.317,1.166,6.245,0.249
			c0.628-0.297,1.384-0.294,2.033,0.076l0.546,0.453l12.629,14.741c0.371,0.419,0.453,1.045,0.156,1.56
			C383.394,138.181,382.811,138.431,382.262,138.314z M347.592,111.817l-10.605-6.126l-4.343,2.511v5.011l10.607,6.12
			c2.075,1.2,4.728,0.487,5.928-1.588C350.377,115.667,349.667,113.012,347.592,111.817z M899.188,83.437h-29.011V25.432h-26.5
			v151.344h26.5v-66.462h29.011v66.462h27.092V25.432h-27.092L899.188,83.437z M491.215,25.432l-20.023,58.96l-18.118-58.96h-26.438
			l29.422,92.8v58.543h29.433v-61.558l30.5-89.785H491.215z M669.572,97.422l-14.726-71.99h-41.377v151.344h23.726V62.686
			l20.255,99.178h22.158L697.57,61.084v115.691h27.817V25.432h-43.115L669.572,97.422z M1007.032,25.432h-40.978l-27.667,151.347
			h24.536l5.868-35.219h30.509l5.693,35.219h27.016L1007.032,25.432z M972.996,116.324l11.276-67.682l10.944,67.682H972.996z
			 M765.161,25.432l-27.667,151.347h24.536l5.866-35.219h30.509l5.699,35.219h27.01L806.147,25.432H765.161z M772.099,116.324
			l11.287-67.682l10.939,67.682H772.099z M534.95,25.432l-27.661,151.347h24.533l5.866-35.219h30.509l5.699,35.219h27.013
			L575.936,25.432H534.95L534.95,25.432z M541.892,116.324l11.281-67.682l10.944,67.682H541.892z"/>
	</g>
</g>
</svg>
