<?xml-stylesheet type="text/css" href="../../styles/main.min.css" ?><svg xmlns="http://www.w3.org/2000/svg" viewBox="-9.223 -288.133 1280 800" enable-background="new -9.223 -288.133 1280 800"><path d="M148.759 167.661h-50.902c-3.579 0-6.436-1.096-8.57-3.29-2.137-2.19-3.203-5.077-3.203-8.656 0-3.463 1.095-6.29 3.29-8.484 2.191-2.191 5.021-3.289 8.484-3.289h53.673v-8.657h-38.957c-7.388 0-13.651-2.567-18.786-7.705-5.138-5.135-7.705-11.397-7.705-18.786v-2.77c0-7.386 2.567-13.648 7.705-18.786 5.135-5.135 11.397-7.705 18.786-7.705h50.903c3.463 0 6.29 1.098 8.484 3.29 2.191 2.194 3.29 5.021 3.29 8.484s-1.098 6.292-3.29 8.484c-2.194 2.194-5.021 3.29-8.484 3.29h-53.673v8.484h38.784c7.385 0 13.678 2.57 18.872 7.705 5.194 5.138 7.791 11.4 7.791 18.786v3.116c0 7.388-2.57 13.65-7.705 18.785-5.138 5.137-11.401 7.704-18.787 7.704zm94.188 0h-36.013c-7.388 0-13.651-2.597-18.786-7.791-5.138-5.194-7.705-11.484-7.705-18.872v-34.975c0-7.386 2.567-13.648 7.705-18.786 5.135-5.135 11.397-7.705 18.786-7.705h36.013c7.385 0 13.678 2.57 18.872 7.705 5.194 5.137 7.791 11.4 7.791 18.786v34.975c0 7.388-2.597 13.678-7.791 18.872s-11.486 7.791-18.872 7.791zm2.77-64.407h-41.554v40.514h41.554v-40.514zm106.481 64.407c-3.579 0-6.465-1.096-8.657-3.29-2.194-2.19-3.29-5.077-3.29-8.656v-52.461h-41.727v52.461c0 3.579-1.098 6.466-3.29 8.656-2.194 2.194-5.081 3.29-8.657 3.29-3.579 0-6.436-1.096-8.57-3.29-2.137-2.19-3.203-5.077-3.203-8.656v-49.691c0-7.386 2.567-13.648 7.705-18.786 5.135-5.135 11.397-7.705 18.786-7.705h36.013c7.385 0 13.678 2.57 18.872 7.705 5.194 5.137 7.791 11.4 7.791 18.786v49.691c0 3.463-1.098 6.319-3.29 8.57-2.193 2.251-5.02 3.376-8.483 3.376zm31.684-96.785c-3.579 0-6.752-1.066-9.523-3.203-2.77-2.134-4.155-4.935-4.155-8.397 0-3.463 1.385-6.26 4.155-8.397 2.771-2.134 5.944-3.203 9.523-3.203 3.576 0 6.779 1.069 9.609 3.203 2.827 2.137 4.242 4.935 4.242 8.397 0 3.462-1.415 6.263-4.242 8.397-2.83 2.137-6.033 3.203-9.609 3.203zm0 96.785c-3.809 0-7.042-1.039-9.696-3.116-2.657-2.078-3.982-4.962-3.982-8.657v-64.408c0-3.692 1.326-6.549 3.982-8.57 2.654-2.018 5.887-3.03 9.696-3.03s6.982.925 9.522 2.77c2.884 2.194 4.329 5.138 4.329 8.83v64.408c0 3.695-1.358 6.579-4.069 8.657-2.713 2.077-5.973 3.116-9.782 3.116zm96.437 0h-50.903c-7.272 0-13.505-2.597-18.699-7.791s-7.791-11.484-7.791-18.872v-35.148c0-7.385 2.567-13.618 7.705-18.699 5.135-5.078 11.397-7.618 18.786-7.618h50.903c3.463 0 6.29 1.098 8.484 3.29 2.191 2.194 3.29 5.021 3.29 8.484s-1.098 6.292-3.29 8.484c-2.194 2.194-5.021 3.29-8.484 3.29h-53.673v40.861h53.673c3.463 0 6.29 1.098 8.484 3.289 2.191 2.194 3.29 5.021 3.29 8.484s-1.098 6.319-3.29 8.57c-2.195 2.251-5.022 3.376-8.485 3.376zm125.353.173h-36.013c-7.272 0-13.505-2.567-18.699-7.704-5.194-5.135-7.791-11.341-7.791-18.613v-17.66c0-3.463 1.095-6.26 3.29-8.396 2.191-2.135 5.078-3.204 8.657-3.204 3.577 0 6.434 1.069 8.57 3.204 2.135 2.137 3.203 4.934 3.203 8.396v20.604h41.554v-41.899h-53.5c-3.117 0-5.86-1.125-8.224-3.376-2.367-2.251-3.549-4.935-3.549-8.051v-31.686c0-3.576 1.095-6.406 3.29-8.484 2.191-2.078 5.078-3.116 8.657-3.116 3.577 0 6.434 1.039 8.57 3.116 2.135 2.078 3.203 4.908 3.203 8.484v20.084h38.784c7.501 0 13.821 2.454 18.958 7.358 5.135 4.907 7.705 10.994 7.705 18.266v36.359c0 7.389-2.597 13.622-7.791 18.699-5.196 5.082-11.488 7.619-18.874 7.619zm94.361-.173h-50.73c-3.116 0-5.859-1.212-8.224-3.636-2.367-2.424-3.55-5.194-3.55-8.311v-32.724c0-3.116 1.183-5.857 3.55-8.225 2.364-2.364 5.107-3.549 8.224-3.549h32.724c3.576 0 6.463 1.068 8.657 3.203 2.191 2.137 3.289 4.994 3.289 8.57 0 3.579-1.098 6.466-3.289 8.657-2.194 2.193-5.081 3.289-8.657 3.289h-20.777v9.004h41.554v-40.859h-53.501c-3.579 0-6.436-1.066-8.57-3.203-2.137-2.134-3.203-4.991-3.203-8.57 0-3.577 1.066-6.433 3.203-8.57 2.135-2.135 4.991-3.203 8.57-3.203h50.73c7.386 0 13.678 2.57 18.872 7.705 5.194 5.137 7.791 11.4 7.791 18.786v34.975c0 7.388-2.597 13.678-7.791 18.872s-11.486 7.789-18.872 7.789zm109.251 0h-50.904c-7.271 0-13.505-2.597-18.698-7.791-5.194-5.194-7.792-11.484-7.792-18.872v-35.148c0-7.385 2.567-13.618 7.705-18.699 5.135-5.078 11.397-7.618 18.785-7.618h50.903c3.463 0 6.29 1.098 8.484 3.29 2.19 2.194 3.289 5.021 3.289 8.484s-1.099 6.292-3.289 8.484c-2.194 2.194-5.021 3.29-8.484 3.29h-53.673v40.861h53.673c3.463 0 6.29 1.098 8.484 3.289 2.19 2.194 3.289 5.021 3.289 8.484s-1.099 6.319-3.289 8.57c-2.193 2.251-5.02 3.376-8.483 3.376zm94.014 0c-3.579 0-6.466-1.065-8.657-3.203-2.194-2.135-3.29-4.991-3.29-8.57v-21.123h-41.38v21.123c0 3.579-1.099 6.436-3.29 8.57-2.194 2.138-5.08 3.203-8.657 3.203-3.579 0-6.436-1.065-8.57-3.203-2.137-2.135-3.203-4.991-3.203-8.57v-96.785c0-3.576 1.066-6.406 3.203-8.484 2.135-2.078 4.991-3.116 8.57-3.116 3.577 0 6.463 1.039 8.657 3.116 2.191 2.078 3.29 4.908 3.29 8.484v52.288h17.66v-20.257c0-3.463 1.096-6.26 3.289-8.397 2.191-2.135 5.021-3.203 8.484-3.203 3.576 0 6.463 1.039 8.657 3.116 2.19 2.078 3.289 4.908 3.289 8.484v20.257c6.826 0 12.171 1.904 16.04 5.714 5.118 5.08 7.681 11.254 7.681 18.525v20.258c0 3.463-1.099 6.293-3.29 8.483-2.193 2.195-5.021 3.29-8.483 3.29zm30.993 0c-3.81 0-7.042-1.039-9.696-3.116-2.656-2.078-3.982-4.962-3.982-8.657v-96.612c0-3.693 1.386-6.636 4.155-8.83 2.538-1.845 5.714-2.771 9.523-2.771 3.809 0 6.982.925 9.522 2.771 2.884 2.194 4.328 5.137 4.328 8.83v96.612c0 3.695-1.357 6.579-4.068 8.657-2.714 2.077-5.974 3.116-9.782 3.116zm33.76-96.785c-3.579 0-6.752-1.066-9.522-3.203-2.771-2.134-4.155-4.935-4.155-8.397 0-3.463 1.385-6.26 4.155-8.397 2.771-2.134 5.943-3.203 9.522-3.203 3.577 0 6.78 1.069 9.609 3.203 2.827 2.137 4.242 4.935 4.242 8.397 0 3.462-1.415 6.263-4.242 8.397-2.828 2.137-6.031 3.203-9.609 3.203zm0 96.785c-3.809 0-7.042-1.039-9.695-3.116-2.657-2.078-3.982-4.962-3.982-8.657v-64.408c0-3.692 1.325-6.549 3.982-8.57 2.653-2.018 5.887-3.03 9.695-3.03 3.81 0 6.982.925 9.523 2.77 2.884 2.194 4.328 5.138 4.328 8.83v64.408c0 3.695-1.358 6.579-4.068 8.657-2.713 2.077-5.973 3.116-9.783 3.116zm96.438 0c-3.579 0-6.466-1.096-8.657-3.29-2.193-2.19-3.289-5.077-3.289-8.656v-52.461h-41.727v52.461c0 3.579-1.099 6.466-3.29 8.656-2.194 2.194-5.08 3.29-8.657 3.29-3.579 0-6.436-1.096-8.57-3.29-2.137-2.19-3.203-5.077-3.203-8.656v-49.691c0-7.386 2.567-13.648 7.705-18.786 5.135-5.135 11.397-7.705 18.785-7.705h36.014c7.386 0 13.678 2.57 18.872 7.705 5.194 5.137 7.791 11.4 7.791 18.786v49.691c0 3.463-1.099 6.319-3.289 8.57-2.195 2.251-5.022 3.376-8.485 3.376zm106.134-43.63c0 3.116-1.185 5.887-3.549 8.311-2.367 2.424-5.108 3.636-8.225 3.636h-32.896c-3.463 0-6.292-1.125-8.483-3.376-2.194-2.251-3.29-5.107-3.29-8.57s1.096-6.29 3.29-8.484c2.191-2.191 5.021-3.29 8.483-3.29h20.95v-9.176h-41.727v40.861h53.673c3.463 0 6.29 1.098 8.484 3.289 2.19 2.194 3.289 5.021 3.289 8.484s-1.099 6.319-3.289 8.57c-2.194 2.251-5.021 3.376-8.484 3.376h-50.903c-7.388 0-13.65-2.597-18.785-7.791-5.138-5.194-7.705-11.484-7.705-18.872v-35.149c0-7.385 2.567-13.618 7.705-18.699 5.135-5.078 11.397-7.618 18.785-7.618h35.321c7.964 0 14.483 2.51 19.564 7.531 5.078 5.021 7.675 11.341 7.791 18.959v18.008z"/></svg>
