<svg xmlns="http://www.w3.org/2000/svg" version="1" width="206" height="42"><path d="M44.928 27.794c.002 11.79 6.036 13.088 13.089 13.088 7.661.001 12.825-5.651 12.824-13.603-.002-14.382-18.14-9.72-18.142-18.141-.001-3.887 2.979-4.924 5.959-4.924 3.11.001 6.739 2.981 6.739 8.034l3.499.001c-.001-5.183-3.371-10.884-10.361-10.885-7.72-.001-13.001 4.784-13 12.504.004 15.61 17.532 9.782 17.535 18.204.001 4.535-3.33 5.96-6.347 5.96-3.109 0-7.515-1.945-7.516-10.238h-4.276zm28.373-6.841c.004 15.526 9.591 19.853 15.464 19.853 6.048.001 15.894-4.194 15.89-19.849-.003-15.57-9.851-19.329-15.898-19.33-5.937 0-15.459 3.821-15.456 19.326zm35.005 19.005h4.321l-.005-22.197c-.065-.452.13-.452.324-.064.26.389 12.119 22.264 12.119 22.264l7.45.024-.008-37.636-4.341-.001.005 19.951c0 .389-.13.389-.389 0l-11.993-19.952-7.491-.001.008 37.614zm72.276.009l-.004-15.655c0-.583.259-.906 1.036-.906 2.786.001 5.571-.129 5.571 3.24l.004 13.323 9.523.001-.003-11.12c-.131-6.738-5.637-6.609-5.637-7.321 0-.583 6.866-1.294 6.865-8.939-.001-7.024-5.264-10.234-11.533-10.235l-15.337-.002.007 37.614 9.508.001zm-44.638-19.006c.003 15.526 9.59 19.853 15.463 19.853 6.047.001 15.894-4.192 15.89-19.849-.003-15.57-9.85-19.329-15.898-19.33-5.938 0-15.459 3.821-15.455 19.326zm-50.982-.094c-.004-13.885.774-16.13 3.819-16.13 2.938 0 4.47 2.311 4.472 16.131.004 15.743-1.616 17.426-4.531 17.426-2.915 0-3.757-1.685-3.76-17.428zm62.643.009c-.003-13.885.774-16.131 3.819-16.131 2.938.001 4.47 2.311 4.473 16.131.004 15.743-1.615 17.428-4.53 17.426-2.916 0-3.757-1.685-3.761-17.426zm-135.388 1.18c4.423.822 7.772 4.702 7.772 9.364.001 5.259-4.261 9.523-9.52 9.521-5.26 0-9.524-4.264-9.525-9.524-.001-4.726 3.44-8.647 7.954-9.394v-19.771h3.317l.001 19.804zm13.529 17.905v-19.704c-4.454-.798-7.832-4.691-7.832-9.375-.001-5.259 4.261-9.523 9.52-9.521 5.26.001 9.524 4.265 9.525 9.524.001 4.706-3.41 8.614-7.895 9.384v19.692h-3.317zm154.831-21.09l-.003-11.985c0-1.425.324-1.425 2.526-1.424 2.268 0 4.016.842 4.019 7.385.001 6.284-1.749 7.385-3.951 7.385-2.331 0-2.591-.065-2.591-1.361zm20.885-11.202c-1.638 0-2.955-1.346-2.955-3.012s1.317-3.014 2.955-3.014c1.636 0 2.954 1.347 2.955 3.014 0 1.666-1.317 3.012-2.955 3.012zm-3.595-3.012c0 1.986 1.609 3.594 3.595 3.594 1.986 0 3.594-1.608 3.594-3.594 0-1.986-1.609-3.595-3.594-3.595-1.986 0-3.595 1.609-3.595 3.595zm2.8-.223v-1.279h.872c.445 0 .91.067.91.62 0 .629-.514.659-1.095.659h-.688zm-.64 2.344h.64v-1.762h.688l1.162 1.762h.64l-1.201-1.811c.639-.068 1.134-.416 1.133-1.163 0-.834-.503-1.231-1.434-1.231h-1.628v4.205" fill-rule="evenodd" fill="#b3b3b3"/></svg>