<svg xmlns="http://www.w3.org/2000/svg" viewBox="-9.223 -38.133 1280 300" enable-background="new -9.223 -38.133 1280 300"><path d="M386.635 140.423c.008 49.567 25.376 55.024 55.028 55.024 32.208.004 53.918-23.758 53.914-57.189-.008-60.464-76.263-40.864-76.271-76.267-.004-16.341 12.524-20.701 25.052-20.701 13.075.004 28.332 12.532 28.332 33.776l14.71.004c-.004-21.79-14.172-45.758-43.559-45.762-32.456-.004-54.658 20.113-54.654 52.568.017 65.626 73.707 41.125 73.719 76.532.004 19.066-14 25.057-26.684 25.057-13.071 0-31.594-8.177-31.598-43.042h-17.989zm119.284-28.76c.017 65.273 40.322 83.464 65.013 83.464 25.427.004 66.82-17.632 66.804-83.448-.013-65.458-41.415-81.262-66.837-81.266-24.961.001-64.993 16.065-64.98 81.25zm147.165 79.899h18.166l-.021-93.319c-.273-1.9.547-1.9 1.362-.269 1.093 1.635 50.95 93.601 50.95 93.601l31.321.101-.034-158.226-18.25-.004.021 83.876c0 1.635-.547 1.635-1.635 0l-50.42-83.881-31.493-.004.034 158.134-.001-.009zm303.857.038l-.017-65.816c0-2.451 1.089-3.809 4.355-3.809 11.713.004 23.421-.542 23.421 13.621l.017 56.012 40.036.004-.013-46.75c-.551-28.327-23.699-27.785-23.699-30.778 0-2.451 28.866-5.44 28.861-37.581-.004-29.53-22.13-43.025-48.486-43.029l-64.479-.008.029 158.134 39.973.004.002-.004zm-187.663-79.904c.013 65.273 40.318 83.464 65.008 83.464 25.422.004 66.82-17.624 66.804-83.448-.013-65.458-41.411-81.262-66.837-81.266-24.965.001-64.992 16.065-64.975 81.25zm-214.335-.395c-.017-58.374 3.254-67.813 16.056-67.813 12.352 0 18.792 9.716 18.801 67.817.017 66.186-6.794 73.261-19.049 73.261s-15.795-7.084-15.807-73.269v.004zm263.359.038c-.013-58.374 3.254-67.817 16.056-67.817 12.352.004 18.792 9.716 18.805 67.817.017 66.186-6.79 73.269-19.045 73.261-12.259 0-15.795-7.084-15.812-73.261h-.004zm-569.188 4.961c18.595 3.456 32.674 19.768 32.674 39.367.004 22.109-17.914 40.036-40.023 40.027-22.114 0-40.04-17.926-40.044-40.04-.004-19.869 14.462-36.353 33.44-39.494v-83.12h13.945l.004 83.258.004.002zm56.878 75.275v-82.838c-18.725-3.355-32.927-19.722-32.927-39.414-.004-22.109 17.914-40.036 40.023-40.027 22.114.004 40.04 17.931 40.044 40.04.004 19.785-14.336 36.214-33.192 39.451v82.788h-13.948zm650.928-88.665l-.013-50.386c0-5.991 1.362-5.991 10.62-5.987 9.535 0 16.884 3.54 16.896 31.047.004 26.419-7.353 31.047-16.611 31.047-9.799 0-10.892-.273-10.892-5.721zm87.803-47.095c-6.886 0-12.423-5.659-12.423-12.663s5.537-12.671 12.423-12.671c6.878 0 12.419 5.663 12.423 12.671.001 7.004-5.536 12.663-12.423 12.663zm-15.114-12.663c0 8.349 6.764 15.11 15.114 15.11 8.349 0 15.11-6.76 15.11-15.11s-6.764-15.114-15.11-15.114c-8.349 0-15.114 6.765-15.114 15.114zm11.772-.937v-5.377h3.666c1.871 0 3.826.282 3.826 2.607 0 2.644-2.161 2.771-4.604 2.771h-2.892.004zm-2.691 9.854h2.691v-7.408h2.892l4.885 7.408h2.691l-5.049-7.614c2.687-.286 4.768-1.749 4.763-4.889 0-3.506-2.115-5.175-6.029-5.175h-6.844v17.678"/></svg>