<?xml-stylesheet type="text/css" href="../../styles/main.min.css" ?><svg xmlns="http://www.w3.org/2000/svg" viewBox="-9.223 -288.133 1280 800" enable-background="new -9.223 -288.133 1280 800"><path d="M171.392-4.233c-.084 13.356-.23 26.712-.238 40.067-.016 25.608-.026 51.216.197 76.822.02 2.354 1.216 5.123 2.746 6.971 10.423 12.587 15.227 27.117 12.521 43.038-2.578 15.164-10.899 27.684-22.464 38.013-10.331 9.226-22.845 14.078-35.574 18.613-1.296.462-2.58.96-4.096 1.527l-.917 6.708h-9.315l-.501-7.069c-28.872-3.202-54.094-12.925-69.009-39.654-7.107-12.736-10.641-26.682-10.252-41.834h8.545c.291 28.55 13.594 49.813 38.196 63.914 9.818 5.627 20.782 7.421 32.439 7.489v-9.991c-24.259-.193-41.797-12.044-53.648-32.625-5.179-8.995-7.35-18.995-7.399-29.718h30.196c5.587 29.141 15.669 29.317 29.651 28.159v-21.501c-2.506.177-4.81.464-7.116.479-6.322.041-10.343-2.927-12.041-8.733-2.045-6.992-.436-13.043 4.896-16.132 6.694-3.877 16.476-4.702 23.466 1.145 3.554 2.973 5.362 6.665 5.389 11.226.058 9.602.042 19.205.069 28.808.003 1.069.09 2.137.167 3.847 4.415-1.419 7.964-3.686 9.257-7.474 1.943-5.692 3.528-11.692 3.989-17.66.66-8.548.168-17.184.168-25.43-3.733-3.096-7.303-5.754-10.527-8.781-20.118-18.888-22.883-46.461-2.112-69.024 11.648-12.652 24.532-24.164 36.773-36.277 1.36-1.346 2.149-3.269 3.203-4.924l3.341.001zm1.181 142.952c1.23 35.538-20.232 51.739-49.082 61.982v7.997c11.232 3.416 36.329-12.004 45.407-27.283 8.982-15.118 10.765-34.169 3.675-42.696zm-31.477-45.58v-46.673c-7.333 2.142-16.156 15.181-15.931 23.462.241 8.921 7.004 20.235 15.931 23.211zm693.637 60.074c2.918 1.362 6.044 2.822 9.17 4.282l-.476 1.368h-21.749l5.211-5.559v-94.616l-5.064-4.917.827-1.04h39.454c6.721 17.718 13.415 35.367 20.11 53.016l1.761-.008c6.253-17.871 12.505-35.741 18.771-53.651h40.571l.612 4.077c-6.989.291-6.722 5.011-6.702 9.877.107 25.601.091 51.203.117 76.805.003 2.766-.199 5.551.079 8.288.139 1.372.984 2.768 1.808 3.945.731 1.044 1.874 1.8 2.492 3.698h-45.294l4.916-4.759v-75.632l-1.308-.41c-9.248 26.762-18.497 53.523-27.902 80.739l-5.653.696c-10.22-27.528-20.358-54.833-30.497-82.139l-1.255.333c.001 24.915.001 49.83.001 75.607zm-252.618 1.566l5.39 4.916h-41.494l4.612-4.973v-89.164l-5.459-3.01c1.194-1.128 1.91-2.301 2.926-2.688 10.731-4.084 21.509-8.046 32.28-12.026.496-.183 1.047-.218 2.326-.472v39.967c6.25-1.409 11.81-2.822 17.436-3.892 8.227-1.565 16.073-.277 22.973 4.565 4.607 3.233 6.587 8.14 6.605 13.73.051 15.45.03 30.901.038 46.351v5.018l5.949 6.575h-40.938c.353-1.011.39-2.189.978-2.626 3.521-2.614 3.549-6.233 3.505-10.107-.179-15.585-.183-31.172-.284-46.758-.029-4.437-2.217-6.679-6.547-6.877-6.546-.3-10.183 1.507-10.223 5.807-.171 18.635-.073 37.272-.073 55.664zm-354.513 9.126v-34.833l.938-.78c.93 1.054 2.275 1.958 2.723 3.188 3.268 8.975 7.036 17.673 15.133 23.392 3.102 2.191 6.734 3.966 10.388 4.961 5.086 1.386 9.627-.494 13.019-4.571 3.325-3.997 3.24-8.886 1.086-12.921-2.132-3.995-5.395-7.752-9.007-10.505-5.041-3.843-11.099-6.327-16.293-10-5.75-4.066-11.708-8.204-16.323-13.42-6.022-6.806-6.342-15.782-5.76-24.486 1.429-21.375 19.973-29.225 34.738-29.274 6.957-.023 13.896 2.237 20.892 3.016 3.273.364 6.663-.341 10.001-.54.797-.047 1.599-.007 3.224-.007v32.611c-.13.021-.662.184-1.191.173-.531-.01-1.059-.192-1.577-.297-6.026-12.101-8.641-27.03-26.14-29.559.35-.031.064-.047-.199.024-4.557 1.229-9.101 2.858-10.133 8.085-1.287 6.52.835 12.249 6.274 16.178 5.164 3.73 10.693 6.955 16.058 10.408 5.356 3.447 11.016 6.512 15.981 10.452 6.315 5.012 9.078 12.19 9.14 20.145.039 4.94-.282 9.988-1.29 14.811-2.999 14.355-20.427 25.979-34.615 25.686-5.903-.122-11.805-1.172-17.668-2.061-6.271-.951-12.546-5.772-18.674 1.24l-.725-1.116zm462.673-9.546c0-3.425-.006-7.444.001-11.463.025-14.614.074-29.228.072-43.842-.001-4.371-2.396-6.81-6.882-7.21-4.302-.384-8.782 2.465-8.822 6.394-.191 18.769-.086 37.54-.086 56.925l5.561 3.18-1.101 1.544h-39.228l-.714-.802 5.143-4.721v-5.753c-.009-14.893-.086-29.787.023-44.679.026-3.522-.753-6.199-4.125-7.899-.947-.477-1.421-1.892-2.572-3.533 12.262-3.367 23.656-6.496 35.284-9.688l2.278 6.57c8.389-4.529 17.144-4.574 25.858-3.944 10.503.759 18.847 5.911 21.403 14.457.819 2.739 1.059 5.737 1.072 8.618.062 13.778.03 27.557-.158 41.334-.037 2.73.304 4.886 2.74 6.462.868.562 1.449 1.567 2.857 3.157-1.935.602-3.185 1.333-4.431 1.327-11.681-.056-23.362-.227-35.042-.403-1.034-.016-2.064-.298-4.167-.62 1.935-2.077 3.249-3.489 5.036-5.411zm305.162-64.209l-5.08-1.402v-1.849c11.493-3.025 22.931-6.036 35.162-9.255.381 2.719.959 4.941.961 7.164.016 16.674-.083 33.348-.141 50.022-.011 3.167-.002 6.335-.002 9.318l5.895 4.228c-1.396 1.218-2.346 2.725-3.585 3.021-10.363 2.476-20.779 4.729-31.444 7.108l-1.97-6.466c-2.005.838-3.864 1.462-5.581 2.357-9.222 4.804-18.813 6.866-28.873 3.23-8.533-3.084-13.374-7.859-13.062-18.306.444-14.875.096-29.774.072-44.663-.001-.821-.129-1.641-.203-2.519l-4.878-2.892-.073-1.391c11.766-3.177 23.532-6.354 36.166-9.765 0 9.27.083 17.415-.02 25.558-.142 11.226-.528 22.449-.611 33.675-.054 7.324 5.599 11.808 12.572 9.636 2.069-.645 4.901-3.418 4.943-5.273.39-16.815.24-33.643.24-50.468-.001-.124-.11-.251-.488-1.068zm-576.229 68.05c6.533 2.459 10.219.082 10.228-6.367.042-28.659.042-57.317.035-85.976 0-1.089-.225-2.178-.36-3.394l-10.357-4.987c3.77-2.722 47.314-2.924 51.455-.695l-7.512 5.198v4.35c0 24.346-.108 48.693.068 73.038.051 7.015-2.772 12.349-8.003 16.519-12.035 9.594-40.133 12.273-53.31 1.318-6.058-5.037-11.039-10.503-10.286-19.269.622-7.247 5.366-11.862 11.877-12.718 13.661-1.797 18.628 8.805 15.952 20.639-.895 3.96-3.07 8.236.213 12.344zm126.357-40.088c-1.149 21.72-10.238 36.911-29.467 42.168-13.823 3.779-26.004-.337-36.07-10.45-8.067-8.105-11.925-18.422-11.603-29.403.597-20.389 11.621-37.779 34.744-41.087 15.481-2.215 33.398 8.619 38.688 23.745 1.988 5.685 2.919 11.741 3.708 15.027zm-38.536 37.945c4.013-1.419 6.417-4.142 7.523-8.25 3.476-12.915 3.319-26.093 2.579-39.238-.315-5.594-1.839-11.151-3.137-16.649-.851-3.605-2.959-6.29-7.181-6.308-4.296-.018-6.31 2.885-7.149 6.388-1.347 5.627-2.59 11.346-3.096 17.094-1.135 12.888-.753 25.749 2.57 38.371 1.077 4.091 2.973 7.5 7.891 8.592zm529.596-4.182l3.212-16.977c3.667-.565 4.231 2.157 5.076 4.417 3.192 8.535 8.955 14.651 17.405 17.975 6.709 2.64 12.427-1.216 11.337-7.566-.314-1.828-1.626-3.895-3.107-5.044-7.336-5.689-15.035-10.913-22.305-16.682-6.004-4.765-11.205-10.082-12.315-18.482-1.476-11.16 3.675-21.022 14.49-25.018 11.215-4.144 22.536-3.557 33.722.453 2.46.882 4.896 1.833 7.763 2.91.771 6.42 1.537 12.801 2.335 19.453-4.46.411-5.612-2.714-7.36-5.273-2.776-4.063-5.704-8.033-8.766-11.884-.901-1.133-2.37-2.011-3.758-2.524-5.518-2.039-8.399-.449-10.383 6.186 1.416 1.85 2.802 4.515 4.932 6.285 6.395 5.315 13.131 10.216 19.636 15.401 5.834 4.65 11.249 9.788 12.232 17.685 1.366 10.974-3.738 19.068-12.513 24.92-10.857 7.24-22.601 6.983-34.665 3.392-6.214-1.851-12.078-4.14-16.968-9.627zm-292.619.344l2.984-17.289c3.289-.773 4.446 1.18 5.102 3.553 2.175 7.869 7.549 13.034 14.227 17.139 3.654 2.246 7.471 2.744 12.067.872l3.489-6.081c-1.635-2.149-2.956-4.805-5.058-6.483-7.163-5.72-14.75-10.911-21.89-16.657-6.899-5.552-11.826-11.986-11.514-21.882.409-12.954 6.785-19.083 17.825-22.419 13.315-4.024 25.666-.428 37.894 4.944.675 6.272 1.337 12.421 1.995 18.528-4.152 1.156-5.859-1.325-6.704-3.931-1.814-5.598-5.602-9.717-9.99-13.024-2.373-1.789-6.058-2.324-9.172-2.387-1.142-.023-3.339 2.98-3.287 4.544.08 2.377 1.086 5.374 2.781 6.924 5.315 4.861 11.214 9.077 16.736 13.722 4.021 3.383 8.082 6.793 11.636 10.643 7.73 8.373 5.641 20.847-.609 28.354-8.378 10.063-19.321 13.639-32.396 11.697-7.236-1.075-14.13-2.674-20.375-6.518-1.869-1.153-3.549-2.613-5.741-4.249zm446.217-67.765c-13.618-2.156-16.83 1.024-18.353 12.907-1.14 8.888-.983 17.941 1.191 26.762 3.618 14.682 17.26 23.476 32.325 14.735 2.228-1.293 4.541-2.441 6.815-3.656l1.313.691c-.426 1.735-.365 3.834-1.351 5.148-11.519 15.353-31.087 21.578-49.1 15.266-9.61-3.368-15.836-10.494-18.984-20.205-4.05-12.491-3.971-24.861 1.831-36.795 10.233-21.047 39.382-28.121 58.335-14.309 6.548 4.772 9.939 15.15 7.425 22.728-1.653 4.983-9.446 8.782-15.159 7.925-9.984-1.498-13.884-10.241-10.038-18.877 1.183-2.655 2.495-5.266 3.46-7.999.449-1.271.21-2.786.29-4.321zm-853.552 67.823l10.682.619.262 1.454c-4.247 4.476-9.244 7.816-15.42 9.315-7.529 1.826-14.764 1.766-21.058-3.603-2.87-2.448-4.5-5.369-4.491-9.381.043-18.495-.104-36.991-.216-55.486-.005-.802-.34-1.602-.58-2.659l-5.378-2.655c.729-1.582 1.046-3.794 2.316-4.784 8.647-6.738 17.433-13.304 26.332-19.706 1.688-1.215 4.081-1.451 7.143-2.469v23.175h7.201l.763 3.963-7.557 3.105c.001 19.571.001 38.744.001 59.112zm799.115-78.498v81.413l4.981 3.719c-2.348 2.17-36.921 2.507-40.606.207l5.31-4.414v-59.022l-5.847-4.42c12.199-5.899 23.911-11.56 36.162-17.483zm-408.826 23.812l-1.76-4.056c3.588-3.399 6.939-6.278 9.864-9.539.793-.885.298-2.924.435-5.062-3.138-2.022-6.353-4.126-9.601-6.178-8.551-5.403-9.918-11.022-5.975-18.01 3.544-6.281 10.913-9.014 17.996-7.601 7.946 1.586 12.697 7.618 13.03 15.917.522 12.99-7.561 28.922-21.614 33.839-.631.22-1.283.375-2.375.69zm-359.313 68.346c-8.146-.032-14.956-6.924-14.995-15.268-.042-8.856 6.508-15.717 15.329-15.9 8.149-.169 15.367 7.442 15.357 15.604-.011 8.573-7.093 15.598-15.691 15.564zm752.641-119.003c5.307.108 10.345 1.582 14.529 5.568 4.039 3.848 4.212 9.661.242 13.634-7.213 7.217-23.537 6.833-30.438-.717-3.67-4.015-3.639-8.692.245-12.59 4.15-4.166 9.336-5.821 15.422-5.895z"/></svg>