<svg xmlns="http://www.w3.org/2000/svg" viewBox="-9.223 -288.133 1280 800" enable-background="new -9.223 -288.133 1280 800"><g><path fill-rule="evenodd" clip-rule="evenodd" d="M112.232 27.555l46.846 149.917h40.293l5.621-21.92-41.23-127.997h-51.53zm133.985 0l-34.194 109.444-34.205-109.444h68.399z"/><path d="M112.232 27.555l46.846 149.917h40.293l5.621-21.92-41.23-127.997h-51.53zm133.985 0l-34.194 109.444-34.205-109.444h68.399z"/><path fill-rule="evenodd" clip-rule="evenodd" d="M257.018 27.555h51.536v149.917h-51.536v-149.917zM389.525 27.555h44.505v51.536l-44.505-51.536zm0 149.917h44.505v-51.529l-44.505 51.529zm-11.714-149.917h4.689v149.917h-4.689c-36.915 0-59.026-38.038-59.026-74.953-.001-36.914 22.111-74.964 59.026-74.964z"/><path d="M389.525 27.555h44.505v51.536l-44.505-51.536zm0 149.917h44.505v-51.529l-44.505 51.529zm-11.714-149.917h4.689v149.917h-4.689c-36.915 0-59.026-38.038-59.026-74.953-.001-36.914 22.111-74.964 59.026-74.964z"/><path fill="#D71D24" d="M255.54-12.49c0-15.049 12.2-27.249 27.243-27.249 15.056 0 27.255 12.2 27.255 27.249s-12.2 27.249-27.256 27.249c-15.042 0-27.242-12.199-27.242-27.249zM670.775-12.49c0-15.049 12.2-27.249 27.255-27.249 15.044 0 27.249 12.2 27.249 27.249s-12.205 27.249-27.249 27.249c-15.056 0-27.255-12.199-27.255-27.249z"/><path fill-rule="evenodd" clip-rule="evenodd" d="M546.877 27.555h51.529v149.917h-51.529v-149.917zm58.561 0h53.871v56.225l-53.871-56.225zm30.448 46.858v56.212l-30.448-28.105 30.448-28.107z"/><path d="M546.877 27.555h51.529v149.917h-51.529v-149.917zm58.561 0h53.871v56.225l-53.871-56.225zm30.448 46.858v56.212l-30.448-28.105 30.448-28.107z"/><path fill-rule="evenodd" clip-rule="evenodd" d="M672.259 27.555h51.536v149.917h-51.536v-149.917zM738.932 27.555h51.535v149.917h-51.535v-149.917zm65.585 0v74.965h9.373c28.579 0 42.163-15.646 42.163-37.486 0-21.826-13.584-37.479-42.163-37.479h-9.373zm0 149.917h60.909l-60.909-74.953v74.953z"/><path d="M738.932 27.555h51.535v149.917h-51.535v-149.917zm65.585 0v74.965h9.373c28.579 0 42.163-15.646 42.163-37.486 0-21.826-13.584-37.479-42.163-37.479h-9.373zm0 149.917h60.909l-60.909-74.953v74.953z"/><path fill-rule="evenodd" clip-rule="evenodd" d="M905.203 27.555h51.529l.001 149.917h-51.53v-149.917zm-7.03 0h-30.449v65.591l30.449-65.591zm65.59 0h30.455v65.591l-30.455-65.591z"/><path d="M905.203 27.555h51.529l.001 149.917h-51.53v-149.917zm-7.03 0h-30.449v65.591l30.449-65.591zm65.59 0h30.455v65.591l-30.455-65.591z"/><path fill-rule="evenodd" clip-rule="evenodd" d="M1008.237 177.472v-149.917h51.53v63.716h16.398v-63.716h51.535v149.917h-51.535v-73.077h-16.398v73.077h-51.53z"/><path d="M1139.949 28.56c1.576 0 3.111.411 4.609 1.218 1.503.808 2.671 1.963 3.509 3.465.838 1.503 1.255 3.068 1.255 4.708 0 1.615-.417 3.167-1.236 4.659-.827 1.492-1.982 2.647-3.467 3.478-1.49.82-3.043 1.229-4.669 1.229-1.627 0-3.18-.41-4.67-1.229-1.485-.832-2.648-1.987-3.474-3.478-.826-1.492-1.242-3.045-1.242-4.659 0-1.639.417-3.205 1.262-4.708.844-1.503 2.011-2.658 3.514-3.465 1.496-.807 3.031-1.218 4.609-1.218zm0 1.566c-1.318 0-2.597.342-3.84 1.019-1.248.67-2.222 1.633-2.924 2.888-.703 1.255-1.056 2.559-1.056 3.919 0 1.342.342 2.641 1.037 3.876.689 1.236 1.652 2.198 2.894 2.894 1.242.69 2.541 1.031 3.889 1.031 1.347 0 2.646-.341 3.886-1.031 1.244-.696 2.2-1.658 2.89-2.894.689-1.235 1.031-2.534 1.031-3.876 0-1.36-.353-2.664-1.049-3.919-.696-1.254-1.678-2.217-2.92-2.888-1.254-.676-2.533-1.019-3.838-1.019zm-4.119 12.995v-10.088h3.465c1.188 0 2.044.099 2.573.285.528.186.952.51 1.268.969.316.459.471.956.471 1.479 0 .733-.26 1.373-.787 1.912-.524.546-1.218.857-2.088.919.354.15.64.336.857.535.404.404.901 1.068 1.49 2.012l1.224 1.976h-1.982l-.902-1.591c-.7-1.255-1.272-2.038-1.694-2.354-.299-.23-.733-.354-1.306-.354h-.949v4.299h-1.64zm1.641-5.69h1.963c.937 0 1.584-.137 1.918-.417.348-.279.516-.651.516-1.112 0-.297-.08-.565-.249-.8-.167-.236-.391-.411-.683-.528-.292-.112-.838-.174-1.62-.174h-1.845v3.031z"/></g></svg>