<svg xmlns="http://www.w3.org/2000/svg" width="1186.245" height="248.45" viewBox="0 0 1186.245 248.45"><g fill="#B3B4B4"><path fill-rule="evenodd" clip-rule="evenodd" d="M0 76.972l53.584 171.478h46.088l6.43-25.072-47.161-146.406h-58.941zm153.254 0l-39.111 125.185-39.125-125.185h78.236z"/><path d="M0 76.972l53.584 171.478h46.088l6.43-25.072-47.161-146.406h-58.941zm153.254 0l-39.111 125.185-39.125-125.185h78.236z"/><path fill-rule="evenodd" clip-rule="evenodd" d="M165.609 76.972h58.948v171.478h-58.948v-171.478zM317.173 76.972h50.905v58.948l-50.905-58.948zm0 171.478h50.905v-58.94l-50.905 58.94zm-13.398-171.478h5.364v171.478h-5.364c-42.224 0-67.516-43.509-67.516-85.732 0-42.224 25.292-85.746 67.516-85.746z"/><path d="M317.173 76.972h50.905v58.948l-50.905-58.948zm0 171.478h50.905v-58.94l-50.905 58.94zm-13.398-171.478h5.364v171.478h-5.364c-42.224 0-67.516-43.509-67.516-85.732 0-42.224 25.292-85.746 67.516-85.746zM163.919 31.168c0-17.214 13.954-31.168 31.161-31.168 17.221 0 31.175 13.954 31.175 31.168s-13.954 31.168-31.176 31.168c-17.206 0-31.16-13.954-31.16-31.168zM638.873 31.168c0-17.214 13.954-31.168 31.174-31.168 17.208 0 31.168 13.954 31.168 31.168s-13.96 31.168-31.168 31.168c-17.22 0-31.174-13.954-31.174-31.168z"/><path fill-rule="evenodd" clip-rule="evenodd" d="M497.156 76.972h58.94v171.478h-58.94v-171.478zm66.983 0h61.618v64.312l-61.618-64.312zm34.827 53.597v64.296l-34.827-32.148 34.827-32.148z"/><path d="M497.156 76.972h58.94v171.478h-58.94v-171.478zm66.983 0h61.618v64.312l-61.618-64.312zm34.827 53.597v64.296l-34.827-32.148 34.827-32.148z"/><path fill-rule="evenodd" clip-rule="evenodd" d="M640.571 76.972h58.947v171.478h-58.947v-171.478zM716.833 76.972h58.947v171.478h-58.947v-171.478zm75.017 0v85.746h10.721c32.69 0 48.227-17.896 48.227-42.877 0-24.965-15.538-42.869-48.227-42.869h-10.721zm0 171.478h69.669l-69.669-85.732v85.732z"/><path d="M716.833 76.972h58.947v171.478h-58.947v-171.478zm75.017 0v85.746h10.721c32.69 0 48.227-17.896 48.227-42.877 0-24.965-15.538-42.869-48.227-42.869h-10.721zm0 171.478h69.669l-69.669-85.732v85.732z"/><path fill-rule="evenodd" clip-rule="evenodd" d="M907.016 76.972h58.94l.001 171.479h-58.941v-171.479zm-8.041 0h-34.828v75.024l34.828-75.024zm75.024 0h34.835v75.024l-34.835-75.024z"/><path d="M907.016 76.972h58.94l.001 171.479h-58.941v-171.479zm-8.041 0h-34.828v75.024l34.828-75.024zm75.024 0h34.835v75.024l-34.835-75.024z"/><path fill-rule="evenodd" clip-rule="evenodd" d="M1024.869 248.45v-171.478h58.941v72.88h18.756v-72.88h58.947v171.478h-58.947v-83.587h-18.756v83.587h-58.941z"/></g><path fill="#B3B4B4" d="M1175.524 78.122c1.803 0 3.559.47 5.271 1.394 1.719.924 3.055 2.245 4.014 3.964.959 1.719 1.436 3.51 1.436 5.385 0 1.847-.477 3.623-1.414 5.329-.945 1.706-2.267 3.027-3.966 3.979-1.704.938-3.481 1.406-5.341 1.406-1.861 0-3.638-.469-5.342-1.406-1.699-.951-3.029-2.272-3.974-3.979-.944-1.706-1.421-3.482-1.421-5.329 0-1.875.477-3.666 1.443-5.385.965-1.719 2.301-3.04 4.02-3.964 1.713-.924 3.469-1.394 5.274-1.394zm0 1.791c-1.508 0-2.971.392-4.393 1.166-1.428.767-2.542 1.868-3.345 3.303-.804 1.436-1.208 2.927-1.208 4.482 0 1.535.391 3.021 1.187 4.434.788 1.414 1.89 2.515 3.31 3.311 1.421.789 2.906 1.18 4.448 1.18 1.541 0 3.026-.391 4.445-1.18 1.423-.796 2.517-1.896 3.306-3.311.788-1.413 1.179-2.898 1.179-4.434 0-1.556-.404-3.047-1.2-4.482-.796-1.435-1.919-2.536-3.34-3.303-1.434-.774-2.897-1.166-4.389-1.166zm-4.712 14.863v-11.538h3.964c1.359 0 2.338.113 2.942.326.604.213 1.089.583 1.45 1.108.361.525.539 1.094.539 1.691 0 .838-.298 1.57-.9 2.188-.6.625-1.394.98-2.389 1.051.404.172.731.385.981.612.462.462 1.03 1.222 1.704 2.302l1.4 2.26h-2.267l-1.031-1.819c-.801-1.436-1.455-2.331-1.938-2.692-.342-.263-.839-.405-1.494-.405h-1.085v4.917h-1.876zm1.877-6.507h2.245c1.071 0 1.812-.157 2.194-.477.398-.319.59-.745.59-1.272 0-.34-.092-.646-.284-.915-.19-.271-.447-.47-.781-.604-.334-.128-.958-.199-1.854-.199h-2.11v3.467z"/></svg>