<?xml version="1.0" encoding="utf-8"?>
<!-- Generator: Adobe Illustrator 17.0.0, SVG Export Plug-In . SVG Version: 6.00 Build 0)  -->
<!DOCTYPE svg PUBLIC "-//W3C//DTD SVG 1.1//EN" "http://www.w3.org/Graphics/SVG/1.1/DTD/svg11.dtd">
<svg version="1.1" id="Layer_1" xmlns="http://www.w3.org/2000/svg" xmlns:xlink="http://www.w3.org/1999/xlink" x="0px" y="0px"
	 width="283.464px" height="64.154px" viewBox="1.903 4.007 283.464 64.154" enable-background="new 1.903 4.007 283.464 64.154"
	 xml:space="preserve">
<g>
	<path fill="#B3B3B3" d="M33.979,4.007c-17.715,0-32.076,14.361-32.076,32.077c0,17.713,14.361,32.077,32.076,32.077
		s32.076-14.363,32.076-32.077C66.055,18.369,51.693,4.007,33.979,4.007z M33.979,66.794c-16.961,0-30.709-13.75-30.709-30.709
		c0-16.961,13.748-30.711,30.709-30.711S64.69,19.124,64.69,36.085C64.689,53.044,50.939,66.794,33.979,66.794z M32.215,35.065
		v2.037l1.764,1.019l1.764-1.019v-2.037l-1.764-1.02L32.215,35.065z M24.356,39.869c-0.733,0.422-0.985,1.359-0.561,2.094
		c0.424,0.732,1.361,0.984,2.095,0.561l3.746-2.162V38.59l-1.533-0.885C28.103,37.705,24.356,39.869,24.356,39.869z M35.512,30.184
		v-4.326c0-0.848-0.686-1.533-1.533-1.533c-0.846,0-1.533,0.686-1.533,1.533v4.326l1.533,0.885
		C33.979,31.069,35.512,30.184,35.512,30.184z M33.979,8.838c-15.047,0-27.246,12.199-27.246,27.247
		c0,15.047,12.199,27.245,27.246,27.245s27.246-12.197,27.246-27.245S49.025,8.838,33.979,8.838z M55.849,49.229l-6.737-1.26
		l-0.236-0.088c-0.229-0.133-0.363-0.363-0.383-0.608c-0.061-0.752-0.477-1.461-1.18-1.865c-0.624-0.363-1.344-0.406-1.975-0.186
		v0.002c-1.603,0.562-3.433,0.449-5.019-0.467l-1.997-1.152v13.11h-2.81V41.982l-1.533-0.885l-1.533,0.887v14.731h-2.81v-13.11
		l-1.997,1.152c-1.586,0.916-3.416,1.029-5.019,0.467v-0.002c-0.631-0.221-1.351-0.178-1.976,0.186
		c-0.702,0.404-1.119,1.113-1.18,1.865c-0.02,0.244-0.154,0.475-0.383,0.608l-0.235,0.088l-6.739,1.26
		c-0.193,0.041-0.399-0.047-0.504-0.227c-0.105-0.182-0.076-0.402,0.055-0.551l4.461-5.207l0.195-0.16
		c0.226-0.131,0.494-0.133,0.716-0.027c0.682,0.324,1.505,0.318,2.207-0.088c0.624-0.361,1.022-0.963,1.146-1.619h-0.001
		c0.314-1.67,1.326-3.197,2.913-4.113l1.997-1.152l-11.353-6.556l1.406-2.434l12.757,7.366l1.533-0.886v-1.77L16.878,24.44
		l1.405-2.434l11.353,6.555v-2.307c0-1.831,0.817-3.473,2.107-4.578c0.508-0.436,0.829-1.081,0.829-1.803
		c0-0.811-0.407-1.526-1.027-1.955h-0.001c-0.201-0.139-0.334-0.371-0.334-0.635l0.041-0.249l2.279-6.465
		c0.062-0.188,0.24-0.323,0.449-0.323s0.387,0.135,0.45,0.323l2.277,6.465l0.041,0.249c0,0.264-0.132,0.496-0.334,0.635
		c-0.62,0.429-1.026,1.144-1.026,1.955c0,0.722,0.32,1.367,0.828,1.803c1.29,1.105,2.106,2.747,2.106,4.578v2.307l11.354-6.555
		l1.405,2.434l-12.759,7.365v1.77l1.534,0.886l12.758-7.366l1.404,2.434l-11.353,6.556l1.997,1.152
		c1.586,0.916,2.6,2.443,2.912,4.113c0.123,0.656,0.521,1.258,1.146,1.619c0.702,0.406,1.525,0.412,2.206,0.088
		c0.222-0.105,0.489-0.104,0.718,0.027l0.193,0.16l4.461,5.207c0.131,0.148,0.16,0.369,0.055,0.551
		C56.249,49.182,56.043,49.27,55.849,49.229z M43.602,39.869l-3.746-2.164l-1.534,0.887v1.77l3.747,2.162
		c0.733,0.424,1.67,0.172,2.094-0.561C44.586,41.229,44.335,40.291,43.602,39.869z M238.449,29.844h-10.248V9.354h-9.361v53.461
		h9.361V39.338h10.248v23.477h9.57V9.354h-9.57L238.449,29.844z M94.336,9.354l-7.073,20.827l-6.4-20.827h-9.339l10.393,32.781
		v20.68h10.397V41.07l10.774-31.716H94.336z M157.339,34.784l-5.202-25.43h-14.616v53.461h8.381V22.514l7.155,35.034h7.827
		l6.345-35.6v40.867h9.826V9.354h-15.23L157.339,34.784z M276.544,9.354h-14.475l-9.773,53.462h8.667l2.073-12.441h10.777
		l2.011,12.441h9.543L276.544,9.354z M264.521,41.461l3.983-23.908l3.866,23.908H264.521z M191.105,9.354l-9.773,53.462h8.667
		l2.072-12.441h10.777l2.013,12.441h9.541l-8.819-53.462H191.105z M193.556,41.461l3.987-23.908l3.864,23.908H193.556z
		 M109.785,9.354l-9.771,53.462h8.666l2.072-12.441h10.777l2.013,12.441h9.542l-8.821-53.462H109.785L109.785,9.354z
		 M112.237,41.461l3.985-23.908l3.866,23.908H112.237z"/>
</g>
</svg>
