<svg xmlns="http://www.w3.org/2000/svg" width="283.464" height="64.154" viewBox="1.903 4.007 283.464 64.154" enable-background="new 1.903 4.007 283.464 64.154"><path fill="#B3B3B3" d="M33.979 4.007c-17.715 0-32.076 14.361-32.076 32.077 0 17.713 14.361 32.077 32.076 32.077s32.076-14.363 32.076-32.077c0-17.715-14.362-32.077-32.076-32.077zm0 62.787c-16.961 0-30.709-13.75-30.709-30.709 0-16.961 13.748-30.711 30.709-30.711s30.711 13.75 30.711 30.711c-.001 16.959-13.751 30.709-30.711 30.709zm-1.764-31.729v2.037l1.764 1.019 1.764-1.019v-2.037l-1.764-1.02-1.764 1.02zm-7.859 4.804c-.733.422-.985 1.359-.561 2.094.424.732 1.361.984 2.095.561l3.746-2.162v-1.772l-1.533-.885-3.747 2.164zm11.156-9.685v-4.326c0-.848-.686-1.533-1.533-1.533-.846 0-1.533.686-1.533 1.533v4.326l1.533.885 1.533-.885zm-1.533-21.346c-15.047 0-27.246 12.199-27.246 27.247 0 15.047 12.199 27.245 27.246 27.245s27.246-12.197 27.246-27.245-12.2-27.247-27.246-27.247zm21.87 40.391l-6.737-1.26-.236-.088c-.229-.133-.363-.363-.383-.608-.061-.752-.477-1.461-1.18-1.865-.624-.363-1.344-.406-1.975-.186v.002c-1.603.562-3.433.449-5.019-.467l-1.997-1.152v13.11h-2.81v-14.733l-1.533-.885-1.533.887v14.731h-2.81v-13.11l-1.997 1.152c-1.586.916-3.416 1.029-5.019.467v-.002c-.631-.221-1.351-.178-1.976.186-.702.404-1.119 1.113-1.18 1.865-.02.244-.154.475-.383.608l-.235.088-6.739 1.26c-.193.041-.399-.047-.504-.227-.105-.182-.076-.402.055-.551l4.461-5.207.195-.16c.226-.131.494-.133.716-.027.682.324 1.505.318 2.207-.088.624-.361 1.022-.963 1.146-1.619h-.001c.314-1.67 1.326-3.197 2.913-4.113l1.997-1.152-11.353-6.556 1.406-2.434 12.757 7.366 1.533-.886v-1.77l-12.757-7.365 1.405-2.434 11.353 6.555v-2.307c0-1.831.817-3.473 2.107-4.578.508-.436.829-1.081.829-1.803 0-.811-.407-1.526-1.027-1.955h-.001c-.201-.139-.334-.371-.334-.635l.041-.249 2.279-6.465c.062-.188.24-.323.449-.323s.387.135.45.323l2.277 6.465.041.249c0 .264-.132.496-.334.635-.62.429-1.026 1.144-1.026 1.955 0 .722.32 1.367.828 1.803 1.29 1.105 2.106 2.747 2.106 4.578v2.307l11.354-6.555 1.405 2.434-12.759 7.365v1.77l1.534.886 12.758-7.366 1.404 2.434-11.353 6.556 1.997 1.152c1.586.916 2.6 2.443 2.912 4.113.123.656.521 1.258 1.146 1.619.702.406 1.525.412 2.206.088.222-.105.489-.104.718.027l.193.16 4.461 5.207c.131.148.16.369.055.551-.103.18-.309.268-.503.227zm-12.247-9.36l-3.746-2.164-1.534.887v1.77l3.747 2.162c.733.424 1.67.172 2.094-.561.423-.734.172-1.672-.561-2.094zm194.847-10.025h-10.248v-20.49h-9.361v53.461h9.361v-23.477h10.248v23.477h9.57v-53.461h-9.57v20.49zm-144.113-20.49l-7.073 20.827-6.4-20.827h-9.339l10.393 32.781v20.68h10.397v-21.745l10.774-31.716h-8.752zm63.003 25.43l-5.202-25.43h-14.616v53.461h8.381v-40.301l7.155 35.034h7.827l6.345-35.6v40.867h9.826v-53.461h-15.23l-4.486 25.43zm119.205-25.43h-14.475l-9.773 53.462h8.667l2.073-12.441h10.777l2.011 12.441h9.543l-8.823-53.462zm-12.023 32.107l3.983-23.908 3.866 23.908h-7.849zm-73.416-32.107l-9.773 53.462h8.667l2.072-12.441h10.777l2.013 12.441h9.541l-8.819-53.462h-14.478zm2.451 32.107l3.987-23.908 3.864 23.908h-7.851zm-83.771-32.107l-9.771 53.462h8.666l2.072-12.441h10.777l2.013 12.441h9.542l-8.821-53.462h-14.478zm2.452 32.107l3.985-23.908 3.866 23.908h-7.851z"/></svg>