<svg xmlns="http://www.w3.org/2000/svg" width="1280" height="800" viewBox="-9.223 -288.133 1280 800" enable-background="new -9.223 -288.133 1280 800"><path fill="#B3B3B3" d="M320.35 10.295c-50.15 0-90.805 40.655-90.805 90.807 0 50.144 40.655 90.807 90.805 90.807s90.805-40.661 90.805-90.807c-.001-50.15-40.659-90.807-90.805-90.807zm0 177.745c-48.015 0-86.935-38.925-86.935-86.935 0-48.015 38.92-86.94 86.935-86.94s86.94 38.925 86.94 86.94c-.003 48.009-38.928 86.935-86.94 86.935zm-4.994-89.823v5.767l4.994 2.885 4.994-2.885v-5.767l-4.994-2.888-4.994 2.888zm-22.248 13.6c-2.075 1.195-2.788 3.847-1.588 5.928 1.2 2.072 3.853 2.786 5.931 1.588l10.605-6.12v-5.016l-4.34-2.505-10.608 6.125zm31.581-27.417v-12.247c0-2.401-1.942-4.34-4.34-4.34-2.395 0-4.34 1.942-4.34 4.34v12.247l4.34 2.505 4.34-2.505zm-4.339-60.429c-42.597 0-77.131 34.534-77.131 77.134 0 42.597 34.534 77.128 77.131 77.128s77.131-34.529 77.131-77.128-34.537-77.134-77.131-77.134zm61.912 114.343l-19.072-3.567-.668-.249c-.648-.377-1.028-1.028-1.084-1.721-.173-2.129-1.35-4.136-3.34-5.28-1.767-1.028-3.805-1.149-5.591-.527v.006c-4.538 1.591-9.719 1.271-14.208-1.322l-5.653-3.261v37.113h-7.955v-41.708l-4.34-2.505-4.34 2.511v41.702h-7.955v-37.113l-5.653 3.261c-4.49 2.593-9.67 2.913-14.208 1.322v-.006c-1.786-.626-3.825-.504-5.594.527-1.987 1.144-3.168 3.151-3.34 5.28-.057.691-.436 1.345-1.084 1.721l-.665.249-19.078 3.567c-.546.116-1.13-.133-1.427-.643-.297-.515-.215-1.138.156-1.56l12.629-14.741.552-.453c.64-.371 1.398-.377 2.027-.076 1.931.917 4.261.9 6.248-.249 1.766-1.022 2.893-2.726 3.244-4.583h-.003c.889-4.728 3.754-9.05 8.246-11.644l5.653-3.261-32.139-18.56 3.98-6.89 36.114 20.853 4.34-2.508v-5.011l-36.114-20.85 3.977-6.89 32.139 18.557v-6.531c0-5.183 2.313-9.832 5.965-12.96 1.438-1.234 2.347-3.06 2.347-5.104 0-2.296-1.152-4.32-2.907-5.534h-.003c-.569-.393-.946-1.05-.946-1.798l.116-.705 6.452-18.302c.176-.532.679-.914 1.271-.914.592 0 1.096.382 1.274.914l6.446 18.302.116.705c0 .747-.374 1.404-.946 1.798-1.755 1.214-2.905 3.239-2.905 5.534 0 2.044.906 3.87 2.344 5.104 3.652 3.128 5.962 7.777 5.962 12.96v6.531l32.142-18.557 3.977 6.89-36.12 20.85v5.011l4.343 2.508 36.117-20.853 3.975 6.89-32.139 18.56 5.653 3.261c4.49 2.593 7.36 6.916 8.244 11.644.348 1.857 1.475 3.561 3.244 4.583 1.987 1.149 4.317 1.166 6.245.249.628-.297 1.384-.294 2.033.076l.546.453 12.629 14.741c.371.419.453 1.045.156 1.56-.293.51-.876.76-1.425.643zm-34.67-26.497l-10.605-6.126-4.343 2.511v5.011l10.607 6.12c2.075 1.2 4.728.487 5.928-1.588 1.198-2.078.488-4.733-1.587-5.928zm551.596-28.38h-29.011v-58.005h-26.5v151.344h26.5v-66.462h29.011v66.462h27.092v-151.344h-27.092v58.005zm-407.973-58.005l-20.023 58.96-18.118-58.96h-26.438l29.422 92.8v58.543h29.433v-61.558l30.5-89.785h-24.776zm178.357 71.99l-14.726-71.99h-41.377v151.344h23.726v-114.09l20.255 99.178h22.158l17.962-100.78v115.691h27.817v-151.343h-43.115l-12.7 71.99zm337.46-71.99h-40.978l-27.667 151.347h24.536l5.868-35.219h30.509l5.693 35.219h27.016l-24.977-151.347zm-34.036 90.892l11.276-67.682 10.944 67.682h-22.22zm-207.835-90.892l-27.667 151.347h24.536l5.866-35.219h30.509l5.699 35.219h27.01l-24.967-151.347h-40.986zm6.938 90.892l11.287-67.682 10.939 67.682h-22.226zm-237.149-90.892l-27.661 151.347h24.533l5.866-35.219h30.509l5.699 35.219h27.013l-24.973-151.347h-40.986zm6.942 90.892l11.281-67.682 10.944 67.682h-22.225z"/></svg>